<svg width="160" height="160" viewBox="0 0 160 160" fill="none" xmlns="http://www.w3.org/2000/svg">
<mask id="mask0_805_6005" style="mask-type:alpha" maskUnits="userSpaceOnUse" x="0" y="0" width="160" height="160">
<circle cx="79.7377" cy="79.7377" r="79.7377" fill="#D9D9D9"/>
</mask>
<g mask="url(#mask0_805_6005)">
<path d="M123.451 145.569C123.085 145.83 122.667 146.092 122.301 146.353C121.883 146.614 121.517 146.876 121.098 147.085C120.732 147.294 120.419 147.503 120.053 147.713C120 147.765 119.948 147.765 119.896 147.817C118.693 148.549 117.438 149.229 116.183 149.856C115.817 150.065 115.399 150.275 115.033 150.431C115.033 150.431 114.981 150.484 114.928 150.484C114.51 150.693 114.092 150.902 113.673 151.111C112.837 151.53 111.948 151.896 111.111 152.262C110.693 152.471 110.222 152.628 109.804 152.784C109.386 152.941 108.915 153.15 108.497 153.307C108.079 153.464 107.608 153.673 107.19 153.83C107.19 153.83 107.19 153.83 107.137 153.83C106.719 153.987 106.249 154.144 105.83 154.301C104.889 154.614 103.896 154.928 102.954 155.242C102.641 155.347 102.275 155.451 101.961 155.556C100.968 155.869 99.9741 156.131 98.9806 156.34C98.6146 156.445 98.2486 156.497 97.8303 156.601C96.8891 156.811 95.8957 157.02 94.9545 157.229C94.7453 157.281 94.5885 157.281 94.3793 157.333C94.0656 157.386 93.6996 157.438 93.3858 157.49C92.9153 157.543 92.497 157.647 92.0264 157.699C91.8172 157.752 91.6081 157.752 91.3989 157.804C91.1375 157.856 90.8238 157.909 90.51 157.909C89.6734 158.013 88.7845 158.118 87.9479 158.222C87.6865 158.275 87.3728 158.275 87.1113 158.327H87.0591C86.693 158.379 86.327 158.379 85.961 158.431C85.595 158.484 85.229 158.484 84.863 158.484C84.6538 158.484 84.3924 158.536 84.1832 158.536C83.7649 158.536 83.3989 158.588 83.0329 158.588C82.51 158.588 82.0394 158.641 81.5166 158.641C80.9937 158.641 80.5231 158.641 80.0002 158.641C79.6342 158.641 79.2682 158.641 78.9022 158.641C56.8368 158.327 37.0198 148.967 22.8499 134.118C22.8499 134.118 22.8499 134.065 22.7976 134.065C21.229 132.654 22.5885 125.124 28.9153 120.366C36.863 114.353 55.8956 110.588 55.8956 110.588C55.8956 110.588 63.2682 109.386 90.6146 115.085C106.615 118.431 118.798 123.294 125.595 136.471C127.007 139.19 128.419 143.373 123.451 145.569Z" fill="white"/>
<path d="M90.7714 114.51C100.811 116.549 111.53 118.745 119.791 125.386C122.562 127.634 124.392 130.928 125.909 134.118C126.641 135.686 127.373 137.307 127.948 139.033C128.262 140.183 128.732 141.49 128.471 142.85C128.418 143.216 128.105 143.686 127.843 143.948C126.641 145.15 125.334 145.882 124.026 146.824C116.34 152.157 107.503 155.922 98.3531 157.909C77.961 162.353 55.8956 158.902 37.961 148.183C32.0002 144.575 26.51 140.183 21.8041 135.007C21.2812 134.379 21.2812 133.333 21.2812 132.654C21.3335 131.085 21.7518 129.569 22.2747 128.157C23.5296 124.915 25.1505 121.673 27.9218 119.425C29.9087 118.065 32.0525 116.915 34.2486 115.974C41.1505 113.046 48.4185 111.007 55.8956 110.17C56.5231 110.118 56.6277 111.007 56.0002 111.111C48.8368 112.575 41.7257 114.771 35.0852 117.752C32.6799 118.954 30.1179 120 28.1832 121.882C26.3531 123.869 25.046 126.327 24.0002 128.837C23.3205 130.353 22.8499 132.758 23.059 133.961C26.3531 137.882 30.2224 141.333 34.4054 144.314C57.3074 160.314 92.0786 161.359 116.445 148.026C118.641 146.824 120.785 145.464 122.824 144.052C123.817 143.373 124.863 142.797 125.647 142.013C125.7 141.961 125.647 142.013 125.647 142.065C125.647 142.118 125.595 142.17 125.595 142.17C125.647 141.542 125.438 140.706 125.177 139.869C124.235 136.837 122.719 133.647 121.098 130.876C118.536 126.745 114.196 124.131 109.804 122.039C106.771 120.627 103.582 119.529 100.34 118.484C97.0982 117.438 93.8041 116.549 90.51 115.765C89.6734 115.556 89.9348 114.353 90.7714 114.51Z" fill="black"/>
<path d="M119.791 125.856C115.817 122.248 103.111 116.601 93.5951 114.301C89.4121 113.307 79.582 110.431 72.1049 109.699C68.0787 109.281 60.6539 110.274 56.0003 110.431C51.5036 110.588 36.3402 113.673 29.0722 118.797C27.5036 119.895 20.497 126.85 17.4644 144.68C15.1114 158.431 12.1833 176.261 12.0787 182.327H131.242C133.229 146.876 123.922 129.621 119.791 125.856Z" fill="black"/>
<path d="M118.902 126.85C116.497 124.81 113.412 123.242 110.536 121.882C106.039 119.739 101.333 117.908 96.523 116.497C91.7125 115.19 86.6929 113.935 81.8824 112.784C78.6406 112.052 75.3465 111.425 72.0524 111.059C68.8628 110.797 65.4118 111.163 62.17 111.373C59.7125 111.582 57.1504 111.686 54.6406 111.895C47.3203 112.889 39.8955 114.824 33.2027 117.961C31.9478 118.588 30.7452 119.216 29.6471 120.052C26.8759 122.562 24.889 126.065 23.3203 129.464C20.7582 135.111 19.3465 141.281 18.4053 147.399C17.621 152.209 16.6798 157.595 15.9478 162.405C14.9543 168.993 13.804 175.686 13.4903 182.327L12.1308 180.967H131.242L129.882 182.222C130.614 167.791 129.987 152.941 125.438 139.085C123.922 134.797 122.092 130.196 118.902 126.85ZM120.732 124.863C122.719 126.745 124.026 128.889 125.438 131.137C129.412 137.673 131.294 145.098 132.34 152.627C133.804 162.458 133.752 172.497 132.654 182.379C132.654 183.111 132.026 183.686 131.294 183.634H12.1831C11.4511 183.634 10.8236 183.007 10.8236 182.274C10.8759 180.497 11.085 178.824 11.2419 177.098C11.8171 172.026 12.6014 167.007 13.438 161.987C14.17 157.176 15.1635 151.791 15.9478 146.98C16.9935 140.654 18.4576 134.275 21.072 128.418C22.8498 124.654 24.889 120.941 28.0785 118.118C29.3334 117.176 30.6929 116.392 32.1047 115.712C39.1635 112.418 46.6929 110.484 54.3269 109.386C56.8367 109.176 59.3988 109.072 61.9609 108.81C65.4118 108.549 68.7583 108.183 72.3138 108.444C75.7648 108.81 79.1112 109.438 82.4576 110.17C87.4772 111.32 92.34 112.523 97.3073 113.882C102.222 115.346 107.033 117.176 111.686 119.373C114.876 121.046 117.909 122.51 120.732 124.863Z" fill="black"/>
<path d="M121.987 182.327C118.484 149.072 111.582 132.131 111.582 132.131C109.961 123.19 105.673 116.131 104.314 115.503C101.856 114.405 101.438 114.771 101.438 114.771C105.412 120.157 107.451 129.307 107.974 134.065C92.9674 140.601 65.255 136.052 55.5818 133.961C52.3922 128.261 46.2746 116.34 40.9413 111.791C40.4707 111.425 39.8432 111.373 39.3203 111.582C38.902 111.791 38.3269 112.157 37.804 112.784C37.5426 113.098 37.5426 113.516 37.8563 113.83C37.9086 113.882 37.9609 113.935 38.0131 113.987C46.902 123.712 51.7648 140.706 50.5622 153.83C48.4184 177.15 44.34 182.275 44.34 182.275H121.987V182.327Z" fill="url(#paint0_linear_805_6005)"/>
<path d="M120.994 181.438C120.523 179.66 120.209 177.935 120.105 176.105C118.536 161.307 116.34 146.301 111.111 132.34L111.843 132.601C111.582 132.758 111.268 132.654 111.111 132.444C110.379 128.941 109.334 125.49 107.765 122.248C106.719 120.157 105.673 118.013 104.052 116.392C103.425 116.078 102.588 115.817 101.909 115.608C101.804 115.556 101.7 115.556 101.647 115.556C101.647 115.556 101.647 115.556 101.7 115.556H101.752C101.804 115.556 101.752 115.556 101.856 115.451L101.961 114.458C102.432 115.242 103.477 117.176 103.843 117.961C105.517 121.464 106.562 125.281 107.399 129.046C107.713 130.719 108.026 132.444 108.235 134.17C108.235 134.327 108.183 134.431 108.026 134.536C99.7649 137.987 90.6145 138.301 81.7779 138.196C77.3335 138.091 72.8891 137.725 68.4969 137.255C64.1047 136.732 59.7126 136.052 55.3204 135.163C55.0067 135.111 54.7976 134.902 54.6407 134.693C52.4969 130.876 50.51 127.111 48.3139 123.399C46.1701 119.791 43.9217 116.026 40.8891 113.098L40.3662 112.627C39.6342 112.105 38.7976 113.046 38.2747 113.516C38.2224 113.569 38.2224 113.621 38.2747 113.673L38.327 113.725C40.0002 115.608 41.4642 117.647 42.7714 119.791C45.0721 123.556 46.8498 127.529 48.7322 131.503C51.4511 137.621 51.5557 144.418 51.5034 151.007C51.1897 157.542 50.4054 164.078 49.3596 170.51C48.4708 174.902 47.6864 179.503 45.3335 183.425L44.2878 181.229C68.7061 180.863 96.523 181.072 120.994 181.438ZM123.033 183.268C97.9348 183.634 69.3858 183.843 44.2878 183.686L43.242 181.49C44.8106 178.876 45.5427 175.843 46.3793 172.915C47.7387 167.739 48.6276 162.458 49.2551 157.124L49.6211 153.935C50.5623 146.458 48.157 139.19 46.5361 131.974C45.2812 125.699 42.0917 119.843 37.9087 115.033L37.3858 114.458L37.3335 114.405L37.2812 114.353C37.0198 114.039 36.8629 113.673 36.8629 113.255C36.9152 112.523 37.5949 111.948 38.1178 111.529C39.1636 110.641 40.523 110.484 41.5688 111.529C43.3989 113.098 44.8629 114.928 46.2747 116.81C50.144 122.039 53.2812 127.843 56.4185 133.542L55.7387 133.02C64.3139 134.85 73.0459 136.157 81.8302 136.732C90.51 137.15 99.608 137.15 107.765 133.804L107.556 134.17C107.347 132.497 107.085 130.824 106.719 129.15C105.987 125.856 104.889 122.614 103.425 119.529C103.164 118.954 102.536 117.856 102.222 117.281C101.804 116.549 101.281 115.869 100.758 115.242C100.445 114.876 100.654 114.353 100.967 114.144C102.013 113.621 103.216 114.248 104.209 114.614C104.418 114.719 104.784 114.876 104.994 115.033C106.876 116.81 107.922 119.32 108.967 121.621C109.7 123.294 110.275 125.02 110.745 126.745C111.268 128.471 111.634 130.248 111.948 132.026L111.164 131.66C111.425 131.503 111.739 131.556 111.896 131.817C115.503 141.961 118.013 152.523 120.052 163.085C120.889 167.32 121.569 171.556 122.249 175.791C122.824 178.248 122.981 180.863 123.033 183.268Z" fill="black"/>
<path d="M59.1897 145.621C60.5759 145.621 61.6995 144.497 61.6995 143.111C61.6995 141.725 60.5759 140.601 59.1897 140.601C57.8036 140.601 56.6799 141.725 56.6799 143.111C56.6799 144.497 57.8036 145.621 59.1897 145.621Z" fill="black"/>
<path d="M107.556 142.64C108.769 142.64 109.752 141.657 109.752 140.444C109.752 139.232 108.769 138.248 107.556 138.248C106.343 138.248 105.36 139.232 105.36 140.444C105.36 141.657 106.343 142.64 107.556 142.64Z" fill="black"/>
<path d="M95.6859 128.552C94.5879 133.937 87.4768 137.179 75.5029 132.316C63.0585 127.297 57.6728 115.323 56.3134 111.767C63.6859 97.9634 58.5617 88.3947 58.5617 88.3947C75.5552 86.9307 90.4049 106.8 90.4049 106.8L92.7055 116.63C92.9147 117.467 93.333 118.199 93.9604 118.722C95.0585 120.656 96.3656 125.101 95.6859 128.552Z" fill="white"/>
<path d="M56.0522 111.924C57.0456 110.408 57.6731 108.63 58.0914 106.905C58.8757 103.297 59.1371 99.6366 59.1894 95.9765V94.617C59.0326 93.2575 58.562 91.8457 58.0391 90.5908C57.3594 88.9176 59.8169 87.8719 60.6012 89.5451C60.7058 89.7542 60.7058 90.1203 60.7058 90.3294C60.8626 97.4405 61.1764 106.591 56.6796 112.499C56.3659 112.813 55.7385 112.342 56.0522 111.924Z" fill="black"/>
<path d="M90.9801 106.695C91.7644 107.166 92.0258 107.794 92.1304 108.421C92.4441 109.676 92.3396 111.035 92.6533 112.343C92.9147 113.597 93.6991 114.8 93.9082 116.107C94.1696 117.467 94.954 120.343 95.2677 121.754C95.3723 122.068 95.1631 122.434 94.7971 122.486C94.5879 122.539 94.4311 122.486 94.2742 122.382C93.5945 121.807 93.2808 121.231 92.8625 120.499C92.1827 119.244 91.7121 118.094 91.2938 116.682C90.9278 115.428 91.0847 114.068 90.7709 112.761C90.5095 111.506 89.7775 110.303 89.516 108.996C89.3592 108.369 89.3069 107.689 89.7775 106.905C90.0912 106.591 90.6141 106.486 90.9801 106.695Z" fill="black"/>
<path d="M94.7449 120.499C84.758 119.976 76.6012 116.839 68.6534 102.669C75.3463 108.578 83.2417 110.826 91.5554 111.872L92.6534 116.682C92.8626 117.519 94.1175 119.976 94.7449 120.499Z" fill="black"/>
<path d="M94.3268 118.565C96.1046 121.911 97.1504 126.094 96.0523 129.807C95.2157 132.421 92.8105 134.356 90.1961 135.088C84.1308 136.709 77.1242 134.146 71.7386 131.271C65.0981 127.558 60.183 121.336 57.0458 114.539C56.8366 114.016 57.5687 113.597 57.8824 114.12C58.9804 116.316 60.2353 118.46 61.6471 120.395C63.0589 122.382 64.6798 124.212 66.5098 125.833C71.8432 130.643 79.0589 133.624 86.2745 133.624C93.6994 133.414 96.5229 129.493 94.7974 122.277C94.536 121.127 94.1177 119.924 93.5425 118.931C93.2288 118.512 94.0131 118.042 94.3268 118.565Z" fill="black"/>
<path d="M114.562 55.7673C115.503 60.1594 115.974 63.715 113.412 75.4274C110.902 87.0875 117.02 89.4928 102.536 108.159C96.6274 115.793 82.3006 113.65 70.6927 105.754C66.7711 103.088 65.0979 96.2379 62.1698 91.3751C59.8692 87.5581 58.8234 91.532 55.7908 88.2379C51.66 83.7411 46.6927 74.6954 49.1502 58.6954C53.1241 32.7607 73.6731 29.728 88.8888 32.6039C104.209 35.532 112.052 44.2117 114.562 55.7673Z" fill="white"/>
<path d="M58.4052 92.8915C57.2025 90.8523 55.6339 89.0745 54.1699 87.1922C52.7581 85.2575 51.6078 83.1137 50.6666 80.9177C44.4444 65.6497 46.8496 44.1595 62.1176 35.166C68.4444 31.5059 76.0784 30.617 83.1895 31.1922C98.4052 32.2902 112.366 39.2967 115.66 55.4013C117.438 62.5124 115.033 69.8327 113.673 76.7869C113.046 80.2379 113.569 83.7935 113.516 87.349C113.464 90.9569 112.471 94.5647 111.111 97.9111C110.274 100.212 108.81 102.251 107.294 104.133C104.784 107.166 102.274 110.251 99.0849 112.604C98.3529 113.127 97.0457 113.388 96.1568 113.493C93.6993 113.859 91.294 113.963 88.8365 113.807C79.2156 113.388 68.915 108.735 65.0457 99.4275C64.8888 99.0614 65.4117 98.8 65.6208 99.1137C70.6405 107.061 79.8431 110.983 88.9934 111.506C91.8169 111.663 94.6927 111.61 97.464 111.035C98.8235 110.356 100.026 109.153 101.176 108.055C104 105.231 106.876 102.199 108.915 98.7477C111.372 94.0941 112.732 89.0222 112.314 83.7412C112.209 81.3882 112.157 78.9307 112.627 76.5778C113.046 74.2248 113.569 71.9765 113.882 69.5713C114.196 67.2706 114.353 64.9177 114.353 62.617C114.091 55.8719 111.895 48.9177 107.608 43.6889C98.1437 31.9242 75.7646 28.8392 63.1633 36.8915C55.2156 41.8065 51.5032 51.0092 50.3006 59.9503C48.4705 70.6693 48.9934 81.2314 57.5163 89.0222L60.0261 91.6366C61.0195 92.7869 59.2418 94.1464 58.4052 92.8915Z" fill="black"/>
<path d="M64.5749 76.2641C64.5749 76.2641 62.954 68.4209 55.32 69.3621C48.7317 70.1987 46.4311 85.9896 61.3853 90.3817" fill="white"/>
<path d="M60.7058 83.532C59.5032 82.8523 58.6666 81.7019 58.6143 80.2902C58.6666 79.2444 58.8234 78.0418 58.562 76.9961C58.4051 76.0026 57.3594 75.7411 56.575 75.7934C55.7384 75.9503 55.2156 76.9961 55.0587 77.8327C55.0587 77.8849 55.0064 78.0418 55.0064 78.0941C54.9541 78.3555 54.5358 78.3555 54.4313 78.0941C53.7515 76.0549 55.2679 73.8065 57.4639 74.0679C60.5489 74.2771 60.9672 77.5189 60.392 79.9764C60.0783 81.0222 60.4966 81.9634 61.0718 82.8523L61.1764 83.0091C61.4378 83.3229 61.0195 83.7412 60.7058 83.532Z" fill="black"/>
<path d="M102.536 70.7216C103.32 74.434 104.784 77.885 106.614 81.1268C108.235 85.1007 104.052 88.8654 100.34 88.7085C99.9214 88.7085 99.8691 88.1334 100.235 88.0288C102.588 87.2968 104.732 85.7281 105.098 83.3229C105.255 82.5909 105.046 81.9634 104.68 81.336C102.954 78.0941 101.908 74.3817 102.17 70.7216C102.17 70.4602 102.536 70.4602 102.536 70.7216Z" fill="black"/>
<path d="M64.3136 76.3163C63.111 73.2313 60.4966 70.3032 56.9933 70.3555C56.6796 70.3032 56.1567 70.4078 55.843 70.4078C54.9541 70.4601 54.2221 70.7738 53.5423 71.4013C50.1959 74.7477 50.7711 80.6562 53.4901 84.3686C54.4312 85.6758 55.6338 86.8261 56.9933 87.7673C58.3528 88.7085 59.8691 89.4405 61.4901 90.0679C61.8561 90.1725 61.6992 90.7477 61.3332 90.6954C57.8299 89.9634 54.4835 88.2379 52.1829 85.362C48.6273 81.0745 47.8953 73.9111 52.1306 69.7281C53.0718 68.8915 54.3789 68.264 55.6861 68.264C56.1044 68.264 56.7319 68.1594 57.1502 68.264C59.3463 68.3686 61.4378 69.4666 62.7972 71.1921C63.9999 72.6562 64.6796 74.4339 64.8888 76.2117C64.8888 76.5254 64.4182 76.63 64.3136 76.3163Z" fill="black"/>
<path d="M98.5621 93.8039C95.2157 96.9935 88.8889 94.4314 87.2157 90.5621C87.0066 90.0915 87.5294 89.6732 87.9477 89.8823C88.8366 90.3529 89.6209 90.8235 90.4575 91.1895C92.8628 92.2876 95.3726 93.1765 98.0392 92.915C98.5621 92.8104 98.9281 93.4379 98.5621 93.8039Z" fill="black"/>
<path d="M91.0849 63.7908C92.2352 63.6862 92.8104 62.3267 92.183 61.281C91.8169 60.7581 91.3464 60.2875 90.6666 60.0261C88.6797 59.3986 82.196 60.8104 79.3725 64.0522C76.8627 67.0326 85.8562 64.2614 91.0849 63.7908Z" fill="black"/>
<path d="M104.889 64.6272C104 64.3658 103.739 63.0586 104.471 62.222C104.837 61.8037 105.36 61.4377 105.935 61.3331C107.712 61.0194 111.791 62.6403 112.941 65.7252C113.987 68.3919 109.124 65.673 104.889 64.6272Z" fill="black"/>
<path d="M83.0329 75.9214C81.778 75.8692 80.8368 74.8234 80.9414 73.5685L80.9937 72.1044C81.046 70.8495 82.0917 69.9084 83.3466 70.0129C84.6015 70.0652 85.5427 71.111 85.4381 72.3659L85.3858 73.8299C85.3336 75.0326 84.2878 75.9737 83.0329 75.9214Z" fill="black"/>
<path d="M105.046 76.7057C103.895 76.6534 103.007 75.6599 103.059 74.5096L103.111 73.1501C103.163 71.9998 104.157 71.1109 105.307 71.1632C106.458 71.2155 107.346 72.209 107.294 73.3593L107.242 74.7188C107.19 75.8691 106.196 76.758 105.046 76.7057Z" fill="black"/>
<path d="M87.7385 73.0979C86.013 71.9475 84.1307 71.1632 82.0392 71.5815C81.3594 71.6861 80.6797 71.8952 80.2614 72.3658C80.1045 72.575 79.7385 72.5227 79.7385 72.209C79.7908 71.1632 80.6797 70.4835 81.5163 70.0652C83.1372 69.2286 85.3856 69.3854 86.8496 70.4835C87.3725 70.7972 89.1503 72.7318 88.2091 73.1501C88 73.2547 87.8954 73.2024 87.7385 73.0979Z" fill="black"/>
<path d="M102.693 73.3594C102.693 71.1633 105.411 70.379 107.085 71.1633C108.026 71.5816 108.706 72.4182 108.967 73.4117C109.072 73.7254 108.601 73.9868 108.392 73.7254C107.503 72.6796 105.987 72.1568 104.784 72.7842C104.418 72.9934 104.366 73.1502 104.261 73.3594C104.261 74.4051 102.745 74.3529 102.693 73.3594Z" fill="black"/>
<path d="M118.747 64.3659C121.1 56.3136 117.021 50.7188 114.093 47.9998C112.734 44.3397 110.433 40.7319 106.773 37.9606C106.041 37.3855 105.257 36.8626 104.368 36.392C103.636 35.9737 102.851 35.6077 102.067 35.2417C95.165 32.2613 84.1323 28.758 73.2042 30.6404C69.0212 31.3201 64.8382 32.8364 60.9166 35.3985C60.8644 35.3985 60.8644 35.4508 60.8644 35.4508C60.5506 35.66 60.2369 35.8691 59.9755 36.0783C59.2434 35.1894 58.4068 34.4051 57.4657 33.6731C50.9297 28.758 43.8186 29.5946 38.9036 36.1829C33.9885 42.7188 33.1519 52.4966 39.6879 57.4116C41.7271 58.928 44.0278 59.8691 46.3807 60.2351C46.3284 60.4966 46.3284 60.8103 46.2761 61.0717C43.4003 86.8495 63.1127 98.4574 61.5964 90.3528C61.1781 90.1959 60.9689 90.0391 60.9689 89.9345C46.4853 85.3332 48.7859 69.8561 55.3219 69.0195C57.6748 68.7057 59.4003 69.2809 60.7598 70.1175C61.2827 70.6404 61.7532 71.111 62.2238 71.5816C63.4787 73.1502 64.5768 75.1371 64.5768 75.9214C64.6291 75.294 64.6814 74.5619 64.8382 73.8299C71.165 78.5358 76.8644 76.8626 87.2173 60.3397C94.067 49.4116 98.1454 47.2678 100.394 47.5815C101.283 47.8953 102.119 48.575 102.904 49.7253C103.113 50.0391 103.322 50.3528 103.479 50.6665C108.08 50.5619 110.224 53.2286 111.322 55.9998C111.322 55.9998 111.322 55.9998 111.322 56.0521C112.211 58.4051 112.315 60.8103 112.42 61.4378C112.42 61.5423 112.42 61.5946 112.472 61.5946C112.368 63.6861 112.106 67.2417 112.054 71.843C112.054 73.9345 112.263 78.1175 112.106 80.5227C112.054 81.2548 112.002 81.9868 111.949 82.6665C111.897 83.0325 111.897 83.3985 111.845 83.7123C111.792 84.026 111.792 84.392 111.74 84.758C111.688 85.1763 111.636 85.5423 111.636 85.9606C112.681 87.2155 114.198 87.4247 115.453 88.2613C115.766 84.7057 114.825 81.7253 114.459 77.6992C114.773 79.0587 115.191 80.3659 115.819 81.7253C117.91 86.2221 116.76 89.5162 116.76 89.5162L120.211 89.7253C120.577 88.7319 120.891 86.9018 119.792 84.4966C118.119 80.7842 118.015 79.0587 118.015 79.0587C118.015 79.0587 118.904 82.0914 120.577 84.1306C121.884 85.8038 122.407 88.0521 121.884 89.8299L123.139 89.9345C126.904 84.2874 115.243 76.2351 118.747 64.3659ZM76.08 68.9149C72.1062 71.7907 68.7598 71.2155 66.7206 70.3266C66.7729 70.3266 66.8251 70.2744 66.8251 70.2744C68.08 70.1698 69.3349 69.9084 70.5376 69.4378C76.2892 67.3985 81.6225 62.1175 86.3284 57.2548C82.3546 62.1698 78.5376 67.1371 76.08 68.9149Z" fill="black"/>
<path d="M91.3465 82.3529C91.3465 82.3529 86.4315 85.4379 80.889 85.3856C75.3465 85.3333 74.6668 80.9934 74.6145 78.6405C74.6145 78.6405 75.3465 82.0392 78.6929 83.2941C81.9871 84.549 91.3465 82.3529 91.3465 82.3529Z" fill="black"/>
<path d="M107.137 81.7777C107.137 81.7777 108.34 83.2418 109.961 84.2875C111.059 85.0195 112.523 84.2352 112.523 82.928C112.523 82.928 109.49 83.0849 107.137 81.7777Z" fill="black"/>
<path d="M93.1762 68.3921C90.3527 68.1307 83.2416 67.5555 80.5227 67.2941L78.4312 67.1372C76.7057 67.0326 75.3462 68.4967 75.0325 70.1699C74.9279 70.6928 74.9279 71.5816 74.9279 72.1045V74.2483C74.9279 75.5555 74.8756 76.915 75.3462 78.1699C76.1828 81.098 78.8495 83.4509 81.9867 83.0849C82.3004 83.0326 84.2351 82.8235 84.6011 82.7712L88.8364 82.3006C90.1959 82.196 91.4508 81.83 92.6534 81.098C94.3266 80.1045 95.9475 78.5882 95.8429 76.4444L95.9475 74.3529C96.0521 71.7385 96.7841 68.6535 93.1762 68.3921ZM93.3331 66.6666C95.7906 66.8758 97.4638 69.4379 97.307 71.7908C97.307 72.1045 97.2024 74.0914 97.1501 74.4575C97.1501 74.8758 97.0455 76.7581 96.9932 77.1241C96.7318 80.6797 92.7579 83.1895 89.5161 83.6601C87.8429 83.8692 84.3397 84.3398 82.6664 84.549C82.2481 84.6012 81.673 84.6535 81.2547 84.7058C81.0455 84.7058 80.5749 84.6535 80.3658 84.6535C75.9213 84.0784 73.0978 79.5294 73.2024 75.2941C73.2024 74.6143 73.2024 72.8365 73.2024 72.1045C73.2024 71.7385 73.2024 70.7973 73.2547 70.4313C73.4115 68.6012 74.405 66.8235 76.0782 65.83C76.8102 65.4117 77.6991 65.2026 78.588 65.2548L80.7318 65.464C83.3462 65.7777 90.5619 66.4575 93.3331 66.6666Z" fill="black"/>
<path d="M105.464 67.5033C106.614 67.3464 112.261 66.719 113.307 66.6144C113.569 66.6144 114.248 66.5098 114.457 66.5098C116.706 66.1961 117.752 68.6536 117.961 70.4837C118.065 72.1046 117.961 73.6732 118.013 75.2419C118.013 76.3399 117.908 77.4379 117.647 78.4837C116.967 81.3072 114.98 84.2876 111.686 83.3464C110.902 83.1896 109.333 82.9804 108.601 82.8236L107.817 82.6667C106.301 82.4053 105.046 81.3595 104.209 80.2092C102.64 78.3791 102.954 75.9216 102.797 73.7255C102.588 71.5294 102.64 68.1308 105.464 67.5033ZM105.673 69.0196C104.052 69.7517 104.471 72.2092 104.471 73.6732L104.575 76.8105C104.627 78.7974 106.196 80.7843 108.078 81.3072C108.549 81.4118 109.856 81.6732 110.379 81.7778L111.895 82.0915C115.66 83.2941 117.124 78.0654 117.072 75.1896C116.915 72.7843 117.647 69.9085 115.922 67.9739C115.503 67.5556 115.085 67.451 114.614 67.5556C114.353 67.6079 113.673 67.7125 113.464 67.7647C112.418 67.9739 106.771 68.8628 105.673 69.0196Z" fill="black"/>
<path d="M74.0391 72.366C73.6208 73.3072 73.2548 73.2026 72.5227 73.2026L71.0064 73.1503C69.0718 73.0458 66.928 72.8889 64.9933 72.6275C63.9476 72.4706 62.8495 72.3137 61.8038 72.0523C61.3855 71.9477 61.1241 71.5294 61.2286 71.1111C61.3332 70.7451 61.6469 70.4837 62.0129 70.536L65.0456 70.6928L68.0783 70.7974C69.0718 70.8497 71.6339 70.902 72.6273 70.9543C73.1502 70.9543 73.6208 71.0066 74.1437 70.8497C74.3528 70.7974 74.562 70.902 74.6142 71.1111C74.6665 71.2157 74.6142 71.268 74.6142 71.3726L74.0391 72.366Z" fill="black"/>
<path d="M96.3136 71.268C98.196 70.2222 103.163 68.7581 104.104 71.5817C104.523 72.3137 103.425 72.9934 102.954 72.2614C102.954 72.366 102.693 72.2614 102.588 72.2614C100.601 72.1046 98.562 72.4183 96.5751 72.5751C95.7385 72.6797 95.5816 71.5817 96.3136 71.268Z" fill="black"/>
<path d="M150.693 44.0784C182.431 105.203 126.641 174.17 60.1308 157.333C30.2746 149.908 6.27457 124.026 1.30725 93.647C-4.33981 63.4248 9.30725 30.9542 34.8236 13.8561C69.804 -10.1961 118.275 -2.19614 143.32 32.2091C143.477 32.366 143.425 32.6274 143.216 32.7843C143.059 32.9411 142.797 32.8888 142.641 32.6797C139.19 28.2352 135.268 24.2091 130.98 20.6012C123.922 14.5882 115.66 9.88229 106.928 6.69275C62.4837 -9.41183 13.6994 17.3594 3.97391 63.8431C-7.00648 115.922 37.2811 163.869 90.0916 156.706C130.824 151.582 161.098 113.987 157.752 73.098C157.02 63.2156 154.405 53.4379 150.065 44.4444C149.961 44.2875 150.065 44.0784 150.222 43.9738C150.379 43.8692 150.588 43.9215 150.693 44.0784Z" fill="white"/>
</g>
<defs>
<linearGradient id="paint0_linear_805_6005" x1="37.614" y1="146.893" x2="121.987" y2="146.893" gradientUnits="userSpaceOnUse">
<stop stop-color="#9955E8"/>
<stop offset="1" stop-color="#7BFFAF"/>
</linearGradient>
</defs>
</svg>
