<svg width="245" height="198" viewBox="0 0 245 198" fill="none" xmlns="http://www.w3.org/2000/svg">
<!-- <path d="M133.427 167.235L174.76 183.754L222.714 135.851L191.296 131.311L133.427 167.235Z" fill="url(#paint0_linear_805_5791)"/>
<path opacity="0.5" d="M133.427 167.235L174.76 183.754L222.714 135.851L191.296 131.311L133.427 167.235Z" fill="white"/>
<path d="M82.5837 189.124C77.1046 189.124 72.663 186.165 72.663 182.515C72.663 178.866 77.1046 175.907 82.5837 175.907C88.0627 175.907 92.5044 178.866 92.5044 182.515C92.5044 186.165 88.0627 189.124 82.5837 189.124Z" fill="url(#paint1_linear_805_5791)"/>
<path opacity="0.5" d="M82.5837 189.124C77.1046 189.124 72.663 186.165 72.663 182.515C72.663 178.866 77.1046 175.907 82.5837 175.907C88.0627 175.907 92.5044 178.866 92.5044 182.515C92.5044 186.165 88.0627 189.124 82.5837 189.124Z" fill="white"/>
<path d="M121.436 144.993L60.8696 149.787L74.3121 142.875L121.436 144.993Z" fill="url(#paint2_linear_805_5791)"/>
<path opacity="0.5" d="M121.436 144.993L60.8696 149.787L74.3121 142.875L121.436 144.993Z" fill="white"/>
<path d="M107.795 126.356L125.764 124.888L123.507 122.224H113.171L107.795 126.356Z" fill="url(#paint3_linear_805_5791)"/>
<path opacity="0.5" d="M107.795 126.356L125.764 124.888L123.507 122.224H113.171L107.795 126.356Z" fill="white"/>
<path d="M49.5292 198C42.5674 198 36.9237 194.581 36.9237 190.363C36.9237 186.145 42.5674 182.726 49.5292 182.726C56.4911 182.726 62.1348 186.145 62.1348 190.363C62.1348 194.581 56.4911 198 49.5292 198Z" fill="url(#paint4_linear_805_5791)"/>
<path opacity="0.5" d="M49.5292 198C42.5674 198 36.9237 194.581 36.9237 190.363C36.9237 186.145 42.5674 182.726 49.5292 182.726C56.4911 182.726 62.1348 186.145 62.1348 190.363C62.1348 194.581 56.4911 198 49.5292 198Z" fill="white"/>
<path d="M124.226 172.63L131.016 183.773L115.98 186.684L110.157 175.541L124.226 172.63Z" fill="white" stroke="black" stroke-width="0.421342" stroke-linecap="round" stroke-linejoin="round"/>
<path d="M112.582 160.038L119.371 170.208L105.308 174.569L99.4863 164.398L112.582 160.038Z" fill="url(#paint5_linear_805_5791)"/>
<mask id="mask0_805_5791" style="mask-type:luminance" maskUnits="userSpaceOnUse" x="99" y="160" width="21" height="15">
<path d="M112.582 160.038L119.371 170.208L105.308 174.569L99.4863 164.398L112.582 160.038Z" fill="white"/>
</mask>
<g mask="url(#mask0_805_5791)">
<path opacity="0.5" d="M112.582 160.038L119.371 170.208L105.308 174.569L99.4863 164.398L112.582 160.038Z" fill="white" stroke="black" stroke-width="0.421342" stroke-miterlimit="10"/>
</g>
<path d="M112.582 160.038L119.371 170.208L105.308 174.569L99.4863 164.398L112.582 160.038Z" stroke="black" stroke-width="0.421342" stroke-linecap="round" stroke-linejoin="round"/>
<path d="M97.5458 179.418L109.674 182.806L104.825 190.561L90.7563 187.167L97.5458 179.418Z" fill="url(#paint6_linear_805_5791)" stroke="black" stroke-width="0.421342" stroke-linecap="round" stroke-linejoin="round"/>
<path d="M62.9468 177.43L61.7067 186.839C61.7067 190.735 56.9633 193.9 51.1101 193.9C45.2569 193.9 40.5074 190.735 40.5074 186.839L39.2301 177.43H62.9468Z" fill="url(#paint7_linear_805_5791)" stroke="black" stroke-width="0.421342" stroke-linecap="round" stroke-linejoin="round"/>
<path d="M51.0978 185.34C44.5401 185.34 39.224 181.799 39.224 177.43C39.224 173.062 44.5401 169.521 51.0978 169.521C57.6556 169.521 62.9717 173.062 62.9717 177.43C62.9717 181.799 57.6556 185.34 51.0978 185.34Z" fill="url(#paint8_linear_805_5791)" stroke="black" stroke-width="0.421342" stroke-linecap="round" stroke-linejoin="round"/>
<path d="M51.0977 184.157C45.5194 184.157 40.9972 181.145 40.9972 177.43C40.9972 173.715 45.5194 170.704 51.0977 170.704C56.6761 170.704 61.1982 173.715 61.1982 177.43C61.1982 181.145 56.6761 184.157 51.0977 184.157Z" fill="url(#paint9_linear_805_5791)" stroke="black" stroke-width="0.421342" stroke-linecap="round" stroke-linejoin="round"/>
<path d="M51.098 184.163C45.6155 184.163 41.1711 181.695 41.1711 178.65C41.1711 175.606 45.6155 173.138 51.098 173.138C56.5805 173.138 61.0249 175.606 61.0249 178.65C61.0249 181.695 56.5805 184.163 51.098 184.163Z" fill="black" stroke="black" stroke-width="0.421342" stroke-linecap="round" stroke-linejoin="round"/>
<path d="M47.5202 159.375C49.2439 158.266 51.8605 158.365 52.9083 160.416C54.4585 163.401 53.3486 168.932 53.9066 169.706C54.4647 170.481 56.1202 170.704 56.8952 169.044C57.6703 167.384 57.6703 165.172 58.6686 165.061C59.6668 164.95 60.9937 165.395 61.2169 167.941C61.4402 170.487 60.9937 173.361 59.2204 174.686C57.4471 176.012 55.4567 175.572 54.8801 176.129C54.3034 176.687 54.8801 177.554 54.8801 178.124C54.8801 180.601 51.6373 181.84 49.5849 181.221C46.5963 180.335 46.9249 177.343 46.4847 176.129C46.0445 174.915 43.6015 174.798 42.7148 172.921C41.8281 171.044 40.5012 167.272 42.3862 165.835C44.2711 164.398 45.7096 165.061 45.9266 166.609C46.1847 167.839 46.6015 169.03 47.1667 170.152C45.8398 167.532 44.5377 161.295 47.5202 159.375Z" fill="url(#paint10_linear_805_5791)"/>
<mask id="mask1_805_5791" style="mask-type:luminance" maskUnits="userSpaceOnUse" x="41" y="158" width="21" height="24">
<path d="M47.5202 159.375C49.2439 158.266 51.8605 158.365 52.9083 160.416C54.4585 163.401 53.3486 168.932 53.9066 169.706C54.4647 170.481 56.1202 170.704 56.8952 169.044C57.6703 167.384 57.6703 165.172 58.6686 165.061C59.6668 164.95 60.9937 165.395 61.2169 167.941C61.4402 170.487 60.9937 173.361 59.2204 174.686C57.4471 176.012 55.4567 175.572 54.8801 176.129C54.3034 176.687 54.8801 177.554 54.8801 178.124C54.8801 180.601 51.6373 181.84 49.5849 181.221C46.5963 180.335 46.9249 177.343 46.4847 176.129C46.0445 174.915 43.6015 174.798 42.7148 172.921C41.8281 171.044 40.5012 167.272 42.3862 165.835C44.2711 164.398 45.7096 165.061 45.9266 166.609C46.1847 167.839 46.6015 169.03 47.1667 170.152C45.8398 167.532 44.5377 161.295 47.5202 159.375Z" fill="white"/>
</mask>
<g mask="url(#mask1_805_5791)">
<path opacity="0.2" d="M47.5202 159.375C49.2439 158.266 51.8605 158.365 52.9083 160.416C54.4585 163.401 53.3486 168.932 53.9066 169.706C54.4647 170.481 56.1202 170.704 56.8952 169.044C57.6703 167.384 57.6703 165.172 58.6686 165.061C59.6668 164.95 60.9937 165.395 61.2169 167.941C61.4402 170.487 60.9937 173.361 59.2204 174.686C57.4471 176.012 55.4567 175.572 54.8801 176.129C54.3034 176.687 54.8801 177.554 54.8801 178.124C54.8801 180.601 51.6373 181.84 49.5849 181.221C46.5963 180.335 46.9249 177.343 46.4847 176.129C46.0445 174.915 43.6015 174.798 42.7148 172.921C41.8281 171.044 40.5012 167.272 42.3862 165.835C44.2711 164.398 45.7096 165.061 45.9266 166.609C46.1847 167.839 46.6015 169.03 47.1667 170.152C45.8398 167.532 44.5377 161.295 47.5202 159.375Z" fill="url(#paint11_linear_805_5791)"/>
</g>
<path d="M47.5202 159.375C49.2439 158.266 51.8605 158.365 52.9083 160.416C54.4585 163.401 53.3486 168.932 53.9066 169.706C54.4647 170.481 56.1202 170.704 56.8952 169.044C57.6703 167.384 57.6703 165.172 58.6686 165.061C59.6668 164.95 60.9937 165.395 61.2169 167.941C61.4402 170.487 60.9937 173.361 59.2204 174.686C57.4471 176.012 55.4567 175.572 54.8801 176.129C54.3034 176.687 54.8801 177.554 54.8801 178.124C54.8801 180.601 51.6373 181.84 49.5849 181.221C46.5963 180.335 46.9249 177.343 46.4847 176.129C46.0445 174.915 43.6015 174.798 42.7148 172.921C41.8281 171.044 40.5012 167.272 42.3862 165.835C44.2711 164.398 45.7096 165.061 45.9266 166.609C46.1847 167.839 46.6015 169.03 47.1667 170.152C45.8398 167.532 44.5377 161.295 47.5202 159.375Z" stroke="black" stroke-width="0.421342" stroke-linecap="round" stroke-linejoin="round"/>
<path d="M50.2487 160.193C50.7517 160.523 51.1727 160.964 51.4799 161.481C51.7872 161.998 51.9726 162.579 52.0221 163.178C52.1337 165.172 52.0221 171.478 52.7971 172.364C53.5722 173.249 56.1205 173.026 57.7575 171.478C59.3944 169.929 58.6689 166.616 58.6689 166.616" stroke="black" stroke-width="0.210671" stroke-linecap="round" stroke-linejoin="round"/>
<path d="M58.1787 173.429C57.6045 173.875 56.9403 174.192 56.2318 174.358C54.2352 174.798 52.7967 173.807 52.4619 174.798C52.1271 175.789 52.7967 179.338 52.7967 179.338" stroke="black" stroke-width="0.210671" stroke-linecap="round" stroke-linejoin="round"/>
<path d="M59.332 172.252C59.1256 172.543 58.8886 172.811 58.6252 173.051" stroke="black" stroke-width="0.210671" stroke-linecap="round" stroke-linejoin="round"/>
<path d="M50.2856 177.523C50.1738 175.874 50.1614 174.219 50.2484 172.568C50.4469 170.09 49.2936 165.488 49.0084 163.407" stroke="black" stroke-width="0.210671" stroke-linecap="round" stroke-linejoin="round"/>
<path d="M50.4717 180.112C50.4717 180.112 50.4097 179.437 50.3415 178.446" stroke="black" stroke-width="0.210671" stroke-linecap="round" stroke-linejoin="round"/>
<path d="M42.8018 169.025C42.746 168.486 42.7149 168.158 42.7149 168.158" stroke="black" stroke-width="0.210671" stroke-linecap="round" stroke-linejoin="round"/>
<path d="M48.0347 178.118C48.0347 178.118 47.5882 174.469 46.7016 173.782C45.8149 173.094 43.2727 172.673 43.0495 171.013C43.0123 170.753 42.9813 170.505 42.9503 170.276" stroke="black" stroke-width="0.210671" stroke-linecap="round" stroke-linejoin="round"/>
<path d="M44.2649 166.721C44.4972 166.877 44.6825 167.093 44.8005 167.346C44.9186 167.599 44.9649 167.88 44.9345 168.158C44.889 168.821 45.0304 169.484 45.3428 170.07C45.6551 170.657 46.1259 171.145 46.7017 171.478" stroke="black" stroke-width="0.210671" stroke-linecap="round" stroke-linejoin="round"/>
<path d="M48.8842 162.144C48.851 161.524 48.8634 160.903 48.9214 160.286" stroke="black" stroke-width="0.210671" stroke-linecap="round" stroke-linejoin="round"/>
<path d="M91.1094 159.716L89.4662 176.997V178.824C89.4662 181.301 85.9816 183.265 81.6785 183.265C77.3754 183.265 73.8907 181.277 73.8907 178.824V176.997L72.3964 159.536L91.1094 159.716Z" fill="white" stroke="black" stroke-width="0.421342" stroke-linecap="round" stroke-linejoin="round"/>
<path d="M73.8165 176.061L72.9546 165.996C74.1141 167.799 77.5739 169.093 81.6662 169.093C85.9755 169.093 89.578 167.644 90.5391 165.693L89.5594 175.999C87.9721 177.319 85.0393 178.211 81.6662 178.211C78.2932 178.211 75.4038 177.362 73.8165 176.061Z" fill="url(#paint12_linear_805_5791)" stroke="black" stroke-width="0.421342" stroke-linecap="round" stroke-linejoin="round"/>
<path d="M90.7998 162.974V162.856L90.8804 162.162L90.7998 162.974Z" fill="white" stroke="black" stroke-width="0.421342" stroke-linecap="round" stroke-linejoin="round"/>
<path d="M72.0988 157.152C73.7482 155.07 77.4126 153.615 81.6785 153.615C85.9444 153.615 89.6089 155.07 91.2644 157.152H92.2007V159.629C92.2007 162.949 87.4883 165.637 81.6599 165.637C75.8315 165.637 71.1192 162.949 71.1192 159.629V157.152H72.0988Z" fill="url(#paint13_linear_805_5791)" stroke="black" stroke-width="0.421342" stroke-linecap="round" stroke-linejoin="round"/>
<path opacity="0.2" d="M72.0988 157.152C73.7482 155.07 77.4126 153.615 81.6785 153.615C85.9444 153.615 89.6089 155.07 91.2644 157.152H92.2007V159.629C92.2007 162.949 87.4883 165.637 81.6599 165.637C75.8315 165.637 71.1192 162.949 71.1192 159.629V157.152H72.0988Z" fill="url(#paint14_linear_805_5791)"/>
<path d="M81.6785 163.16C75.8673 163.16 71.1564 160.47 71.1564 157.151C71.1564 153.833 75.8673 151.143 81.6785 151.143C87.4898 151.143 92.2007 153.833 92.2007 157.151C92.2007 160.47 87.4898 163.16 81.6785 163.16Z" fill="white" stroke="black" stroke-width="0.421342" stroke-linecap="round" stroke-linejoin="round"/>
<path d="M73.3081 153.801C74.7528 151.98 77.9522 150.704 81.6787 150.704C85.4051 150.704 88.6046 151.973 90.0493 153.801H90.8491V155.956C90.8491 158.855 86.7382 161.202 81.6601 161.202C76.5819 161.202 72.471 158.855 72.471 155.956V153.801H73.3081Z" fill="url(#paint15_linear_805_5791)" stroke="black" stroke-width="0.421342" stroke-linecap="round" stroke-linejoin="round"/>
<path d="M81.6786 159.047C76.6036 159.047 72.4896 156.698 72.4896 153.801C72.4896 150.903 76.6036 148.554 81.6786 148.554C86.7536 148.554 90.8677 150.903 90.8677 153.801C90.8677 156.698 86.7536 159.047 81.6786 159.047Z" fill="white" stroke="black" stroke-width="0.421342" stroke-linecap="round" stroke-linejoin="round"/>
<path d="M174.424 102.856C174.424 102.856 173.705 102.379 169.142 104.293C164.578 106.207 162.786 105.792 158.347 105.011C153.014 104.082 148.587 103.153 148.054 105.309C147.13 109.025 150.863 108.982 157.578 109.7C164.293 110.419 168.187 108.368 170.344 107.408C171.338 107.001 172.299 106.521 173.221 105.971L174.424 102.856Z" fill="white" stroke="black" stroke-width="0.421342" stroke-linecap="round" stroke-linejoin="round"/>
<path d="M184.742 104.776C184.742 104.776 178.74 111.726 176.105 109.805C173.469 107.885 173.705 101.661 176.105 99.7404C178.504 97.8203 185.219 101.419 184.742 104.776Z" fill="white" stroke="black" stroke-width="0.421342" stroke-linecap="round" stroke-linejoin="round"/>
<path d="M166.494 85.6C166.494 85.6 166.252 92.0725 167.933 96.3835C169.613 100.694 172.732 103.575 173.209 105.972C173.687 108.369 173.451 111.726 175.851 112.686C178.25 113.646 178.25 111.967 178.008 110.047C177.767 108.127 177.289 100.942 177.289 100.942L185.22 105.73C185.22 105.73 183.062 111.726 187.619 112.444C192.176 113.163 197.695 106.213 198.414 100.961C199.133 95.7083 196.256 83.94 191.215 80.8245C186.174 77.709 179.701 78.1921 176.334 78.1921C172.967 78.1921 167.945 80.5705 166.494 85.6Z" fill="white" stroke="black" stroke-width="0.421342" stroke-linecap="round" stroke-linejoin="round"/>
<path d="M185.623 78.9478C185.623 78.9478 186.863 79.5672 189.027 82.9676C191.191 86.3681 186.863 89.2977 184.537 87.7555C182.212 86.2132 184.234 82.9676 182.529 81.4192C181.548 80.5879 180.889 79.4395 180.668 78.1736L185.623 78.9478Z" fill="black"/>
<path d="M192.579 83.7357C193.134 84.1311 193.599 84.6378 193.946 85.2234C194.293 85.8089 194.514 86.4604 194.595 87.1361C194.75 89.2978 190.874 85.278 190.415 83.4198C189.957 81.5616 192.579 83.7357 192.579 83.7357Z" fill="black"/>
<path d="M178.74 78.8921C179.291 79.8906 179.559 81.0197 179.516 82.1587C179.474 83.2978 179.122 84.4038 178.498 85.3585C176.341 88.7155 171.542 90.1525 169.626 87.7555C167.71 85.3585 166.984 84.1631 167.703 82.9676C168.423 81.7722 175.38 76.972 178.74 78.8921Z" fill="url(#paint16_linear_805_5791)" stroke="black" stroke-width="0.421342" stroke-linecap="round" stroke-linejoin="round"/>
<path d="M160.988 67.1485C161.899 67.2473 162.82 67.1485 163.689 66.8588C164.558 66.5691 165.354 66.0953 166.023 65.4699C168.422 63.3145 170.586 58.5204 171.541 58.7558C172.496 58.9912 175.881 65.9469 175.881 65.9469C175.881 65.9469 181.642 66.43 182.119 68.1023C182.597 69.7747 179.961 77.6904 177.779 81.0475C176.761 82.5428 175.406 83.7786 173.823 84.6554C172.24 85.5321 170.473 86.0254 168.664 86.0955C165.787 86.0955 157.15 86.814 155.947 83.9338C154.744 81.0537 155.711 72.4318 155.711 72.4318C155.711 72.4318 151.867 68.5978 153.547 67.8794C155.228 67.1609 160.988 67.1485 160.988 67.1485Z" fill="white" stroke="black" stroke-width="0.421342" stroke-linecap="round" stroke-linejoin="round"/>
<path d="M162.154 79.1398C162.445 78.762 162.725 78.378 162.997 77.9815C163.45 77.3126 164.523 76.2906 166.587 76.941C169.526 77.8639 171.548 80.6573 168.286 82.9676C165.217 85.1664 159.054 83.1844 162.154 79.1398Z" fill="black"/>
<path d="M175.863 65.9469C175.863 65.9469 172.503 67.867 170.587 67.1485C168.671 66.43 169.867 58.2789 171.541 58.7558C173.216 59.2328 176.105 62.8314 175.863 65.9469Z" fill="white" stroke="black" stroke-width="0.421342" stroke-linecap="round" stroke-linejoin="round"/>
<path d="M153.548 67.867C153.548 67.867 156.648 67.6254 158.589 69.7809C160.529 71.9363 159.308 74.1166 156.667 74.5749C154.025 75.0333 152.593 67.867 153.548 67.867Z" fill="white" stroke="black" stroke-width="0.421342" stroke-linecap="round" stroke-linejoin="round"/>
<path d="M172.261 81.2891C172.261 81.2891 175.361 78.8921 174.66 80.806C173.959 82.7199 172.744 82.9677 171.56 82.4846C170.376 82.0014 172.261 81.2891 172.261 81.2891Z" fill="url(#paint17_linear_805_5791)" stroke="black" stroke-width="0.421342" stroke-linecap="round" stroke-linejoin="round"/>
<path d="M173.972 75.281C174.152 75.9004 174.66 76.334 175.106 76.2101C175.553 76.0862 175.77 75.4668 175.59 74.8289C175.41 74.1909 174.902 73.7759 174.455 73.8998C174.009 74.0237 173.792 74.6492 173.972 75.281Z" fill="black"/>
<path d="M166.575 80.936C167.152 81.2705 167.815 81.221 168.038 80.8184C168.262 80.4158 168.001 79.8273 167.418 79.4929C167.205 79.3237 166.936 79.2411 166.665 79.2618C166.393 79.2825 166.14 79.4048 165.955 79.6044C165.732 80.007 166.005 80.6016 166.575 80.936Z" fill="white"/>
<path d="M188.097 96.1482C188.097 96.1482 188.816 101.419 187.861 103.581C186.906 105.743 185.939 113.887 184.017 114.11C182.095 114.333 182.82 109.775 182.82 109.075C182.82 108.375 182.578 100.688 182.578 100.688C182.578 100.688 180.898 97.0897 179.943 95.1758" fill="white"/>
<path d="M188.097 96.1482C188.097 96.1482 188.816 101.419 187.861 103.581C186.906 105.743 185.939 113.887 184.017 114.11C182.095 114.333 182.82 109.775 182.82 109.075C182.82 108.375 182.578 100.688 182.578 100.688C182.578 100.688 180.898 97.0897 179.943 95.1758" stroke="black" stroke-width="0.421342" stroke-linecap="round" stroke-linejoin="round"/>
<path d="M196.015 95.9064C196.015 95.9064 189.535 93.9863 188.816 101.177" stroke="black" stroke-width="0.421342" stroke-linecap="round" stroke-linejoin="round"/>
<path d="M177.302 100.961C177.302 100.961 171.783 98.0806 171.542 91.8496" stroke="black" stroke-width="0.421342" stroke-linecap="round" stroke-linejoin="round"/>
<path d="M244 110.766L239.914 109.843" stroke="black" stroke-width="0.421342" stroke-linecap="round" stroke-linejoin="round"/>
<path d="M209.897 134.854L176.948 125.519C175.901 125.409 174.847 125.662 173.966 126.238L120.351 160.459C120.122 160.607 119.945 160.821 119.842 161.072C119.739 161.324 119.717 161.601 119.777 161.866C119.837 162.131 119.977 162.371 120.179 162.553C120.38 162.736 120.633 162.853 120.902 162.887L165.992 176.916L209.897 134.854Z" fill="url(#paint18_linear_805_5791)" stroke="black" stroke-width="0.421342" stroke-linecap="round" stroke-linejoin="round"/>
<path d="M190.633 136.823L185.964 140.038L180.569 138.514L185.232 135.306L190.633 136.823Z" fill="black"/>
<path d="M187.725 145.811L192.387 142.596L197.788 144.12L193.119 147.334L187.725 145.811Z" fill="black"/>
<path d="M178.901 138.793L174.239 142.001L168.844 140.478L173.507 137.269L178.901 138.793Z" fill="black"/>
<path d="M173.464 142.534L168.801 145.742L163.407 144.219L168.069 141.01L173.464 142.534Z" fill="black"/>
<path d="M185.195 140.564L180.532 143.779L175.138 142.255L179.8 139.047L185.195 140.564Z" fill="black"/>
<path d="M196.926 138.601L192.264 141.816L186.863 140.292L191.532 137.077L196.926 138.601Z" fill="black"/>
<path d="M159.692 158.997L164.361 155.783L169.75 157.306L165.087 160.521L159.692 158.997Z" fill="black"/>
<path d="M165.992 160.775L170.655 157.56L176.049 159.084L171.38 162.292L165.992 160.775Z" fill="black"/>
<path d="M182.293 149.552L186.956 146.337L192.35 147.861L187.687 151.069L182.293 149.552Z" fill="black"/>
<path d="M154.261 162.738L158.923 159.53L164.318 161.048L159.655 164.262L154.261 162.738Z" fill="black"/>
<path d="M176.855 153.293L181.524 150.078L186.918 151.602L182.25 154.81L176.855 153.293Z" fill="black"/>
<path d="M171.424 157.034L176.087 153.819L181.481 155.343L176.818 158.558L171.424 157.034Z" fill="black"/>
<path d="M168.032 146.275L163.369 149.484L157.975 147.96L162.638 144.751L168.032 146.275Z" fill="black"/>
<path d="M191.488 142.342L186.826 145.557L181.431 144.033L186.094 140.824L191.488 142.342Z" fill="black"/>
<path d="M147.967 160.961L152.63 157.752L158.024 159.276L153.362 162.484L147.967 160.961Z" fill="black"/>
<path d="M164.269 149.737L168.931 146.529L174.326 148.047L169.663 151.261L164.269 149.737Z" fill="black"/>
<path d="M176 147.774L180.662 144.559L186.057 146.083L181.394 149.298L176 147.774Z" fill="black"/>
<path d="M198.594 138.328L201.322 136.445L205.012 137.48L202.854 139.53L198.594 138.328Z" fill="black"/>
<path d="M193.162 142.069L197.825 138.855L202.246 140.106L198.594 143.562L198.557 143.587L193.162 142.069Z" fill="black"/>
<path d="M179.763 144.312L175.094 147.52L169.7 145.996L174.369 142.788L179.763 144.312Z" fill="black"/>
<path d="M170.562 151.515L175.225 148.307L180.619 149.824L175.956 153.039L170.562 151.515Z" fill="black"/>
<path d="M147.105 155.442L151.768 152.234L157.163 153.757L152.5 156.966L147.105 155.442Z" fill="black"/>
<path d="M162.601 150.016L157.932 153.225L152.537 151.701L157.2 148.493L162.601 150.016Z" fill="black"/>
<path d="M153.399 157.22L158.062 154.011L163.456 155.535L158.793 158.743L153.399 157.22Z" fill="black"/>
<path d="M158.837 153.479L163.5 150.27L168.894 151.788L164.225 155.002L158.837 153.479Z" fill="black"/>
<path d="M165.13 155.256L169.793 152.048L175.188 153.565L170.525 156.78L165.13 155.256Z" fill="black"/>
<path d="M188.586 151.323L193.249 148.115L193.665 148.232L189.988 151.72L188.586 151.323Z" fill="black"/>
<path d="M147.193 161.493L152.587 163.017L146.994 166.863L141.736 165.247L147.193 161.493Z" fill="black"/>
<path d="M153.492 163.271L158.886 164.789L153.126 168.753L147.874 167.136L153.492 163.271Z" fill="black"/>
<path d="M177.717 158.805L182.38 155.597L185.089 156.359L181.406 159.852L177.717 158.805Z" fill="black"/>
<path d="M141.668 159.183L146.337 155.975L151.731 157.498L147.062 160.707L141.668 159.183Z" fill="black"/>
<path d="M172.286 162.553L176.948 159.338L180.799 160.428L177.122 163.915L172.286 162.553Z" fill="black"/>
<path d="M166.848 166.294L171.51 163.079L176.514 164.491L172.831 167.978L166.848 166.294Z" fill="black"/>
<path d="M160.554 164.516L165.217 161.301L170.611 162.825L165.949 166.04L160.554 164.516Z" fill="black"/>
<path d="M130.085 159.474L133.185 157.536L140.006 159.462L134.735 163.091L130.631 161.853C130.36 161.829 130.104 161.72 129.9 161.542C129.695 161.364 129.552 161.126 129.491 160.862C129.431 160.597 129.456 160.321 129.562 160.072C129.669 159.822 129.852 159.613 130.085 159.474Z" fill="black"/>
<path d="M166.079 166.82L172.224 168.554L167.387 173.138L160.139 170.908L166.079 166.82Z" fill="black"/>
<path d="M138.94 153.887L145.432 155.721L140.769 158.929L133.979 157.015L138.94 153.887Z" fill="black"/>
<path d="M140.899 159.716L146.293 161.24L140.862 164.981L135.604 163.364L140.899 159.716Z" fill="black"/>
<path d="M178.809 132.742L174.4 131.497L177.246 129.7L181.5 130.89L178.809 132.742Z" fill="black"/>
<path d="M154.006 169.025L159.785 165.042L165.18 166.566L159.264 170.642L154.006 169.025Z" fill="black"/>
<path d="M178.04 133.274L173.377 136.483L168.621 135.145L173.581 132.017L178.04 133.274Z" fill="black"/>
<path d="M167.17 140.756L162.508 143.965L157.076 142.435L162.03 139.307L167.17 140.756Z" fill="black"/>
<path d="M172.608 137.015L167.939 140.224L162.848 138.787L167.809 135.659L172.608 137.015Z" fill="black"/>
<path d="M161.739 144.497L157.076 147.706L151.303 146.083L156.258 142.949L161.739 144.497Z" fill="black"/>
<path d="M156.301 148.239L151.638 151.447L145.531 149.725L150.485 146.597L156.301 148.239Z" fill="black"/>
<path d="M144.712 150.239L150.869 151.98L146.206 155.188L139.758 153.373L144.712 150.239Z" fill="black"/>
<path d="M184.333 135.052L179.67 138.26L174.276 136.737L178.939 133.528L184.333 135.052Z" fill="black"/>
<path d="M195.227 146.758L194.272 147.656L194.024 147.582L195.227 146.758Z" fill="black"/>
<path d="M197.695 138.074L192.301 136.551L195.017 134.68L200.423 136.191L197.695 138.074Z" fill="black"/>
<path d="M191.401 136.297L186.007 134.773L188.71 132.909L194.117 134.426L191.401 136.297Z" fill="black"/>
<path d="M187.805 132.661L185.102 134.519L179.707 132.996L182.405 131.144L187.805 132.661Z" fill="black"/>
<path d="M183.155 155.07L187.818 151.856L189.38 152.295L185.697 155.783L183.155 155.07Z" fill="black"/>
<path d="M166.023 176.916L180.284 119.245C180.609 117.934 181.309 116.746 182.299 115.826L220.742 80.0194C220.905 79.8678 221.113 79.7726 221.335 79.7477C221.556 79.7229 221.78 79.7697 221.973 79.8813C222.166 79.993 222.318 80.1635 222.407 80.3678C222.495 80.5722 222.516 80.7996 222.466 81.0166L209.898 134.854L166.023 176.916Z" fill="url(#paint19_linear_805_5791)" stroke="black" stroke-width="0.421342" stroke-linecap="round" stroke-linejoin="round"/>
<path d="M187.576 113.466L183.18 117.306C183.18 117.306 181.81 117.579 180.439 124.436" stroke="black" stroke-width="0.210671" stroke-linecap="round" stroke-linejoin="round"/>
<path d="M179.615 127.997L171.511 163.079" stroke="black" stroke-width="0.210671" stroke-linecap="round" stroke-linejoin="round"/>
<path d="M203.344 111.899C201.44 116.52 201.614 120.973 203.734 121.847C205.855 122.72 209.122 119.679 211.026 115.033C212.93 110.388 212.756 105.959 210.635 105.092C208.515 104.225 205.247 107.279 203.344 111.899Z" fill="url(#paint20_linear_805_5791)"/>
<path opacity="0.6" d="M203.344 111.899C201.44 116.52 201.614 120.973 203.734 121.847C205.855 122.72 209.122 119.679 211.026 115.033C212.93 110.388 212.756 105.959 210.635 105.092C208.515 104.225 205.247 107.279 203.344 111.899Z" fill="white"/>
<path d="M204.733 119.429C203.226 118.809 203.102 115.642 204.457 112.355C205.811 109.069 208.131 106.907 209.639 107.527C211.146 108.147 211.269 111.314 209.915 114.601C208.56 117.887 206.24 120.049 204.733 119.429Z" stroke="black" stroke-width="0.421342" stroke-miterlimit="10"/>
<path d="M200.405 130.846C199.413 133.243 199.822 135.684 201.31 136.297C202.798 136.91 204.807 135.461 205.799 133.07C206.791 130.679 206.376 128.232 204.888 127.619C203.4 127.006 201.391 128.455 200.405 130.846Z" fill="black"/>
<path d="M202.457 134.903C203.393 134.903 204.41 134.055 204.937 132.729C205.234 132.048 205.337 131.297 205.235 130.561C205.207 130.254 205.1 129.96 204.924 129.706C204.748 129.453 204.509 129.251 204.23 129.118C203.182 128.685 201.843 129.595 201.186 131.187C200.535 132.779 200.845 134.364 201.893 134.798C202.072 134.869 202.264 134.905 202.457 134.903ZM203.697 129.632C203.803 129.631 203.909 129.652 204.007 129.694C204.185 129.789 204.336 129.929 204.444 130.099C204.553 130.27 204.616 130.465 204.627 130.667C204.716 131.298 204.625 131.942 204.367 132.525C203.864 133.764 202.841 134.544 202.134 134.253C201.428 133.962 201.26 132.68 201.769 131.453C202.234 130.369 203.077 129.632 203.697 129.632Z" fill="url(#paint21_linear_805_5791)"/>
<g opacity="0.5">
<path d="M202.457 134.903C203.393 134.903 204.41 134.055 204.937 132.729C205.234 132.048 205.337 131.297 205.235 130.561C205.207 130.254 205.1 129.96 204.924 129.706C204.748 129.453 204.509 129.251 204.23 129.118C203.182 128.685 201.843 129.595 201.186 131.187C200.535 132.779 200.845 134.364 201.893 134.798C202.072 134.869 202.264 134.905 202.457 134.903ZM203.697 129.632C203.803 129.631 203.909 129.652 204.007 129.694C204.185 129.789 204.336 129.929 204.444 130.099C204.553 130.27 204.616 130.465 204.627 130.667C204.716 131.298 204.625 131.942 204.367 132.525C203.864 133.764 202.841 134.544 202.134 134.253C201.428 133.962 201.26 132.68 201.769 131.453C202.234 130.369 203.077 129.632 203.697 129.632Z" fill="white"/>
</g>
<path d="M189.349 131.614L192.877 137.189C192.968 137.324 193.017 137.484 193.017 137.647C193.017 137.81 192.968 137.97 192.877 138.105L185.325 149.106C185.259 149.203 185.173 149.286 185.073 149.348C184.973 149.411 184.86 149.452 184.744 149.468C184.627 149.484 184.508 149.476 184.394 149.443C184.281 149.411 184.175 149.355 184.085 149.279L180.172 146.089C180.017 145.964 179.911 145.786 179.876 145.589C179.841 145.393 179.878 145.19 179.98 145.018L187.923 131.645C187.994 131.52 188.096 131.416 188.22 131.343C188.343 131.269 188.484 131.229 188.627 131.226C188.771 131.223 188.913 131.257 189.04 131.325C189.166 131.393 189.273 131.493 189.349 131.614Z" fill="black"/>
<path d="M195.487 139.004C195.487 139.004 185.716 137.381 179.001 151.131L177.333 149.081C177.333 149.081 183.8 138.322 189.07 137.362C194.34 136.402 196.256 136.396 196.256 136.396L195.487 139.004Z" fill="url(#paint22_linear_805_5791)"/>
<path opacity="0.5" d="M195.487 139.004C195.487 139.004 185.716 137.381 179.001 151.131L177.333 149.081C177.333 149.081 183.8 138.322 189.07 137.362C194.34 136.402 196.256 136.396 196.256 136.396L195.487 139.004Z" fill="white"/>
<path d="M237.632 109.329L221.685 105.73" stroke="black" stroke-width="0.421342" stroke-linecap="round" stroke-linejoin="round"/>
<path d="M136.379 144.014C138.291 144.316 140.218 144.508 142.151 144.59C145.146 144.708 146.417 144.708 145.959 145.402C145.5 146.095 141.916 146.783 140.651 147.012C139.386 147.241 136.379 144.014 136.379 144.014Z" fill="white" stroke="black" stroke-width="0.421342" stroke-miterlimit="10"/>
<path d="M23.9275 169.068L29.2661 166.281" stroke="black" stroke-width="0.421342" stroke-linecap="round" stroke-linejoin="round"/>
<path d="M130.569 103.971C130.569 103.971 129.447 102.008 128.975 104.442L130.569 103.971Z" fill="black"/>
<path d="M32.5712 164.553L162.731 96.6251" stroke="black" stroke-width="0.421342" stroke-linecap="round" stroke-linejoin="round"/>
<path d="M159.308 123.228L131.958 140.843L109.463 131.676L139.764 116.291L159.308 123.228Z" fill="black" stroke="black" stroke-width="0.421342" stroke-linecap="round" stroke-linejoin="round"/>
<path d="M141.73 119.555L152.63 123.401" stroke="white" stroke-width="0.210671" stroke-linecap="round" stroke-linejoin="round"/>
<path d="M150.919 124.683L131.251 137.071L115.223 130.877" stroke="white" stroke-width="0.210671" stroke-linecap="round" stroke-linejoin="round"/>
<path d="M46.6147 39.9884C46.6147 39.9884 30.9524 42.466 25.9114 50.8524C20.8705 59.2389 24.4729 72.4195 26.1533 76.9719C27.6724 81.1033 23.1832 84.5532 20.424 86.7954C14.2236 91.8248 11.0304 98.923 14.2546 106.647C16.2635 111.453 25.1984 113.609 23.9893 119.394C22.7802 125.179 17.516 133.293 24.2311 139.288C31.3182 145.606 41.952 142.348 48.1648 136.445C55.1527 129.806 57.5585 118.254 53.9809 109.329C49.6406 98.5452 47.2658 91.5956 51.3457 87.0308C55.4256 82.4659 60.7021 79.5981 60.7021 73.1318C60.7021 66.6654 54.9419 64.7453 52.5424 58.2665C50.1428 51.7877 53.5034 45.0859 53.5034 45.0859L46.6147 39.9884Z" fill="black" stroke="black" stroke-width="0.421342" stroke-linecap="round" stroke-linejoin="round"/>
<path d="M31.9449 51.1746C28.9191 53.4601 26.1661 57.3065 27.121 63.5623C29.0555 76.2597 38.4492 77.0897 32.3728 85.0921C26.2963 93.0946 20.7655 89.5022 21.8754 99.4371C22.9853 109.372 26.5691 112.958 26.5691 112.958" stroke="white" stroke-width="0.421342" stroke-miterlimit="10"/>
<path d="M38.4243 48.121C37.213 48.4055 36.0362 48.8209 34.9149 49.3597" stroke="white" stroke-width="0.421342" stroke-miterlimit="10"/>
<path d="M41.4624 51.7135C41.4624 51.7135 33.4514 53.9185 30.965 60.5398C28.4787 67.161 38.4056 72.6859 38.976 76.8234" stroke="white" stroke-width="0.421342" stroke-miterlimit="10"/>
<path d="M41.8156 159.728C41.9272 155.931 41.9768 150.865 41.7474 145.519C41.2637 134.494 28.0692 119.871 27.5918 117.238C27.1143 114.606 28.311 114.141 28.311 114.141L54.4645 102.875C66.6236 110.852 69.5812 134.055 70.3066 144.882L41.8156 159.728Z" fill="url(#paint23_linear_805_5791)" stroke="black" stroke-width="0.421342" stroke-linecap="round" stroke-linejoin="round"/>
<path d="M31.1509 114.841C31.1509 114.841 28.9559 116.21 31.1509 118.403C33.3458 120.595 39.3851 129.917 41.8652 135.399" stroke="black" stroke-width="0.210671" stroke-linecap="round" stroke-linejoin="round"/>
<path d="M42.9503 138.124C42.9503 138.124 44.8724 142.509 44.5934 146.895C44.3144 151.28 44.3206 155.393 44.3206 155.393" stroke="black" stroke-width="0.210671" stroke-linecap="round" stroke-linejoin="round"/>
<path d="M94.2531 108.889C93.0998 111.887 91.7109 118.335 92.6348 122.02C93.1122 123.934 94.7119 127.954 96.1318 131.379L60.8699 149.787C60.9071 142.453 60.8141 130.877 59.8778 128.728C58.4951 125.501 47.4211 95.089 48.097 88.1767C48.7728 81.2643 62.1658 71.3541 62.1658 71.3541L60.1134 54.5068L72.3345 61.8837C72.3345 61.8837 73.7234 68.5607 75.1061 70.1773C76.4888 71.7939 87.7922 74.0918 91.0227 78.2293C94.2531 82.3668 93.0998 95.0518 93.0998 95.7394C93.0998 96.4269 95.4064 105.916 94.2531 108.889Z" fill="white"/>
<mask id="mask2_805_5791" style="mask-type:luminance" maskUnits="userSpaceOnUse" x="48" y="54" width="49" height="96">
<path d="M94.2531 108.889C93.0998 111.887 91.7109 118.335 92.6348 122.02C93.1122 123.934 94.7119 127.954 96.1318 131.379L60.8699 149.787C60.9071 142.453 60.8141 130.877 59.8778 128.728C58.4951 125.501 47.4211 95.089 48.097 88.1767C48.7728 81.2643 62.1658 71.3541 62.1658 71.3541L60.1134 54.5068L72.3345 61.8837C72.3345 61.8837 73.7234 68.5607 75.1061 70.1773C76.4888 71.7939 87.7922 74.0918 91.0227 78.2293C94.2531 82.3668 93.0998 95.0518 93.0998 95.7394C93.0998 96.4269 95.4064 105.916 94.2531 108.889Z" fill="white"/>
</mask>
<g mask="url(#mask2_805_5791)">
<g style="mix-blend-mode:multiply" opacity="0.5">
<path d="M48.1155 88.1519C48.8099 81.2395 62.1843 71.3294 62.1843 71.3294L60.1133 54.5068L72.3344 61.8837C72.3344 61.8837 72.7375 63.81 73.3203 65.8478C72.5329 65.7797 71.6524 65.6682 70.6665 65.4947C66.0038 64.671 63.5298 63.0172 63.5298 63.0172L66.01 73.4353C66.01 73.4353 53.3859 80.8679 50.0934 89.8862C49.647 91.1249 49.1696 92.2832 48.6797 93.4352C48.2623 91.7062 48.0726 89.93 48.1155 88.1519Z" fill="url(#paint24_linear_805_5791)"/>
</g>
</g>
<path d="M94.2531 108.889C93.0998 111.887 91.7109 118.335 92.6348 122.02C93.1122 123.934 94.7119 127.954 96.1318 131.379L60.8699 149.787C60.9071 142.453 60.8141 130.877 59.8778 128.728C58.4951 125.501 47.4211 95.089 48.097 88.1767C48.7728 81.2643 62.1658 71.3541 62.1658 71.3541L60.1134 54.5068L72.3345 61.8837C72.3345 61.8837 73.7234 68.5607 75.1061 70.1773C76.4888 71.7939 87.7922 74.0918 91.0227 78.2293C94.2531 82.3668 93.0998 95.0518 93.0998 95.7394C93.0998 96.4269 95.4064 105.916 94.2531 108.889Z" stroke="black" stroke-width="0.421342" stroke-linecap="round" stroke-linejoin="round"/>
<path d="M94.2531 108.889C93.0998 111.887 91.7109 118.335 92.6348 122.02C93.1122 123.934 94.7119 127.954 96.1318 131.379L60.8699 149.787C60.9071 142.454 60.8141 130.877 59.8778 128.728C58.4951 125.501 47.4211 95.0891 48.097 88.1767C48.5248 83.872 53.8696 78.4152 57.8441 74.9033C61.7566 79.047 70.245 86.7769 76.4454 83.3331C82.0258 80.2362 81.6724 75.5289 80.8477 72.7292C84.6176 74.1167 89.1253 75.8881 90.9793 78.2666C94.2097 82.4164 93.0564 95.0891 93.0564 95.7766C93.0564 96.4641 95.4064 105.916 94.2531 108.889Z" fill="black" stroke="black" stroke-width="0.421342" stroke-linecap="round" stroke-linejoin="round"/>
<path d="M73.6549 100.701L81.3311 97.1021C81.3311 97.1021 83.495 93.5096 84.6917 93.5096C85.8884 93.5096 86.6138 98.5453 86.6138 98.5453C86.6138 98.5453 90.6875 102.379 89.249 106.213C87.8105 110.047 82.534 115.801 76.0545 113.646C69.575 111.49 71.4972 104.782 71.4972 104.782C71.4972 104.782 68.8558 100.23 68.8558 99.2699C68.8558 98.3099 73.6549 100.701 73.6549 100.701Z" fill="white" stroke="black" stroke-width="0.421342" stroke-linecap="round" stroke-linejoin="round"/>
<path d="M90.0985 26.3929C90.0985 26.3929 88.4801 34.6927 88.7158 40.453C88.9514 46.2132 91.2517 48.505 90.5759 51.0507C89.9 53.5963 81.579 63.0358 76.5071 63.9525C71.4351 64.8692 59.4373 57.0401 55.9774 53.5839C52.5176 50.1278 52.0587 45.0612 52.5175 42.9862C52.9764 40.9113 54.8241 24.3241 61.7438 17.641C68.6635 10.9578 86.868 11.6515 90.0985 26.3929Z" fill="white"/>
<mask id="mask3_805_5791" style="mask-type:luminance" maskUnits="userSpaceOnUse" x="52" y="13" width="39" height="52">
<path d="M90.0985 26.3929C90.0985 26.3929 88.4801 34.6927 88.7158 40.453C88.9514 46.2132 91.2517 48.505 90.5759 51.0507C89.9 53.5963 81.579 63.0358 76.5071 63.9525C71.4351 64.8692 59.4373 57.0401 55.9774 53.5839C52.5176 50.1278 52.0587 45.0612 52.5175 42.9862C52.9764 40.9113 54.8241 24.3241 61.7438 17.641C68.6635 10.9578 86.868 11.6515 90.0985 26.3929Z" fill="white"/>
</mask>
<g mask="url(#mask3_805_5791)">
<g style="mix-blend-mode:multiply" opacity="0.5">
<path d="M61.7065 17.641C64.2921 15.1634 68.4588 13.6769 72.8301 13.584L73.1153 22.1811C73.1153 22.1811 74.4918 30.679 69.5501 37.5294C64.6083 44.3799 60.2184 46.3061 59.6728 49.0438C59.1271 51.7815 61.6073 54.5068 67.907 59.1894C70.3704 61.0518 73.0098 62.6699 75.7877 64.0206C70.3871 64.2126 59.2573 56.8976 55.9463 53.5839C52.4864 50.1278 52.0276 45.0612 52.4864 42.9862C52.9453 40.9113 54.8054 24.3241 61.7065 17.641Z" fill="url(#paint25_linear_805_5791)"/>
</g>
</g>
<path d="M90.0985 26.3929C90.0985 26.3929 88.4801 34.6927 88.7158 40.453C88.9514 46.2132 91.2517 48.505 90.5759 51.0507C89.9 53.5963 81.579 63.0358 76.5071 63.9525C71.4351 64.8692 59.4373 57.0401 55.9774 53.5839C52.5176 50.1278 52.0587 45.0612 52.5175 42.9862C52.9764 40.9113 54.8241 24.3241 61.7438 17.641C68.6635 10.9578 86.868 11.6515 90.0985 26.3929Z" stroke="black" stroke-width="0.421342" stroke-linecap="round" stroke-linejoin="round"/>
<path d="M81.3313 43.4447C81.3313 43.4447 82.0257 47.8238 83.1914 49.205C82.2864 49.9936 81.1565 50.4788 79.961 50.5924" stroke="black" stroke-width="0.421342" stroke-linecap="round" stroke-linejoin="round"/>
<path d="M80.8726 54.5068C79.3698 55.1722 77.7321 55.4773 76.0903 55.3977C74.4485 55.3181 72.8481 54.8561 71.4169 54.0485" stroke="black" stroke-width="0.421342" stroke-linecap="round" stroke-linejoin="round"/>
<path d="M72.57 41.1405C72.57 41.9085 72.9296 42.5279 73.3761 42.5279C73.8225 42.5279 74.1821 41.9085 74.1821 41.1405C74.1821 40.3725 73.8225 39.7593 73.3761 39.7593C72.9296 39.7593 72.57 40.3787 72.57 41.1405Z" fill="black"/>
<path d="M83.985 39.3009C83.985 40.0628 84.3447 40.6821 84.7911 40.6821C85.2375 40.6821 85.5972 40.0628 85.5972 39.3009C85.5972 38.5391 85.2375 37.9197 84.7911 37.9197C84.3447 37.9197 83.985 38.5391 83.985 39.3009Z" fill="black"/>
<path d="M87.0977 33.3115C86.4509 32.9081 85.7295 32.6388 84.9764 32.5197C84.2233 32.4005 83.4539 32.4338 82.7139 32.6177" stroke="black" stroke-width="0.421342" stroke-linecap="round" stroke-linejoin="round"/>
<path d="M76.2593 33.5407C76.2593 33.5407 74.8766 32.847 71.8756 34.6928" stroke="black" stroke-width="0.421342" stroke-linecap="round" stroke-linejoin="round"/>
<path d="M74.8767 20.1744C74.8767 20.1744 81.3313 25.4763 84.5618 28.6971C87.7922 31.9179 89.1749 34.2282 94.0175 32.1595C98.86 30.0907 102.326 22.9368 95.8776 14.4141C89.4291 5.8913 76.96 3.35182 64.739 6.808C52.5179 10.2642 47.4335 18.0994 46.5158 26.6284C45.5982 35.1573 47.4459 44.5967 51.7862 47.1362C56.1265 49.6757 65.8612 39.301 69.3211 32.847C71.4891 28.7682 73.3462 24.532 74.8767 20.1744Z" fill="black" stroke="black" stroke-width="0.421342" stroke-linecap="round" stroke-linejoin="round"/>
<path d="M74.8764 20.1743C74.8764 20.1743 92.2934 22.7386 93.1181 26.5973C93.9428 30.4561 88.6972 29.3598 88.6972 29.3598" stroke="white" stroke-width="0.421342" stroke-miterlimit="10"/>
<path d="M95.3629 22.72C96.541 25.2347 95.6048 26.8761 95.6048 26.8761" stroke="white" stroke-width="0.421342" stroke-miterlimit="10"/>
<path d="M57.4843 11.9737C57.4843 11.9737 74.3372 9.21744 74.3372 16.6625C74.3372 16.6625 84.5555 13.0762 91.1838 18.0437C92.1786 18.7682 93.0914 19.5989 93.9058 20.5212" stroke="white" stroke-width="0.421342" stroke-miterlimit="10"/>
<path d="M73.4878 18.3223C73.4878 18.3223 69.1909 32.1717 60.225 35.7084" stroke="white" stroke-width="0.421342" stroke-miterlimit="10"/>
<path d="M64.5469 22.0449C61.0932 24.8941 56.1515 27.7061 50.2858 27.4274" stroke="white" stroke-width="0.421342" stroke-miterlimit="10"/>
<path d="M69.916 16.3899C69.1085 17.4993 68.2216 18.5488 67.2622 19.5302" stroke="white" stroke-width="0.421342" stroke-miterlimit="10"/>
<path d="M91.711 34.4636L64.7266 39.0718C64.7266 39.0718 64.7266 43.1721 65.8799 45.2657C67.0332 47.3592 68.4159 47.384 71.4169 47.384C74.4179 47.384 78.5908 45.5258 78.7954 44.8507C79.2729 43.2155 78.9505 37.8206 78.9505 37.8206L81.102 37.4738C81.102 37.4738 80.823 43.7606 81.9763 44.4543C83.1296 45.148 90.7437 43.7605 92.1264 41.921C93.5091 40.0814 92.6349 34.2282 91.711 34.4636Z" stroke="black" stroke-width="0.421342" stroke-linecap="round" stroke-linejoin="round"/>
<path d="M64.7266 39.0718L52.7287 36.9968V38.6072L64.7266 41.6051V39.0718Z" fill="url(#paint26_linear_805_5791)" stroke="black" stroke-width="0.421342" stroke-linecap="round" stroke-linejoin="round"/>
<path d="M43.874 40.5059C42.9367 34.6799 45.1343 29.4821 48.7824 28.8964C52.4305 28.3108 56.1478 32.559 57.0851 38.385C58.0224 44.2111 55.8248 49.4089 52.1767 49.9945C48.5286 50.5802 44.8113 46.332 43.874 40.5059Z" fill="url(#paint27_linear_805_5791)" stroke="black" stroke-width="0.421342" stroke-linecap="round" stroke-linejoin="round"/>
<path d="M41.946 40.7379C42.7334 45.6435 45.4678 49.2793 48.041 48.8643C50.6142 48.4493 52.0713 44.1446 51.2838 39.239C50.4964 34.3335 47.7682 30.7039 45.1888 31.1189C42.6094 31.5339 41.1585 35.8386 41.946 40.7379Z" fill="url(#paint28_linear_805_5791)" stroke="black" stroke-width="0.421342" stroke-linecap="round" stroke-linejoin="round"/>
<path d="M45.5857 20.1743C45.14 26.6224 45.8433 33.0983 47.6629 39.3009C47.6629 39.3009 47.8923 43.0172 44.4324 41.3759C40.9726 39.7345 41.4314 25.7054 41.8964 19.9451C42.3615 14.1848 46.7328 15.7952 45.5857 20.1743Z" fill="white" stroke="black" stroke-width="0.421342" stroke-linecap="round" stroke-linejoin="round"/>
<path d="M58.4951 9.34123C58.4951 9.34123 53.1937 7.96 50.4345 12.8036C47.6753 17.6472 48.1279 22.0201 44.234 22.4784C40.3401 22.9367 40.0797 18.5639 42.1569 13.0328C44.234 7.50165 48.6115 3.35177 54.6136 2.89342C60.6156 2.43508 63.567 7.27248 63.567 7.27248C63.567 7.27248 60.3428 7.73083 58.4951 9.34123Z" fill="url(#paint29_linear_805_5791)" stroke="black" stroke-width="0.421342" stroke-linecap="round" stroke-linejoin="round"/>
<path d="M58.9602 95.5226L74.8767 131.701C74.8767 131.701 118.243 139.753 122.161 139.753C126.08 139.753 133.942 142.515 135.542 143.469C137.142 144.423 152.823 151.614 149.803 152.06C147.943 152.339 143.131 149.694 143.131 149.694C143.131 149.694 150.745 153.41 150.057 154.532C149.369 155.653 140.136 151.075 140.136 151.075C140.136 151.075 148.575 156.03 146.845 156.309C145.27 156.588 143.367 155.69 141.749 154.532C140.337 153.666 138.817 152.991 137.228 152.525C137.228 152.525 140.949 155.002 141.389 156.13C141.829 157.257 140.465 156.588 139.082 156.13C136.495 155.015 133.993 153.711 131.598 152.227C130.681 151.534 127.909 150.152 126.061 148.542L122.372 145.315C122.372 145.315 97.6943 146.003 86.4095 145.544C75.1247 145.086 69.5691 143.934 65.4148 139.784C61.2605 135.634 49.4983 109.366 46.7329 102.224C43.9675 95.0829 45.809 90.933 48.593 86.1204" fill="white"/>
<mask id="mask4_805_5791" style="mask-type:luminance" maskUnits="userSpaceOnUse" x="45" y="86" width="106" height="71">
<path d="M58.9602 95.5226L74.8767 131.701C74.8767 131.701 118.243 139.753 122.161 139.753C126.08 139.753 133.942 142.515 135.542 143.469C137.142 144.423 152.823 151.614 149.803 152.06C147.943 152.339 143.131 149.694 143.131 149.694C143.131 149.694 150.745 153.41 150.057 154.532C149.369 155.653 140.136 151.075 140.136 151.075C140.136 151.075 148.575 156.03 146.845 156.309C145.27 156.588 143.367 155.69 141.749 154.532C140.337 153.666 138.817 152.991 137.228 152.525C137.228 152.525 140.949 155.002 141.389 156.13C141.829 157.257 140.465 156.588 139.082 156.13C136.495 155.015 133.993 153.711 131.598 152.227C130.681 151.534 127.909 150.152 126.061 148.542L122.372 145.315C122.372 145.315 97.6943 146.003 86.4095 145.544C75.1247 145.086 69.5691 143.934 65.4148 139.784C61.2605 135.634 49.4983 109.366 46.7329 102.224C43.9675 95.0829 45.809 90.933 48.593 86.1204" fill="white"/>
</mask>
<g mask="url(#mask4_805_5791)">
<g style="mix-blend-mode:multiply" opacity="0.5">
<path d="M58.3155 119.227C65.756 133.206 72.0371 137.591 78.6219 140.905C85.2068 144.219 121.436 145.018 121.436 145.018L119.911 145.383C113.369 145.544 95.5306 145.922 86.4283 145.55C75.1249 145.092 69.5879 143.94 65.4336 139.79C61.2793 135.64 49.5171 109.372 46.7517 102.231C45.4682 98.9231 45.1829 96.2597 45.5116 93.8689L47.0803 94.8537C50.3303 103.197 54.0822 111.336 58.3155 119.227Z" fill="url(#paint30_linear_805_5791)"/>
</g>
</g>
<path d="M58.9602 95.5226L74.8767 131.701C74.8767 131.701 118.243 139.753 122.161 139.753C126.08 139.753 133.942 142.515 135.542 143.469C137.142 144.423 152.823 151.614 149.803 152.06C147.943 152.339 143.131 149.694 143.131 149.694C143.131 149.694 150.745 153.41 150.057 154.532C149.369 155.653 140.136 151.075 140.136 151.075C140.136 151.075 148.575 156.03 146.845 156.309C145.27 156.588 143.367 155.69 141.749 154.532C140.337 153.666 138.817 152.991 137.228 152.525C137.228 152.525 140.949 155.002 141.389 156.13C141.829 157.257 140.465 156.588 139.082 156.13C136.495 155.015 133.993 153.711 131.598 152.227C130.681 151.534 127.909 150.152 126.061 148.542L122.372 145.315C122.372 145.315 97.6943 146.003 86.4095 145.544C75.1247 145.086 69.5691 143.934 65.4148 139.784C61.2605 135.634 49.4983 109.366 46.7329 102.224C43.9675 95.0829 45.809 90.933 48.593 86.1204" stroke="black" stroke-width="0.421342" stroke-miterlimit="10"/>
<path d="M59.2268 94.6121L64.0693 107.155C60.5103 105.259 53.8324 102.714 48.5062 106.535C47.756 104.776 47.1421 103.29 46.7329 102.23C43.9613 95.089 45.809 90.9391 48.593 86.1265" fill="black"/>
<path d="M59.2268 94.6121L64.0693 107.155C60.5103 105.259 53.8324 102.714 48.5062 106.535C47.756 104.776 47.1421 103.29 46.7329 102.23C43.9613 95.089 45.809 90.9391 48.593 86.1265" stroke="black" stroke-width="0.421342" stroke-linecap="round" stroke-linejoin="round"/>
<path d="M93.4963 111.255C98.1776 112.624 116.667 118.031 118.385 118.434C119.449 118.692 120.528 118.885 121.615 119.01C121.615 119.01 128.076 116.241 129.806 114.978C131.536 113.714 133.613 114.513 134.649 114.978C135.684 115.442 136.509 118.663 134.531 118.663C132.553 118.663 132.224 118.545 130.036 120.391C127.847 122.237 127.841 123.16 126.228 123.847C124.616 124.535 121.956 124.076 120.574 123.847C119.334 123.643 97.8924 122.218 92.6158 121.939C91.9276 119.041 92.6158 114.513 93.4963 111.255Z" fill="white"/>
<mask id="mask5_805_5791" style="mask-type:luminance" maskUnits="userSpaceOnUse" x="92" y="111" width="44" height="14">
<path d="M93.4963 111.255C98.1776 112.624 116.667 118.031 118.385 118.434C119.449 118.692 120.528 118.885 121.615 119.01C121.615 119.01 128.076 116.241 129.806 114.978C131.536 113.714 133.613 114.513 134.649 114.978C135.684 115.442 136.509 118.663 134.531 118.663C132.553 118.663 132.224 118.545 130.036 120.391C127.847 122.237 127.841 123.16 126.228 123.847C124.616 124.535 121.956 124.076 120.574 123.847C119.334 123.643 97.8924 122.218 92.6158 121.939C91.9276 119.041 92.6158 114.513 93.4963 111.255Z" fill="white"/>
</mask>
<g mask="url(#mask5_805_5791)">
<g style="mix-blend-mode:multiply" opacity="0.5">
<path d="M92.7585 114.587L120.574 123.878C119.334 123.674 97.8925 122.249 92.6159 121.97C92.1447 119.951 92.3183 117.195 92.7585 114.587Z" fill="url(#paint31_linear_805_5791)"/>
</g>
</g>
<path d="M93.4963 111.255C98.1776 112.624 116.667 118.031 118.385 118.434C119.449 118.692 120.528 118.885 121.615 119.01C121.615 119.01 128.076 116.241 129.806 114.978C131.536 113.714 133.613 114.513 134.649 114.978C135.684 115.442 136.509 118.663 134.531 118.663C132.553 118.663 132.224 118.545 130.036 120.391C127.847 122.237 127.841 123.16 126.228 123.847C124.616 124.535 121.956 124.076 120.574 123.847C119.334 123.643 97.8924 122.218 92.6158 121.939C91.9276 119.041 92.6158 114.513 93.4963 111.255Z" stroke="black" stroke-width="0.421342" stroke-linecap="round" stroke-linejoin="round"/>
<path d="M139.727 118.781C139.727 118.781 142.151 120.162 142.827 121.772C143.503 123.383 142.139 122.924 141.674 122.584C141.209 122.243 139.25 120.62 139.25 120.62L139.727 118.781Z" fill="white" stroke="black" stroke-width="0.421342" stroke-linecap="round" stroke-linejoin="round"/>
<path d="M139.033 117.622C139.487 117.913 139.846 118.33 140.066 118.822C140.286 119.314 140.358 119.859 140.273 120.391C140.043 122.348 137.966 125.228 137.73 124.076C137.495 122.924 139.033 117.622 139.033 117.622Z" fill="white" stroke="black" stroke-width="0.421342" stroke-linecap="round" stroke-linejoin="round"/>
<path d="M136.149 115.894C136.149 115.894 138.344 116.47 139.033 117.622C139.721 118.774 138.574 123.736 137.762 124.076C137.589 124.154 137.402 124.191 137.213 124.184C137.024 124.178 136.839 124.129 136.672 124.041C136.505 123.952 136.361 123.827 136.25 123.674C136.139 123.521 136.064 123.345 136.032 123.16C135.802 122.348 136.149 115.894 136.149 115.894Z" fill="white" stroke="black" stroke-width="0.421342" stroke-linecap="round" stroke-linejoin="round"/>
<path d="M133.378 114.742C133.378 114.742 136.267 114.742 136.608 116.13C136.949 117.517 137.532 123.5 136.955 124.423C136.379 125.346 135.455 124.999 134.996 123.847C134.537 122.695 133.378 114.742 133.378 114.742Z" fill="white" stroke="black" stroke-width="0.421342" stroke-linecap="round" stroke-linejoin="round"/>
<path d="M130.755 104.008L135.492 125.557L134.748 128.307C134.737 128.349 134.715 128.387 134.684 128.418C134.653 128.449 134.615 128.471 134.573 128.483C134.531 128.494 134.486 128.494 134.444 128.483C134.402 128.471 134.364 128.449 134.333 128.418L132.262 126.362L128.802 104.584L130.755 104.008Z" fill="black"/>
<path d="M126.111 121.401C126.111 121.401 128.765 122.441 130.842 123.364C132.919 124.287 134.996 124.745 134.767 126.015C134.537 127.285 133.613 126.82 132.113 126.362C130.054 125.645 127.926 125.142 125.764 124.863C122.881 124.516 120.574 121.865 120.574 121.865" fill="white"/>
<path d="M126.111 121.401C126.111 121.401 128.765 122.441 130.842 123.364C132.919 124.287 134.996 124.745 134.767 126.015C134.537 127.285 133.613 126.82 132.113 126.362C130.054 125.645 127.926 125.142 125.764 124.863C122.881 124.516 120.574 121.865 120.574 121.865" stroke="black" stroke-width="0.421342" stroke-linecap="round" stroke-linejoin="round"/>
<path d="M135.43 125.891L134.947 127.923C134.923 128.021 134.874 128.111 134.804 128.184C134.735 128.257 134.648 128.31 134.551 128.339C134.454 128.368 134.352 128.371 134.254 128.348C134.156 128.325 134.065 128.277 133.992 128.208L132.857 127.13" stroke="white" stroke-width="0.210671" stroke-linecap="round" stroke-linejoin="round"/>
<path d="M135.486 125.557L133.037 114.643" stroke="white" stroke-width="0.210671" stroke-linecap="round" stroke-linejoin="round"/>
<path d="M220.228 82.7633L188.946 111.825" stroke="black" stroke-width="0.210671" stroke-linecap="round" stroke-linejoin="round"/> -->
<defs>
<linearGradient id="paint0_linear_805_5791" x1="178.071" y1="131.311" x2="178.071" y2="183.754" gradientUnits="userSpaceOnUse">
<stop stop-color="#7DFFAF"/>
<stop offset="1" stop-color="#9955E8"/>
</linearGradient>
<linearGradient id="paint1_linear_805_5791" x1="82.5837" y1="175.907" x2="82.5837" y2="189.124" gradientUnits="userSpaceOnUse">
<stop stop-color="#7DFFAF"/>
<stop offset="1" stop-color="#9955E8"/>
</linearGradient>
<linearGradient id="paint2_linear_805_5791" x1="91.1526" y1="142.875" x2="91.1526" y2="149.787" gradientUnits="userSpaceOnUse">
<stop stop-color="#7DFFAF"/>
<stop offset="1" stop-color="#9955E8"/>
</linearGradient>
<linearGradient id="paint3_linear_805_5791" x1="116.779" y1="122.224" x2="116.779" y2="126.356" gradientUnits="userSpaceOnUse">
<stop stop-color="#7DFFAF"/>
<stop offset="1" stop-color="#9955E8"/>
</linearGradient>
<linearGradient id="paint4_linear_805_5791" x1="49.5293" y1="182.726" x2="49.5293" y2="198" gradientUnits="userSpaceOnUse">
<stop stop-color="#7DFFAF"/>
<stop offset="1" stop-color="#9955E8"/>
</linearGradient>
<linearGradient id="paint5_linear_805_5791" x1="109.429" y1="160.038" x2="109.429" y2="174.569" gradientUnits="userSpaceOnUse">
<stop stop-color="#7DFFAF"/>
<stop offset="1" stop-color="#9955E8"/>
</linearGradient>
<linearGradient id="paint6_linear_805_5791" x1="100.215" y1="179.418" x2="100.215" y2="190.561" gradientUnits="userSpaceOnUse">
<stop stop-color="#7DFFAF"/>
<stop offset="1" stop-color="#9955E8"/>
</linearGradient>
<linearGradient id="paint7_linear_805_5791" x1="51.0884" y1="177.43" x2="51.0884" y2="193.9" gradientUnits="userSpaceOnUse">
<stop stop-color="#7DFFAF"/>
<stop offset="1" stop-color="#9955E8"/>
</linearGradient>
<linearGradient id="paint8_linear_805_5791" x1="51.0978" y1="169.521" x2="51.0978" y2="185.34" gradientUnits="userSpaceOnUse">
<stop stop-color="#7DFFAF"/>
<stop offset="1" stop-color="#9955E8"/>
</linearGradient>
<linearGradient id="paint9_linear_805_5791" x1="51.0977" y1="170.704" x2="51.0977" y2="184.157" gradientUnits="userSpaceOnUse">
<stop stop-color="#7DFFAF"/>
<stop offset="1" stop-color="#9955E8"/>
</linearGradient>
<linearGradient id="paint10_linear_805_5791" x1="51.349" y1="158.672" x2="51.349" y2="181.379" gradientUnits="userSpaceOnUse">
<stop stop-color="#7DFFAF"/>
<stop offset="1" stop-color="#9955E8"/>
</linearGradient>
<linearGradient id="paint11_linear_805_5791" x1="51.349" y1="158.672" x2="51.349" y2="181.379" gradientUnits="userSpaceOnUse">
<stop stop-color="#7DFFAF"/>
<stop offset="1" stop-color="#9955E8"/>
</linearGradient>
<linearGradient id="paint12_linear_805_5791" x1="81.7468" y1="165.693" x2="81.7468" y2="178.211" gradientUnits="userSpaceOnUse">
<stop stop-color="#7DFFAF"/>
<stop offset="1" stop-color="#9955E8"/>
</linearGradient>
<linearGradient id="paint13_linear_805_5791" x1="81.6599" y1="153.615" x2="81.6599" y2="165.637" gradientUnits="userSpaceOnUse">
<stop stop-color="#7DFFAF"/>
<stop offset="1" stop-color="#9955E8"/>
</linearGradient>
<linearGradient id="paint14_linear_805_5791" x1="81.6599" y1="153.615" x2="81.6599" y2="165.637" gradientUnits="userSpaceOnUse">
<stop stop-color="#7DFFAF"/>
<stop offset="1" stop-color="#9955E8"/>
</linearGradient>
<linearGradient id="paint15_linear_805_5791" x1="81.6601" y1="150.704" x2="81.6601" y2="161.202" gradientUnits="userSpaceOnUse">
<stop stop-color="#7DFFAF"/>
<stop offset="1" stop-color="#9955E8"/>
</linearGradient>
<linearGradient id="paint16_linear_805_5791" x1="173.476" y1="78.4441" x2="173.476" y2="88.9461" gradientUnits="userSpaceOnUse">
<stop stop-color="#7DFFAF"/>
<stop offset="1" stop-color="#9955E8"/>
</linearGradient>
<linearGradient id="paint17_linear_805_5791" x1="172.966" y1="80.0648" x2="172.966" y2="82.6979" gradientUnits="userSpaceOnUse">
<stop stop-color="#7DFFAF"/>
<stop offset="1" stop-color="#9955E8"/>
</linearGradient>
<linearGradient id="paint18_linear_805_5791" x1="164.821" y1="125.494" x2="164.821" y2="176.916" gradientUnits="userSpaceOnUse">
<stop stop-color="#7DFFAF"/>
<stop offset="1" stop-color="#9955E8"/>
</linearGradient>
<linearGradient id="paint19_linear_805_5791" x1="194.258" y1="79.7412" x2="194.258" y2="176.916" gradientUnits="userSpaceOnUse">
<stop stop-color="#7DFFAF"/>
<stop offset="1" stop-color="#9955E8"/>
</linearGradient>
<linearGradient id="paint20_linear_805_5791" x1="207.185" y1="104.945" x2="207.185" y2="121.996" gradientUnits="userSpaceOnUse">
<stop stop-color="#7DFFAF"/>
<stop offset="1" stop-color="#9955E8"/>
</linearGradient>
<linearGradient id="paint21_linear_805_5791" x1="203.059" y1="129.01" x2="203.059" y2="134.903" gradientUnits="userSpaceOnUse">
<stop stop-color="#7DFFAF"/>
<stop offset="1" stop-color="#9955E8"/>
</linearGradient>
<linearGradient id="paint22_linear_805_5791" x1="186.794" y1="136.396" x2="186.794" y2="151.131" gradientUnits="userSpaceOnUse">
<stop stop-color="#7DFFAF"/>
<stop offset="1" stop-color="#9955E8"/>
</linearGradient>
<linearGradient id="paint23_linear_805_5791" x1="48.893" y1="102.875" x2="48.893" y2="159.728" gradientUnits="userSpaceOnUse">
<stop stop-color="#7DFFAF"/>
<stop offset="1" stop-color="#9955E8"/>
</linearGradient>
<linearGradient id="paint24_linear_805_5791" x1="60.7149" y1="54.5068" x2="60.7149" y2="93.4352" gradientUnits="userSpaceOnUse">
<stop stop-color="#7DFFAF"/>
<stop offset="1" stop-color="#9955E8"/>
</linearGradient>
<linearGradient id="paint25_linear_805_5791" x1="64.0628" y1="13.584" x2="64.0628" y2="64.0243" gradientUnits="userSpaceOnUse">
<stop stop-color="#7DFFAF"/>
<stop offset="1" stop-color="#9955E8"/>
</linearGradient>
<linearGradient id="paint26_linear_805_5791" x1="58.7276" y1="36.9968" x2="58.7276" y2="41.6051" gradientUnits="userSpaceOnUse">
<stop stop-color="#7DFFAF"/>
<stop offset="1" stop-color="#9955E8"/>
</linearGradient>
<linearGradient id="paint27_linear_805_5791" x1="57.0851" y1="38.385" x2="43.8747" y2="40.5103" gradientUnits="userSpaceOnUse">
<stop stop-color="#7DFFAF"/>
<stop offset="1" stop-color="#9955E8"/>
</linearGradient>
<linearGradient id="paint28_linear_805_5791" x1="46.6146" y1="31.0865" x2="46.6146" y2="48.8965" gradientUnits="userSpaceOnUse">
<stop stop-color="#7DFFAF"/>
<stop offset="1" stop-color="#9955E8"/>
</linearGradient>
<linearGradient id="paint29_linear_805_5791" x1="52.2181" y1="2.86279" x2="52.2181" y2="22.5114" gradientUnits="userSpaceOnUse">
<stop stop-color="#7DFFAF"/>
<stop offset="1" stop-color="#9955E8"/>
</linearGradient>
<linearGradient id="paint30_linear_805_5791" x1="83.4111" y1="93.8689" x2="83.4111" y2="145.709" gradientUnits="userSpaceOnUse">
<stop stop-color="#7DFFAF"/>
<stop offset="1" stop-color="#9955E8"/>
</linearGradient>
<linearGradient id="paint31_linear_805_5791" x1="106.455" y1="114.587" x2="106.455" y2="123.878" gradientUnits="userSpaceOnUse">
<stop stop-color="#7DFFAF"/>
<stop offset="1" stop-color="#9955E8"/>
</linearGradient>
</defs>
</svg>
