<?xml version="1.0" standalone="no"?>
<!DOCTYPE svg PUBLIC "-//W3C//DTD SVG 20010904//EN"
 "http://www.w3.org/TR/2001/REC-SVG-20010904/DTD/svg10.dtd">
<svg version="1.0" xmlns="http://www.w3.org/2000/svg"
 width="1080.000000pt" height="1080.000000pt" viewBox="0 0 1080.000000 1080.000000"
 preserveAspectRatio="xMidYMid meet">
<metadata>
Created by potrace 1.16, written by Peter Selinger 2001-2019
</metadata>
<g transform="translate(0.000000,1080.000000) scale(0.100000,-0.100000)"
fill="#000000" stroke="none">
<path d="M0 10483 l0 -317 33 -28 c40 -36 202 -171 366 -307 183 -151 291
-253 291 -273 0 -30 -16 -21 -87 45 -38 35 -81 73 -98 86 -16 12 -48 39 -70
60 -22 20 -110 95 -195 166 -85 70 -174 146 -197 169 l-43 40 0 -1414 0 -1415
128 -52 c155 -64 363 -144 666 -257 127 -47 235 -91 242 -98 18 -18 31 -155
54 -548 11 -190 29 -471 40 -625 11 -154 24 -352 30 -440 5 -88 15 -223 20
-300 6 -77 21 -302 35 -500 14 -198 32 -434 40 -525 8 -91 19 -217 25 -280 40
-462 52 -579 60 -610 6 -19 10 -67 10 -107 0 -60 -3 -71 -15 -67 -11 5 -15 21
-15 60 0 61 -14 75 -55 56 -19 -9 -24 -20 -28 -69 -3 -32 -9 -73 -13 -92 l-7
-34 -13 31 c-16 38 -57 61 -108 59 -36 -1 -40 -4 -62 -51 -23 -50 -23 -51 -4
-58 26 -10 26 -28 0 -28 -22 0 -24 -10 -10 -59 5 -19 6 -40 1 -48 -9 -17 -43
90 -35 112 3 7 -3 33 -14 57 -10 24 -22 55 -25 70 -4 15 -14 34 -23 43 -9 9
-14 19 -11 22 3 3 90 34 193 69 103 36 190 67 193 69 2 3 -1 65 -8 138 -7 72
-18 202 -26 287 -8 85 -28 301 -44 480 -34 366 -74 865 -86 1075 -9 146 -23
355 -40 565 -17 211 -39 526 -55 775 -6 94 -15 222 -21 285 -5 63 -9 123 -9
132 0 26 -60 53 -369 164 -68 25 -145 53 -170 63 -25 11 -116 46 -201 79 -85
34 -181 72 -213 86 l-57 26 0 -1991 c0 -1144 4 -1988 9 -1985 5 3 12 -1 15
-10 10 -27 7 -44 -9 -44 -12 0 -15 -17 -15 -96 l0 -95 32 3 c44 4 46 -25 3
-32 l-30 -5 -3 -79 -3 -78 28 7 c43 12 76 11 80 -2 3 -7 -17 -18 -51 -28 l-56
-16 0 -258 0 -259 46 6 c37 4 46 2 42 -9 -3 -8 -22 -15 -46 -17 l-42 -3 0 -65
0 -65 53 6 c44 6 56 4 77 -14 l25 -20 -40 -1 c-22 0 -57 -3 -77 -6 l-38 -7 0
-173 0 -174 90 0 c53 0 90 -4 90 -10 0 -6 -29 -10 -67 -10 -38 0 -78 -3 -90
-6 l-23 -6 0 -854 0 -854 5400 0 5400 0 0 45 0 45 -109 0 c-202 0 -362 44
-440 121 -58 58 -81 120 -81 224 0 77 17 205 34 255 3 8 14 48 26 88 34 116
35 76 2 -50 -58 -216 -64 -345 -22 -428 63 -124 209 -187 458 -197 l132 -6 0
169 0 169 -175 99 c-171 96 -175 99 -174 130 2 26 3 27 6 6 3 -20 22 -34 90
-70 47 -25 122 -66 166 -93 44 -26 82 -47 84 -47 1 0 3 67 3 149 l0 150 -70
37 c-39 20 -69 39 -66 41 3 4 44 -14 128 -55 4 -2 8 212 8 476 l0 480 -47 17
c-27 8 -59 22 -73 30 l-25 15 30 -6 c17 -4 47 -13 69 -21 21 -7 40 -13 42 -13
2 0 4 195 4 434 l0 434 -22 6 c-13 3 -37 6 -54 6 -17 0 -38 8 -47 18 -20 21
-22 37 -5 26 6 -4 37 -13 70 -19 l58 -13 0 368 0 368 -22 5 c-13 3 -71 11
-130 18 -103 12 -139 21 -127 33 3 3 57 -1 119 -9 176 -23 160 -31 160 81 0
94 0 95 -22 88 -57 -18 -99 -24 -180 -24 -49 0 -88 4 -88 9 0 10 58 21 115 21
22 0 47 5 55 10 10 7 -14 9 -80 8 -83 -3 -95 -1 -98 15 -3 14 4 17 37 17 22 0
46 6 53 13 18 18 114 7 110 -12 -2 -11 6 -12 35 -7 21 3 44 6 51 6 8 0 12 22
12 74 l0 75 -52 5 c-29 3 -102 8 -163 11 -194 11 -204 25 -15 19 96 -3 187 -7
203 -10 24 -5 27 -3 27 20 0 26 0 26 -87 26 -143 0 -343 12 -343 21 0 5 97 6
215 3 l215 -6 0 36 0 36 -137 1 c-76 1 -145 3 -153 4 -8 1 -53 3 -100 4 -47 1
-91 5 -98 10 -17 11 -3 86 77 406 32 127 68 274 81 327 13 53 26 101 29 107 8
12 215 33 237 24 8 -3 25 -2 39 1 l24 6 1 639 0 638 -67 -13 c-62 -12 -122
-17 -98 -9 6 2 45 11 87 20 l78 17 0 703 -1 703 -69 -19 c-117 -33 -294 -98
-320 -118 l-25 -18 3 -454 c1 -280 -1 -450 -7 -444 -5 6 -11 199 -13 457 -1
245 -6 450 -10 454 -4 4 -14 1 -23 -6 -23 -19 -58 -4 -79 35 -23 43 -64 70
-137 89 -30 8 -46 15 -36 15 9 1 17 6 17 11 0 6 9 10 20 10 13 0 20 7 20 18 0
14 23 28 98 57 53 21 112 38 130 38 18 0 28 4 21 7 -7 5 -5 9 6 14 24 9 26 8
23 -11 -3 -18 51 -52 84 -53 9 0 24 -9 32 -21 8 -12 19 -18 25 -15 5 4 13 2
16 -4 4 -6 16 -8 28 -5 18 5 19 4 7 -5 -12 -9 -8 -11 18 -6 56 10 26 -11 -72
-49 -52 -20 -102 -43 -112 -51 -15 -12 -15 -14 -3 -11 88 27 228 70 287 87
l72 21 0 269 c0 149 -1 270 -2 270 -2 0 -25 -7 -52 -15 -78 -24 -86 -22 -86
27 0 22 7 100 15 172 8 72 22 210 31 306 17 189 29 234 68 252 l26 11 0 599
c0 329 -2 598 -5 598 -8 0 -195 -130 -260 -180 -33 -26 -89 -66 -125 -90 -36
-24 -103 -72 -149 -107 -45 -36 -84 -63 -86 -61 -2 2 -6 14 -10 28 -5 22 -1
28 32 44 20 10 53 30 73 45 19 16 58 44 85 63 152 105 206 144 265 188 36 27
91 66 122 87 l58 38 0 338 0 337 -731 0 c-691 0 -730 -1 -726 -17 25 -95 29
-114 23 -120 -3 -3 -6 1 -6 9 0 18 -50 63 -80 73 -13 4 -20 15 -20 31 l0 24
-404 0 -405 0 -3 -26 c-2 -17 -11 -30 -25 -35 -13 -5 -23 -4 -23 1 0 5 9 12
20 15 11 3 20 15 20 26 0 21 -16 26 -23 7 -4 -10 -7 -10 -15 0 -6 9 -9 1 -10
-24 -1 -21 -7 -42 -13 -48 -8 -8 -10 2 -7 37 l3 47 -892 0 c-841 0 -892 -1
-896 -17 -4 -17 -5 -17 -6 0 -1 16 -111 17 -2168 17 l-2168 -1 30 -22 c40 -29
69 -64 77 -90 7 -27 10 -267 3 -267 -4 0 -19 7 -35 15 l-30 16 0 105 c0 68 -5
117 -14 139 -8 18 -12 36 -8 39 3 4 -7 20 -23 36 l-29 30 -316 0 -316 0 -29
-29 c-60 -58 -60 -58 -63 -193 -2 -70 -8 -128 -13 -128 -5 0 -10 57 -11 128
l-2 127 -6 -139 c-3 -99 -9 -141 -17 -144 -10 -3 -13 29 -13 135 0 160 3 167
83 213 l52 30 -782 0 -783 0 0 -317z m9430 52 c129 -73 208 -134 312 -239 111
-111 224 -267 288 -394 34 -68 93 -242 86 -250 -3 -2 -22 9 -43 25 -21 17 -59
42 -85 57 -50 29 -55 35 -38 52 25 25 -89 285 -175 399 -127 169 -280 290
-475 373 -23 10 -21 11 22 11 35 1 61 -7 108 -34z m-1060 15 c0 -5 -19 -19
-42 -31 -241 -123 -470 -381 -544 -614 -15 -47 -24 -93 -21 -111 6 -38 3 -43
-53 -73 -25 -13 -64 -37 -87 -53 -24 -16 -43 -24 -43 -19 0 6 11 34 24 63 13
29 36 82 51 118 63 152 176 313 314 451 111 110 240 209 326 250 65 32 75 34
75 19z m-6932 -272 c-3 -7 -38 -29 -79 -51 -111 -58 -190 -119 -265 -202 -83
-93 -113 -136 -168 -245 -54 -107 -89 -210 -84 -252 3 -28 -1 -35 -27 -48 -16
-8 -47 -25 -68 -38 -21 -12 -40 -22 -42 -22 -11 0 42 148 82 229 120 243 317
465 508 576 108 62 151 78 143 53z m1024 -27 c267 -156 502 -422 606 -686 24
-61 48 -118 53 -127 5 -10 9 -25 9 -34 0 -15 -2 -15 -21 2 -11 10 -51 35 -87
55 -58 31 -67 40 -64 62 6 54 -91 280 -168 392 -55 79 -176 201 -250 252 -49
33 -127 75 -175 94 -28 10 -28 12 -10 19 32 13 37 12 107 -29z m1715 -181 c2
-2 8 2 14 10 7 11 8 6 3 -15 -4 -16 -3 -27 1 -22 5 4 11 26 14 49 6 40 11 29
90 -193 172 -484 232 -654 234 -669 1 -10 -6 -15 -22 -15 -26 0 -15 -22 -145
315 -138 356 -165 428 -190 503 -14 42 -26 83 -25 90 0 6 5 -1 11 -18 6 -16
13 -32 15 -35z m2554 27 c-5 -13 -7 -34 -4 -46 5 -20 6 -20 19 -4 24 33 16 -8
-12 -57 -14 -25 -37 -72 -51 -105 -14 -33 -82 -177 -152 -320 -70 -143 -136
-278 -147 -301 -17 -37 -60 -71 -72 -59 -3 3 19 56 48 117 29 62 100 214 157
338 173 371 156 339 163 310 l6 -25 8 24 c5 14 4 26 -2 30 -7 4 -7 16 2 36 8
17 19 45 26 63 7 18 14 31 17 29 2 -2 -1 -16 -6 -30z m-391 -70 c0 -5 -5 -5
-12 -1 -8 5 -9 0 -6 -14 4 -12 2 -20 -3 -16 -5 3 -9 -6 -9 -19 0 -67 -254
-757 -279 -757 -7 0 -11 6 -8 13 33 72 93 228 131 342 26 77 51 149 56 160 5
11 18 52 30 90 12 39 30 88 40 110 10 22 24 59 31 83 8 29 15 38 21 30 4 -7 8
-17 8 -21z m2960 -172 c441 -49 764 -155 809 -263 19 -45 -6 -82 -89 -137 -73
-49 -246 -122 -365 -156 -131 -37 -446 -87 -585 -94 -74 -4 -142 -10 -150 -13
-8 -4 129 -9 305 -12 l320 -5 3 -27 c2 -18 -2 -28 -10 -29 -7 0 -24 -2 -38 -3
-14 -1 -157 -3 -317 -4 l-293 -2 0 -432 c0 -237 -2 -429 -4 -427 -7 7 -16 339
-17 634 -1 286 -13 362 -18 111 -1 -71 -6 -137 -11 -145 -5 -9 -10 -11 -10 -5
0 18 -48 23 -62 7 -10 -13 -13 -12 -19 4 -4 10 -8 30 -8 45 -1 15 -5 30 -11
33 -7 4 -10 -514 -9 -1547 1 -959 5 -1511 11 -1443 4 61 11 147 14 193 3 45
10 82 15 82 5 0 9 -7 9 -15 0 -20 16 -19 24 1 4 10 12 14 22 10 15 -6 16 1 11
52 -2 33 -2 65 3 71 12 20 20 -155 20 -423 0 -138 3 -357 8 -486 l7 -235 6
230 c3 127 5 565 4 975 -2 410 0 756 4 769 3 13 8 -203 9 -479 2 -277 5 -507
8 -512 4 -5 16 -1 28 10 28 25 115 72 133 72 10 0 12 -6 8 -19 -5 -16 -2 -18
15 -14 12 3 25 15 30 27 7 18 9 16 15 -15 6 -35 9 -37 55 -43 27 -4 68 -2 92
3 66 15 138 22 138 13 0 -5 -26 -19 -57 -31 -82 -33 -463 -233 -463 -243 0
-11 14 -10 26 1 17 17 399 207 479 240 68 27 87 31 132 25 29 -3 53 -9 53 -13
0 -3 -72 -42 -159 -86 -88 -44 -158 -81 -157 -82 6 -6 96 31 96 39 0 4 5 8 11
8 15 0 143 63 147 72 2 4 10 8 18 8 8 0 33 9 55 21 66 33 70 27 67 -108 l-3
-118 -40 -7 c-22 -3 -57 -9 -77 -13 l-38 -8 0 51 0 50 -36 -10 c-44 -12 -53
-5 -29 22 22 24 12 39 -15 22 -11 -7 -29 -12 -40 -12 -18 0 -24 -10 -21 -32 0
-4 -6 -23 -14 -42 -10 -23 -15 -69 -15 -130 0 -59 -7 -126 -20 -178 -10 -46
-18 -92 -17 -103 2 -19 -6 -20 -133 -25 -74 -3 -163 -5 -197 -5 l-63 0 1 -105
c1 -58 4 -95 6 -82 4 19 7 21 19 11 9 -7 14 -8 14 -1 0 15 120 13 126 -2 7
-18 122 -15 135 4 8 11 9 0 4 -38 -3 -32 -2 -51 3 -48 12 7 22 55 27 126 2 30
9 69 14 85 l11 30 -5 -31 c-2 -18 -7 -45 -10 -60 -6 -28 -6 -28 10 -9 16 20
16 19 11 -5 -3 -14 -13 -61 -22 -105 -9 -44 -23 -105 -31 -135 -7 -30 -29
-127 -48 -215 -19 -88 -48 -215 -64 -283 -25 -108 -27 -125 -14 -138 13 -12
64 -14 335 -11 175 2 322 -1 324 -5 3 -5 -8 -37 -24 -72 l-29 -63 -254 -7
c-140 -3 -357 -13 -484 -22 -218 -15 -230 -15 -242 2 -18 25 -16 42 5 48 33
11 140 126 153 164 6 20 20 49 31 64 24 34 42 87 79 225 37 142 37 185 4 219
-14 14 -25 29 -25 34 0 5 -19 18 -42 30 -61 29 -222 131 -252 160 -46 42 -54
107 -24 183 17 44 28 31 29 -35 0 -35 4 -85 8 -113 4 -27 8 814 10 1870 l2
1920 -398 0 -398 0 -3 33 -3 32 403 1 c386 1 466 8 252 23 -303 22 -650 102
-824 191 -138 71 -187 157 -122 217 117 110 548 222 992 258 146 12 548 3 710
-15z m-3130 -83 c-14 -4 -410 -5 -880 -2 l-855 5 880 2 c484 1 869 -2 855 -5z
m-3865 -177 c244 -22 370 -47 555 -107 173 -56 280 -123 280 -176 0 -83 -143
-177 -375 -246 -69 -20 -80 -26 -77 -44 2 -14 -6 -25 -27 -35 -30 -15 -30 -15
-20 10 5 14 8 27 7 29 -6 5 -99 -16 -116 -26 -14 -9 -12 -10 13 -8 17 1 36 7
44 13 12 8 13 5 8 -15 -4 -14 -7 -42 -7 -63 0 -27 -5 -39 -17 -44 -63 -21
-128 -57 -160 -88 -21 -21 -47 -45 -58 -54 -24 -19 -95 -107 -95 -116 0 -4
-10 -18 -22 -31 -23 -23 -73 -33 -80 -15 -4 13 -158 23 -158 11 0 -6 14 -10
30 -10 28 0 30 -2 20 -20 -13 -23 -45 -28 -36 -5 7 19 -1 19 -19 1 -7 -7 -15
-28 -18 -47 -3 -25 -4 -20 -5 19 -1 29 2 52 8 52 6 0 10 5 10 10 0 6 -9 10
-20 10 -12 0 -20 -7 -20 -17 0 -9 -2 -14 -5 -11 -3 3 -8 86 -11 184 -3 98 -10
183 -15 189 -5 5 -9 -439 -9 -1134 0 -1084 -1 -1143 -17 -1138 -10 3 -47 14
-83 25 l-65 19 3 289 c4 296 11 395 13 173 1 -68 3 -116 6 -106 3 12 15 17 44
17 l39 0 1 -52 c0 -29 4 -71 8 -93 5 -22 9 289 8 710 0 413 -3 717 -7 677 -9
-78 -20 -108 -20 -52 0 18 -3 30 -6 27 -4 -3 -15 -2 -26 4 -14 7 -23 7 -33 -1
-8 -7 -15 -7 -19 -1 -6 9 25 24 53 25 8 1 16 6 18 12 2 6 -12 10 -35 10 l-39
-1 -6 170 c-4 94 -7 205 -7 247 0 42 -4 79 -8 82 -10 6 -22 -190 -23 -389 0
-77 -5 -149 -10 -160 -8 -17 -8 -16 -4 7 3 17 -1 32 -11 42 -9 10 -13 24 -9
36 8 24 -3 62 -15 55 -5 -3 -15 4 -24 16 -8 12 -20 19 -28 17 -7 -3 -21 6 -31
19 -20 25 -52 31 -60 11 -3 -9 -14 -4 -32 15 -15 16 -33 26 -40 23 -8 -3 -11
2 -8 15 3 10 0 19 -6 19 -6 0 -11 -7 -11 -15 0 -8 -5 -15 -11 -15 -7 0 -9 10
-5 24 7 30 -7 41 -27 22 -13 -13 -17 -13 -33 -1 -11 8 -27 15 -36 15 -10 0
-18 4 -18 9 0 5 8 12 18 15 9 3 2 4 -15 2 -21 -1 -33 2 -33 10 0 18 -27 37
-55 37 -14 0 -28 4 -32 10 -4 6 0 8 10 4 11 -4 17 -1 17 8 0 8 -3 14 -7 14 -5
-1 -15 -1 -23 0 -13 1 -13 3 -1 10 8 5 11 16 7 26 -3 10 -9 15 -13 12 -10 -11
-45 14 -39 29 3 8 1 14 -4 14 -5 0 -12 11 -16 25 -7 27 -20 33 -27 13 -7 -20
-21 0 -22 30 -2 43 -21 70 -47 65 -19 -3 -27 4 -46 39 -12 24 -22 51 -22 60 0
9 -6 18 -12 21 -7 2 -11 7 -8 10 3 3 71 -7 150 -22 206 -41 268 -46 135 -12
-172 44 -254 70 -330 104 -172 77 -228 162 -152 234 106 101 479 198 892 233
142 11 486 4 690 -15z m3775 -157 c0 -5 -354 -7 -787 -6 -434 1 -756 4 -718 7
105 9 1505 7 1505 -1z m3900 -137 c0 -12 -37 -24 -49 -16 -6 3 -15 -3 -21 -14
-6 -11 -32 -33 -58 -48 -26 -14 -66 -40 -89 -55 l-43 -29 0 -199 c0 -127 -4
-200 -10 -200 -6 0 -11 55 -12 143 -3 292 -5 273 22 296 14 11 32 23 42 26 9
3 54 28 100 55 79 48 118 61 118 41z m313 -33 c17 -18 49 -116 42 -128 -8 -13
23 -70 37 -70 7 0 -7 -14 -30 -31 -23 -17 -42 -32 -42 -35 0 -10 71 11 130 38
117 54 132 56 89 10 -11 -13 -18 -30 -15 -40 4 -13 0 -17 -18 -18 -13 -1 -55
-20 -94 -43 -39 -23 -90 -50 -114 -60 -24 -10 -119 -55 -213 -101 -93 -45
-210 -100 -260 -123 -73 -33 -248 -121 -427 -214 -16 -8 -30 -24 -33 -36 -19
-86 -26 -133 -39 -297 -39 -460 -45 -637 -23 -646 7 -2 87 20 178 51 90 31
277 93 414 140 206 69 510 178 588 210 13 5 17 2 17 -13 0 -21 -11 -26 -210
-97 -188 -68 -964 -325 -979 -325 -10 0 -25 8 -35 18 -17 20 -15 110 14 547 6
83 15 222 20 310 9 132 13 162 28 173 9 8 76 42 147 78 192 94 485 251 485
259 0 3 -64 -19 -142 -50 -19 -7 -19 -11 6 105 7 36 18 64 24 63 6 -1 8 10 5
27 -2 17 0 30 6 30 6 0 11 8 11 18 0 16 118 95 265 178 111 62 150 84 153 84
2 0 9 -6 15 -12z m-9985 -147 c64 -43 187 -122 272 -176 85 -54 187 -118 225
-142 39 -25 85 -53 102 -63 l33 -20 -7 -377 c-3 -208 -7 -380 -9 -382 -2 -2
-4 165 -4 372 l0 376 -32 17 c-18 9 -96 57 -173 107 -77 49 -176 113 -220 141
-44 28 -129 83 -188 123 -60 40 -113 73 -118 73 -6 0 -8 -229 -7 -581 l3 -580
280 -114 c418 -169 465 -189 465 -197 0 -16 -38 -7 -120 28 -47 19 -200 82
-340 138 -140 57 -267 110 -282 117 l-28 12 0 610 c0 546 2 609 16 603 8 -3
68 -41 132 -85z m6142 -387 c0 -288 -3 -433 -10 -429 -6 4 -10 162 -10 441 0
288 3 433 10 429 6 -4 10 -162 10 -441z m-2165 411 c0 -20 -8 -20 -387 -23
l-388 -2 0 25 0 25 388 -2 c379 -3 387 -3 387 -23z m2118 13 c13 -39 27 -38
-976 -38 l-970 0 6 -122 c4 -66 7 -478 7 -914 l0 -793 53 16 c76 22 118 46
178 101 30 26 86 70 124 97 39 27 77 57 85 67 18 22 142 67 184 68 22 0 26 -3
18 -13 -9 -11 0 -13 51 -10 65 4 64 -8 -3 -22 -52 -11 -204 -82 -191 -89 5 -4
40 0 76 9 84 19 88 19 44 -5 -41 -22 -59 -60 -29 -60 36 0 29 -17 -13 -29 -23
-7 -73 -31 -112 -53 -82 -48 -80 -46 -73 -53 3 -3 35 6 71 20 86 35 118 30 51
-8 -27 -15 -79 -47 -116 -70 -36 -23 -81 -50 -100 -61 -19 -11 -28 -21 -20
-23 6 -3 12 -9 12 -14 0 -5 -40 -51 -90 -102 -49 -50 -90 -95 -90 -99 0 -4 28
8 63 27 83 45 244 96 212 66 -6 -4 -55 -32 -110 -60 -131 -68 -248 -153 -303
-220 -30 -37 -42 -47 -37 -30 11 34 41 76 93 131 37 39 41 46 22 41 -22 -6
-23 -4 -17 27 16 78 87 182 200 293 60 59 107 110 104 113 -8 9 -68 -29 -160
-100 -43 -34 -102 -79 -130 -100 -108 -83 -245 -246 -235 -278 4 -11 18 5 90
101 37 50 69 70 48 30 -9 -15 -11 -47 -7 -97 5 -61 2 -80 -13 -108 -34 -59
-53 -144 -52 -229 2 -79 20 -166 38 -172 5 -2 9 41 9 95 1 80 5 106 24 149 26
59 45 63 29 5 -6 -20 -8 -80 -5 -132 6 -128 38 -200 116 -265 l24 -20 -11 20
c-5 11 -26 44 -45 72 -57 84 -73 217 -42 336 16 62 43 122 51 114 3 -3 -2 -32
-10 -65 -40 -151 -29 -304 26 -387 46 -69 120 -130 170 -141 42 -9 43 -11 66
-74 43 -124 53 -147 86 -203 l34 -56 -19 -39 c-22 -45 -16 -73 22 -108 25 -23
106 -54 139 -54 24 0 36 -40 21 -68 -26 -48 -6 -86 54 -106 33 -12 40 -18 37
-38 -4 -32 31 -74 73 -88 35 -12 39 -17 35 -57 -3 -39 29 -130 57 -164 36 -42
79 -59 152 -59 52 0 80 9 220 70 101 44 173 70 196 70 49 0 98 -27 174 -96 35
-33 70 -63 77 -67 8 -4 14 -16 14 -27 0 -12 6 -17 18 -14 9 3 31 -6 47 -20
l30 -24 -27 -29 c-46 -49 -71 -119 -76 -216 -5 -102 11 -252 39 -355 20 -76
103 -262 116 -262 5 0 28 38 52 85 24 47 53 92 63 102 18 16 9 -6 -63 -164
-33 -74 -24 -101 34 -104 16 -1 14 -3 -8 -8 -60 -14 -76 1 -140 127 -61 122
-131 311 -160 432 -26 110 -27 126 -9 220 3 17 -1 13 -10 -10 -19 -47 -20
-139 -1 -211 l16 -59 -33 -41 c-27 -34 -33 -50 -36 -104 -2 -36 2 -96 11 -137
19 -86 25 -159 32 -368 5 -154 11 -301 20 -475 15 -307 17 -383 7 -389 -30
-18 -39 51 -33 269 1 74 -3 133 -14 180 -9 39 -27 131 -40 205 -39 219 -55
283 -72 302 -14 16 -36 18 -205 18 -232 0 -258 -7 -258 -70 0 -43 46 -535 55
-582 4 -28 4 -28 -55 -28 l-60 0 0 48 c0 84 -35 169 -72 174 -21 3 -23 7 -20
60 3 46 -1 65 -18 93 -12 19 -25 35 -30 35 -17 0 -22 -21 -12 -48 6 -15 13
-48 16 -74 l6 -48 -39 0 c-62 0 -96 -35 -111 -115 -7 -36 -10 -82 -7 -101 l6
-34 -112 0 -113 0 -57 -58 c-56 -56 -57 -59 -57 -114 0 -36 5 -58 13 -61 6 -3
-19 -6 -58 -7 -70 -2 -70 -2 -35 -15 32 -12 33 -14 9 -14 -14 -1 -36 7 -47 18
-21 17 -22 27 -22 165 0 81 -4 156 -10 166 -5 10 -7 39 -4 64 6 41 9 46 33 46
54 0 307 41 339 55 l32 15 -5 92 c-15 248 -25 574 -25 796 0 297 -17 1002 -26
1055 -6 41 -24 41 -24 -1 0 -15 -5 -34 -10 -42 -7 -11 -10 -5 -11 25 -3 94
-27 182 -49 177 -6 -1 -9 2 -6 7 4 5 -5 22 -20 38 -14 15 -35 41 -47 57 l-20
29 31 -5 c18 -2 32 -2 32 2 0 11 -216 56 -545 114 -170 30 -353 64 -405 74
-52 11 -97 18 -100 15 -9 -8 26 -23 83 -34 87 -18 83 -32 -7 -24 -51 5 -76 4
-76 -3 0 -6 5 -14 10 -17 15 -9 858 -148 955 -157 38 -4 42 -33 5 -32 -14 0
-92 13 -175 27 -240 42 -586 96 -640 100 -27 3 -38 2 -23 0 37 -6 57 -30 32
-39 -11 -4 -30 -16 -43 -28 -17 -15 -25 -17 -28 -8 -14 39 -18 -14 -15 -243 2
-204 0 -255 -10 -255 -10 0 -13 60 -15 289 -2 267 -1 290 15 293 9 3 -2 8 -25
12 -22 4 -49 16 -59 27 -9 10 -28 19 -41 19 -34 0 -24 23 13 31 29 7 26 10
-10 13 -30 2 -32 26 -2 26 14 0 26 5 26 10 0 6 -11 10 -25 10 -16 0 -25 6 -25
15 0 18 45 20 87 4 31 -12 144 -34 363 -74 80 -14 208 -37 285 -51 202 -37
309 -54 313 -49 19 19 -84 75 -138 75 -28 0 -35 20 -8 22 26 2 53 4 83 7 35 4
-47 28 -219 66 -88 19 -179 39 -201 45 -370 90 -648 150 -667 144 -14 -4 -18
0 -18 16 0 20 4 22 38 18 20 -2 123 -23 227 -47 196 -43 241 -54 629 -146 227
-54 303 -66 169 -26 -37 11 -162 43 -278 71 -115 28 -235 57 -265 65 -30 8
-94 21 -141 30 -47 9 -126 26 -175 39 -49 13 -109 27 -134 31 -25 3 -79 17
-121 31 -42 14 -144 40 -225 59 -145 34 -336 79 -619 148 -77 19 -221 54 -320
77 -99 23 -193 47 -210 55 -16 7 -38 16 -49 19 -13 5 -17 12 -12 29 3 12 6 60
6 107 0 59 3 80 10 70 5 -8 10 -52 10 -97 0 -45 5 -85 10 -88 7 -4 10 70 10
215 0 194 2 221 16 227 9 3 51 -3 93 -15 99 -26 309 -76 436 -102 55 -12 117
-26 138 -32 l37 -11 1 -146 c0 -80 4 -168 8 -196 5 -41 8 -21 18 111 10 146 7
213 -11 242 -3 6 -20 13 -36 17 -35 8 -34 7 -15 60 11 30 14 96 15 274 l0 234
23 -20 c48 -45 125 -73 262 -98 121 -22 113 -17 -29 21 -142 37 -184 57 -206
97 -14 26 -14 29 10 47 31 25 64 34 215 61 165 30 558 33 710 6 148 -27 247
-56 273 -79 29 -29 28 -63 -3 -84 -43 -28 -148 -62 -233 -75 -102 -15 -109
-33 -9 -23 102 9 205 38 260 71 61 36 69 71 41 171 -4 13 -2 22 5 22 6 0 11
-9 11 -20 0 -21 20 -29 20 -7 0 6 5 4 11 -6 6 -9 8 -26 4 -36 -6 -20 9 -38 19
-22 3 5 6 162 6 350 1 210 5 341 10 341 6 0 10 -181 10 -480 0 -420 2 -480 15
-480 12 0 15 18 15 106 0 67 4 103 10 99 6 -3 10 -1 10 6 0 7 10 9 29 6 37 -8
51 8 51 57 0 23 5 48 10 56 7 10 10 -37 8 -153 -2 -128 0 -167 10 -167 9 0 12
193 12 933 0 514 3 937 7 940 3 4 444 7 979 7 769 0 973 -3 977 -12z m800 0
c12 -37 2 -38 -314 -38 -275 0 -310 2 -316 16 -3 9 0 20 8 25 8 5 150 9 316 9
232 0 302 -3 306 -12z m1457 -143 c0 -42 -4 -64 -10 -60 -6 3 -8 25 -5 48 6
44 6 45 -25 -25 -9 -19 -9 -17 -5 14 7 46 -9 58 -24 18 -14 -41 -24 -38 -19 5
2 19 0 35 -4 35 -4 0 -8 -7 -8 -15 0 -28 -104 -15 -130 16 -3 3 -36 6 -75 7
-38 0 -122 1 -185 3 -106 3 -101 4 65 9 99 3 235 6 303 8 l122 3 0 -66z m-720
-160 c134 -67 296 -240 380 -405 52 -102 80 -224 41 -176 -6 7 -31 21 -55 30
-39 15 -44 20 -44 49 0 71 -93 258 -170 343 -51 55 -152 129 -207 150 -43 16
-45 18 -28 34 10 9 20 14 23 10 3 -4 30 -20 60 -35z m-4520 -62 c158 -117 274
-271 336 -446 27 -79 27 -100 -1 -77 -8 7 -30 20 -48 30 -23 13 -34 26 -38 51
-36 201 -195 411 -371 487 -60 26 -78 48 -33 40 14 -3 28 -2 30 3 3 4 15 -1
28 -12 12 -11 56 -45 97 -76z m-740 80 c0 -5 -35 -25 -78 -45 -168 -81 -308
-269 -338 -457 -6 -36 -12 -44 -42 -57 -20 -8 -44 -22 -54 -31 -10 -9 -20 -14
-23 -12 -7 8 35 140 61 192 83 163 244 335 369 393 48 23 105 32 105 17z
m7726 -95 c-4 -57 -13 -173 -21 -258 -7 -85 -19 -218 -25 -295 -26 -307 -21
-278 -60 -297 -19 -9 -60 -26 -90 -37 -30 -10 -86 -31 -125 -45 -38 -14 -176
-62 -305 -106 -129 -45 -279 -97 -334 -116 -54 -19 -101 -33 -104 -30 -5 6 57
791 64 810 3 6 82 47 177 91 95 43 213 98 262 121 50 23 158 73 240 112 83 38
186 88 230 110 44 23 84 41 89 42 5 0 6 -44 2 -102z m-3136 88 c0 -2 -30 -18
-67 -36 -169 -84 -345 -336 -344 -493 0 -35 -4 -40 -37 -54 -20 -8 -45 -22
-54 -31 -25 -21 -23 -6 7 84 42 124 116 253 195 340 91 100 224 192 278 194
12 0 22 -2 22 -4z m-6646 -139 c109 -110 168 -244 168 -383 0 -76 -25 -174
-45 -174 -7 0 -6 -4 3 -10 10 -7 11 -10 2 -10 -7 0 -17 -11 -22 -25 -5 -14
-16 -25 -24 -25 -8 0 -17 -6 -20 -12 -3 -10 -8 -9 -18 3 -7 9 -28 18 -47 21
-26 4 -35 1 -38 -13 -10 -37 -95 -42 -109 -6 -2 7 0 26 6 42 9 24 8 30 -7 39
-63 35 -136 172 -155 289 -10 67 -9 84 5 130 9 30 17 62 17 71 0 12 5 16 14
13 8 -3 22 4 33 15 10 11 28 24 41 29 12 5 26 19 31 32 15 40 41 59 69 52 13
-3 57 -38 96 -78z m9870 -9 c-4 -24 -8 -140 -10 -258 -4 -239 -6 -275 -16
-286 -5 -4 -8 -20 -8 -35 0 -15 -5 -31 -11 -35 -8 -5 -10 4 -7 29 2 20 0 33
-4 31 -12 -8 -10 44 13 261 11 110 23 230 26 268 3 37 10 67 15 67 6 0 7 -17
2 -42z m-4821 -265 c4 -54 3 -90 -4 -93 -6 -4 -9 -52 -7 -121 l3 -114 70 -6
70 -5 -72 -2 -73 -2 0 -68 c0 -38 2 -71 5 -74 12 -12 110 17 110 32 0 11 10
14 40 13 22 -1 96 -3 165 -3 137 -1 269 -15 283 -29 5 -5 -10 -5 -34 1 -57 13
-334 3 -459 -17 -157 -25 -163 -27 -207 -55 -48 -32 -52 -27 -45 53 4 49 16
61 27 27 3 -11 11 -20 17 -20 5 0 8 -6 5 -14 -4 -10 2 -12 26 -7 l32 7 0 74 0
75 -35 -3 c-19 -2 -53 -12 -74 -22 -22 -11 -43 -17 -48 -14 -19 12 53 51 103
57 29 4 53 8 56 10 2 2 4 53 6 112 1 79 -1 109 -10 112 -20 7 -15 57 7 76 15
12 20 29 20 62 0 79 17 48 23 -42z m-2458 -83 c299 -26 565 -103 565 -164 0
-30 -71 -90 -136 -114 -95 -34 -202 -60 -315 -77 -59 -8 -109 -15 -112 -15 -4
0 -4 -6 -1 -14 3 -8 -2 -17 -13 -20 -23 -8 -79 -60 -122 -115 -19 -24 -47 -82
-65 -134 -30 -86 -34 -92 -76 -114 -24 -13 -45 -22 -46 -20 -6 6 58 174 82
214 28 48 30 61 9 43 -24 -20 -82 -129 -102 -190 l-17 -54 -9 36 c-5 20 -17
44 -27 53 -20 18 -172 83 -275 117 -174 57 -352 122 -363 131 -7 5 -11 24 -10
41 2 39 -7 54 -38 66 -27 11 -33 47 -8 57 12 5 13 7 2 14 -7 5 -22 2 -35 -7
-15 -9 -23 -10 -23 -3 0 6 9 13 20 16 11 3 20 9 20 13 0 5 -9 12 -20 15 -11 3
-20 14 -20 23 0 9 -3 28 -7 41 -4 17 -3 22 5 17 7 -4 12 -15 12 -26 0 -22 55
-72 110 -100 76 -39 348 -101 435 -99 26 1 9 6 -50 15 -96 15 -255 61 -341 99
-109 48 -134 106 -64 150 66 42 283 89 495 108 91 8 429 6 540 -3z m4747 -15
c209 -27 409 -91 423 -134 22 -70 -166 -153 -480 -211 l-110 -20 90 6 c74 4
199 26 364 62 17 3 22 1 19 -9 -3 -8 -11 -14 -19 -14 -11 0 -13 -12 -11 -48 3
-36 0 -47 -10 -45 -7 2 -13 -5 -13 -14 0 -10 -5 -22 -12 -29 -6 -6 -9 -17 -7
-24 3 -7 -4 -20 -16 -28 -15 -11 -18 -16 -8 -20 7 -3 -5 -6 -27 -7 -35 -2 -37
-3 -15 -10 30 -9 38 -5 -154 -69 -82 -27 -157 -58 -166 -68 -16 -16 -18 -49
-24 -268 -3 -137 -6 -270 -7 -295 -1 -38 -2 -41 -9 -20 -7 23 -8 23 -9 3 -1
-13 -10 -24 -22 -28 -14 -5 -18 -10 -11 -17 7 -7 7 -16 -1 -29 -9 -15 -9 -24
1 -39 7 -11 8 -20 4 -20 -9 0 -32 -44 -32 -60 0 -6 8 -11 18 -11 16 -1 16 -2
0 -6 -36 -9 -15 -113 23 -113 5 0 9 -7 9 -15 0 -8 -3 -15 -6 -15 -3 0 -12 7
-20 15 -17 17 -34 20 -34 6 0 -5 9 -13 20 -16 16 -5 20 -15 20 -46 0 -22 4
-38 9 -35 5 4 7 -4 4 -15 -4 -14 0 -25 10 -31 25 -14 6 -52 -29 -58 -27 -5
-29 -8 -32 -60 -5 -84 11 -314 18 -265 6 40 6 40 19 14 10 -19 21 -26 49 -27
36 -2 65 8 63 22 -1 3 -1 32 0 64 1 43 3 51 9 32 8 -25 8 -25 9 -2 1 13 -4 33
-10 44 -9 18 -9 20 4 15 9 -3 17 -2 19 2 2 4 29 11 61 15 39 4 56 3 52 -4 -3
-5 -19 -10 -35 -10 -34 0 -62 -9 -55 -19 2 -4 59 0 127 11 342 51 395 58 416
58 23 0 23 -2 22 -87 -1 -49 0 -133 1 -188 l2 -100 8 75 c9 90 18 218 19 280
0 33 3 41 10 30 5 -8 10 -38 10 -65 0 -42 4 -52 22 -60 26 -11 33 -33 18 -55
-7 -12 -13 -13 -28 -3 -18 11 -19 9 -14 -35 6 -58 12 -67 12 -19 0 29 4 37 18
37 14 0 19 -9 20 -37 3 -36 16 -63 33 -63 4 0 13 16 20 35 7 19 15 35 19 35 3
0 6 16 7 35 2 19 4 38 4 42 6 38 -2 49 -32 45 -28 -4 -30 -2 -27 19 4 30 33
27 59 -4 15 -17 18 -40 19 -108 0 -47 3 -202 6 -345 l5 -259 -32 38 c-45 53
-60 59 -183 71 l-108 11 -17 40 c-24 59 -51 96 -80 107 -14 5 -72 14 -129 18
-106 9 -135 17 -421 119 -62 23 -130 41 -150 40 -33 0 -31 -2 24 -18 33 -10
85 -28 115 -41 189 -78 338 -120 428 -120 118 0 169 -29 199 -112 19 -54 19
-54 130 -62 180 -12 233 -96 163 -256 -17 -38 -30 -86 -30 -108 0 -50 44 -113
106 -150 25 -15 80 -50 122 -77 175 -114 180 -122 157 -233 -50 -232 -120
-378 -226 -468 -53 -44 -52 -35 3 25 73 82 121 173 153 297 42 162 35 222 -34
282 -41 36 -168 120 -248 164 -72 39 -92 55 -54 43 35 -11 32 13 -4 52 -34 35
-36 42 -31 81 3 24 15 65 27 90 52 115 50 108 28 136 -38 49 -139 81 -213 69
-34 -5 -39 -11 -71 -78 -40 -82 -61 -107 -71 -81 -3 9 -10 13 -15 10 -5 -3
-16 2 -25 10 -13 14 -11 23 21 93 26 56 32 79 23 84 -6 4 -50 13 -96 20 -80
12 -108 10 -244 -14 -10 -2 -26 -11 -36 -20 -10 -9 -22 -17 -27 -17 -5 0 1 9
13 20 37 35 29 69 -30 127 -29 28 -77 67 -105 87 l-52 36 -58 -47 c-32 -26
-111 -94 -176 -153 -166 -148 -201 -177 -196 -163 8 24 133 164 200 224 74 65
79 79 53 135 -14 30 -21 34 -54 34 -85 0 -291 -88 -393 -168 -67 -53 -60 -56
-121 65 -24 46 -35 80 -31 91 5 13 12 7 31 -30 35 -69 61 -73 35 -5 -5 13 -16
46 -24 74 l-15 51 45 72 c33 53 49 95 62 154 l17 81 44 7 c24 4 53 17 65 28
l20 21 -38 -16 c-50 -21 -74 -12 -86 31 -11 41 0 88 28 118 22 24 51 105 51
141 0 14 5 25 10 25 6 0 10 -15 10 -34 0 -19 5 -47 10 -62 l11 -27 15 22 c30
43 56 135 55 194 -1 57 -18 130 -47 195 -7 17 -12 32 -9 32 2 0 30 -7 62 -15
66 -17 113 -19 113 -5 0 6 -11 10 -23 10 -30 0 -136 35 -200 66 -28 13 -52 23
-53 21 -2 -2 10 -30 26 -63 29 -59 29 -59 24 -19 l-5 40 26 -40 c60 -93 77
-214 46 -324 -25 -89 -31 -98 -31 -42 0 68 -28 171 -91 338 -60 158 -83 198
-186 321 -25 28 -42 52 -39 52 13 0 135 -99 184 -150 65 -66 60 -55 -32 74
-77 109 -146 182 -208 224 -49 32 -35 41 19 13 71 -36 140 -98 201 -183 86
-119 301 -308 351 -308 9 0 -3 13 -27 29 -125 83 -298 258 -395 400 -71 104
-181 201 -229 201 -10 0 -18 5 -18 10 0 6 11 10 24 10 27 0 163 -47 184 -63 7
-5 15 -7 18 -4 10 10 -70 81 -124 110 -58 31 -140 39 -180 18 -18 -9 -22 -9
-22 2 0 21 55 41 111 39 33 -1 66 -10 101 -29 62 -34 150 -118 167 -162 8 -17
18 -31 23 -31 6 0 7 8 3 18 -24 57 -26 55 76 48 237 -17 413 -47 480 -82 49
-25 46 -8 -4 23 -39 24 -46 34 -52 71 -12 81 -134 282 -170 282 -7 0 -12 7
-11 16 1 14 -23 21 -131 39 -227 39 -356 85 -406 144 -38 45 -27 64 56 100
111 47 318 91 518 111 124 12 486 3 621 -15z m-6622 0 c38 -19 111 -107 146
-175 27 -52 28 -62 29 -185 0 -143 -8 -169 -66 -226 -33 -32 -70 -37 -128 -16
-47 16 -72 41 -107 107 -16 30 -33 57 -37 58 -4 2 -4 9 1 15 6 8 6 39 0 82
-15 103 -6 183 27 243 15 28 24 55 21 60 -9 14 9 23 29 16 13 -5 14 -8 3 -15
-10 -7 -9 -9 5 -9 12 0 17 8 17 30 0 34 15 38 60 15z m5182 -153 c46 -64 65
-110 79 -185 14 -76 -2 -144 -53 -222 -39 -61 -50 -41 -17 35 12 28 19 53 16
56 -3 3 -19 -15 -37 -41 -18 -26 -34 -44 -37 -41 -3 2 5 35 18 73 18 52 23 89
23 158 0 79 -4 98 -32 158 -17 37 -36 67 -42 67 -5 0 -10 4 -10 9 0 21 61 -23
92 -67z m-917 38 c-3 -5 -22 -10 -41 -10 -33 0 -98 -33 -120 -61 -39 -48 -51
-258 -19 -320 19 -35 13 -48 -10 -29 -59 49 -82 192 -46 276 30 69 86 122 147
139 60 16 97 18 89 5z m-1807 -123 c-1 -7 4 -30 11 -52 11 -32 25 -47 69 -75
97 -62 212 -227 250 -360 5 -19 13 -44 18 -54 6 -16 -2 -13 -38 13 -40 29 -46
38 -52 80 -10 73 -68 185 -129 245 -53 53 -121 96 -152 96 -9 0 -13 5 -10 10
3 6 15 10 27 10 14 0 18 5 14 16 -3 9 -6 19 -6 24 0 5 -7 16 -16 25 -9 8 -13
22 -10 31 7 17 28 9 24 -9z m1057 -169 c4 -15 19 -39 33 -54 54 -54 73 -58
275 -64 183 -5 189 -6 208 -29 10 -13 19 -27 19 -31 0 -4 -21 -10 -47 -14 -49
-6 -147 -35 -141 -41 2 -2 35 -9 73 -15 39 -6 74 -15 79 -20 4 -4 -32 -11 -80
-14 -288 -19 -299 -21 -392 -69 -97 -50 -214 -81 -270 -72 -44 8 -92 25 -92
34 0 3 38 6 83 6 81 0 87 2 198 56 63 31 140 66 172 79 31 13 57 27 57 31 0 4
-14 12 -31 18 -53 18 -116 78 -143 134 -25 52 -31 96 -26 172 3 36 4 34 11
-20 4 -33 10 -72 14 -87z m1154 -30 c51 -24 179 -148 229 -220 42 -61 42 -74
0 -17 -17 24 -63 76 -102 116 -95 95 -120 103 -265 79 -100 -17 -112 -17 -157
-3 -27 9 -64 19 -83 22 -78 16 57 42 228 44 89 1 112 -2 150 -21z m-3716 -54
c233 -74 473 -157 510 -175 l37 -19 0 -294 c0 -351 5 -336 -106 -311 -208 47
-571 139 -581 148 -10 7 -13 84 -13 326 0 174 3 326 6 339 4 12 13 22 21 22 8
0 65 -16 126 -36z m3438 -30 c139 -84 290 -286 405 -542 45 -100 50 -117 35
-126 -4 -3 -21 27 -36 67 -15 40 -50 116 -78 170 -145 286 -286 421 -454 435
l-66 5 24 20 c33 27 96 17 170 -29z m2767 -307 c2 -261 0 -321 -12 -332 -13
-13 -314 -76 -525 -109 -136 -22 -131 -28 -131 153 0 81 -3 209 -7 283 l-6
136 31 16 c17 9 91 32 164 51 73 19 203 55 288 79 85 25 164 44 175 43 19 -2
20 -10 23 -320z m-8225 154 c84 -32 182 -73 220 -90 l67 -30 0 -226 c0 -143
-4 -225 -10 -225 -6 0 -10 78 -10 215 0 195 -2 215 -18 224 -38 20 -387 161
-400 161 -11 0 -13 -40 -11 -212 1 -124 -2 -212 -7 -211 -5 2 -10 104 -12 228
-2 199 -1 225 13 225 9 0 84 -27 168 -59z m5769 -110 c38 -63 95 -163 125
-223 47 -94 57 -107 76 -104 12 3 58 8 102 12 44 4 88 8 98 9 18 2 35 -20 24
-31 -3 -3 -45 -9 -94 -14 -48 -5 -104 -12 -124 -16 -35 -6 -35 -6 -60 52 -71
170 -156 323 -243 439 l-30 40 28 -25 c15 -13 59 -76 98 -139z m-5314 -37 c25
-17 29 -52 7 -80 -11 -15 -14 -57 -15 -206 0 -119 4 -188 10 -188 6 0 10 18
10 40 0 42 1 43 38 34 19 -6 22 -13 22 -56 l0 -51 -35 6 c-19 3 -47 12 -62 19
-30 15 -28 -13 -18 274 4 101 2 113 -15 129 -24 22 -26 58 -4 79 19 20 34 20
62 0z m4032 -18 c0 -2 -37 -43 -81 -90 -58 -61 -92 -89 -118 -96 -61 -17 -69
-14 -66 23 2 17 4 57 5 87 2 30 5 43 7 28 3 -18 9 -25 19 -21 8 3 14 0 14 -6
0 -6 -7 -11 -15 -11 -12 0 -15 -10 -14 -44 2 -31 6 -43 15 -39 10 4 10 9 2 22
-8 13 -8 23 0 37 11 18 11 18 12 -2 0 -12 7 -21 15 -21 8 0 15 6 15 13 0 7 6
14 13 17 10 4 10 7 0 18 -11 11 -13 10 -13 -4 0 -9 -4 -17 -10 -17 -17 0 -11
25 10 38 12 7 20 8 20 2 0 -18 18 -11 52 20 18 17 47 35 63 39 34 10 55 13 55
7z m5438 -42 l42 -25 0 -64 c0 -62 -12 -91 -24 -59 -3 9 -6 33 -6 54 0 53 -48
100 -101 100 -20 0 -119 -25 -220 -55 -101 -30 -190 -55 -196 -55 -28 0 -41
-46 -47 -173 -4 -70 -11 -138 -16 -150 -15 -35 0 261 16 315 5 18 19 23 244
88 80 23 156 45 170 50 35 13 88 3 138 -26z m-9237 -63 c46 -16 125 -45 174
-64 l90 -35 6 -144 c4 -79 7 -182 8 -230 1 -60 5 -88 13 -88 6 0 9 3 5 6 -6 7
19 64 29 64 4 0 15 -25 28 -67 7 -21 4 -23 -28 -23 -20 0 -44 -4 -54 -9 -25
-13 -115 -43 -132 -45 -11 -1 -17 13 -21 54 -7 71 -15 87 -45 94 -13 4 -24 13
-24 21 0 18 8 19 43 3 28 -14 47 -53 47 -99 0 -36 27 -39 36 -4 3 13 9 23 13
22 3 -1 17 6 31 16 l25 17 0 196 0 196 -168 64 c-93 35 -173 62 -178 59 -4 -3
-7 -98 -5 -210 2 -167 1 -205 -10 -205 -11 0 -14 42 -14 220 l0 220 23 0 c13
0 62 -13 108 -29z m468 -165 l68 -35 7 -62 c3 -34 6 -103 6 -152 0 -71 3 -88
12 -79 15 15 94 16 103 2 4 -6 11 -8 16 -4 6 3 15 -8 22 -25 15 -41 24 -39 23
4 -1 22 -6 35 -14 35 -10 0 -9 4 2 16 13 13 16 42 16 159 0 85 4 146 10 150 7
4 10 -66 11 -202 0 -114 3 -234 5 -265 3 -49 1 -58 -13 -58 -14 0 -303 77
-362 96 -7 2 -10 11 -7 20 3 9 6 110 6 225 0 136 4 209 10 209 6 0 41 -15 79
-34z m9295 -86 c32 -39 41 -85 26 -140 -15 -56 -36 -88 -71 -106 -58 -30 -112
-13 -135 41 -16 40 -19 95 -4 95 6 0 10 -16 10 -35 0 -41 36 -85 71 -85 34 0
77 31 95 68 20 42 14 114 -11 142 -29 32 -90 27 -126 -9 -19 -20 -29 -25 -29
-14 0 8 13 28 29 44 24 23 38 29 74 29 38 0 49 -5 71 -30z m-1119 -20 c-8 -12
-30 -578 -30 -757 0 -72 -4 -129 -9 -126 -8 5 4 874 13 891 0 1 8 2 17 2 8 0
12 -4 9 -10z m-8440 -20 c11 -17 -37 -27 -118 -25 -91 3 -106 -9 -63 -54 21
-22 43 -31 99 -41 70 -13 97 -24 85 -35 -10 -10 -128 7 -141 20 -7 6 -24 15
-39 18 -15 4 -39 18 -54 32 -24 23 -26 27 -14 54 14 34 25 37 152 40 49 0 90
-3 93 -9z m7275 -320 l0 -259 -32 -5 c-317 -48 -515 -72 -525 -64 -10 8 -13
68 -13 238 0 126 3 235 6 244 4 11 19 16 43 16 20 0 133 20 251 44 118 25 227
45 243 45 l27 1 0 -260z m-3170 202 c0 -7 14 -48 32 -90 44 -106 141 -215 235
-265 37 -19 99 -56 137 -82 38 -25 82 -49 97 -52 46 -9 25 -20 -50 -27 -39 -3
-101 -13 -138 -22 -50 -12 -95 -14 -172 -10 -57 3 -106 7 -108 10 -17 16 113
64 198 73 33 3 62 9 64 13 2 4 -53 13 -123 20 l-127 12 -80 -31 c-44 -17 -97
-42 -118 -56 -35 -24 -39 -25 -59 -10 -32 21 -38 19 -38 -15 0 -20 -5 -30 -15
-30 -21 0 -19 -26 3 -35 15 -6 14 -8 -6 -16 -20 -8 -23 -15 -20 -53 3 -52 -13
-62 -26 -16 -5 17 -23 43 -41 58 -17 16 -34 36 -38 46 -9 22 44 119 127 232
163 222 191 264 219 322 21 45 32 60 38 50 5 -7 9 -19 9 -26z m-5075 -67 c55
-18 157 -51 226 -73 153 -49 199 -68 199 -81 0 -19 -24 -13 -242 58 -117 38
-235 76 -263 84 -39 11 -51 19 -53 37 -3 19 0 22 15 16 10 -4 63 -22 118 -41z
m7655 -254 l0 -197 -39 -1 c-39 -2 -39 -2 -43 40 -3 25 0 48 7 57 7 8 16 30
20 48 3 17 11 32 16 32 13 0 11 177 -3 199 -6 10 -8 26 -4 36 6 17 7 17 26 0
19 -17 20 -31 20 -214z m-5775 17 l7 -66 -44 9 c-24 5 -58 15 -77 20 -31 11
-33 13 -27 48 3 20 6 61 7 91 0 39 3 49 9 35 7 -19 8 -19 15 -2 6 15 10 16 16
5 7 -11 11 -10 19 2 8 12 10 8 11 -15 2 -27 2 -27 6 -5 8 51 17 55 23 10 l7
-45 3 50 3 50 7 -60 c5 -33 11 -90 15 -127z m-1949 153 c16 -5 90 -28 164 -51
74 -23 162 -50 195 -60 262 -81 454 -144 473 -156 46 -30 10 -32 -71 -4 -194
66 -779 240 -787 235 -4 -3 -4 -24 0 -47 4 -24 11 -79 15 -124 l7 -81 41 -10
c23 -6 132 -34 242 -63 110 -29 265 -67 345 -86 225 -53 204 -42 212 -105 3
-30 11 -137 18 -239 14 -234 28 -431 36 -494 l5 -49 -68 6 c-37 4 -113 11
-168 17 -371 36 -511 50 -521 50 -13 0 -26 38 -16 44 4 2 129 -11 277 -29 149
-18 314 -36 368 -39 l97 -7 0 25 c0 42 -10 56 -41 56 -36 0 -37 -13 -4 -28 26
-12 34 -32 13 -32 -6 0 -38 5 -70 12 -62 13 -80 32 -25 26 23 -2 32 1 32 12 0
9 -10 14 -29 15 -16 0 -31 6 -33 13 -4 9 15 12 71 12 85 0 104 17 24 22 -70 4
-78 28 -9 28 27 0 52 3 54 8 2 4 1 50 -3 102 -5 52 -13 172 -19 265 -7 94 -14
184 -17 201 l-4 30 -213 52 c-116 29 -273 65 -348 82 -75 16 -157 38 -182 47
-26 9 -49 14 -53 11 -3 -4 4 -105 15 -225 12 -120 33 -342 46 -493 38 -417 43
-470 83 -820 36 -317 38 -325 60 -328 28 -4 30 24 2 33 -24 7 -26 23 -5 31 20
8 19 31 -1 42 -19 10 -11 32 11 32 13 0 32 -81 28 -118 -1 -15 -17 -15 481 9
211 10 248 7 233 -19 -4 -5 -102 -12 -219 -16 -261 -8 -517 -24 -530 -32 -12
-8 -8 -68 27 -404 41 -389 55 -514 85 -770 16 -135 36 -303 43 -374 14 -123
16 -131 43 -153 35 -27 26 -41 -11 -17 -37 24 -41 39 -64 225 -31 253 -68 563
-80 674 -6 55 -20 179 -31 275 -11 96 -26 240 -35 320 -8 80 -33 305 -55 500
-23 195 -50 450 -60 565 -11 116 -30 329 -44 475 -14 146 -32 342 -41 435 -9
94 -23 232 -30 309 -22 204 -23 197 41 177z m9845 -14 c53 -36 79 -90 79 -169
0 -37 -5 -91 -11 -120 -12 -57 -53 -151 -72 -166 -14 -11 -155 -41 -352 -75
-5 -1 -10 5 -10 12 0 11 28 20 105 32 58 10 139 26 180 36 70 17 76 21 97 59
30 54 53 168 46 224 -8 59 -24 90 -68 129 -31 27 -43 31 -91 31 -135 0 -227
-115 -241 -299 -5 -60 -8 -70 -15 -50 -23 58 23 223 79 289 72 84 202 116 274
67z m-3746 -17 c9 -14 -13 -49 -48 -79 -47 -39 -105 -136 -129 -215 -17 -55
-22 -98 -22 -188 -1 -65 -4 -118 -8 -118 -5 0 -8 9 -8 19 0 11 -4 22 -9 25 -5
3 -7 15 -4 26 3 11 0 20 -6 20 -17 0 -14 153 5 230 24 106 111 234 184 274 31
18 37 18 45 6z m3715 -29 c63 -44 88 -124 70 -219 -11 -62 -40 -132 -61 -148
-8 -7 -68 -24 -133 -38 -110 -24 -121 -25 -143 -10 -13 8 -28 26 -33 40 -16
40 -12 42 11 5 26 -43 34 -35 13 15 -22 52 -15 172 13 235 26 59 88 121 133
136 43 14 97 7 130 -16z m-8565 -1 c30 -11 287 -81 540 -145 518 -133 753
-191 1140 -280 446 -104 525 -126 525 -145 0 -14 2 -14 -165 25 -82 19 -267
62 -410 95 -143 33 -296 69 -340 80 -44 11 -136 33 -205 49 -118 27 -891 223
-1010 255 -97 26 -135 43 -138 59 -4 20 23 22 63 7z m5351 -28 c137 -100 203
-275 175 -464 -7 -46 -23 -105 -35 -133 -25 -54 -89 -132 -137 -166 -52 -37
-43 -13 20 51 75 76 110 146 122 242 14 115 -13 216 -92 339 -16 25 -29 53
-29 61 0 8 -19 34 -42 56 -48 48 -39 55 18 14z m-426 -56 c0 -25 4 -56 10 -70
6 -17 6 -27 -1 -32 -17 -10 -73 -104 -98 -163 -13 -30 -26 -84 -31 -120 l-7
-66 -2 52 c-1 52 -14 74 -33 55 -6 -6 -17 -8 -24 -5 -8 3 -18 -5 -23 -18 -8
-21 -10 -18 -10 20 l-1 44 39 -7 c47 -7 60 6 68 63 7 51 -16 91 -52 91 -14 0
-25 5 -25 11 0 22 91 139 128 164 52 36 62 33 62 -19z m3174 -146 c1 -113 -8
-152 -38 -172 -17 -12 -102 -9 -130 3 -25 12 -46 54 -46 91 0 45 72 138 107
138 23 0 70 -31 82 -54 9 -16 10 0 7 69 -3 67 -1 84 6 65 6 -14 11 -77 12
-140z m-7886 -95 c37 -9 83 -20 102 -26 19 -5 157 -36 305 -69 149 -33 288
-65 310 -70 58 -15 322 -71 376 -80 25 -5 128 -27 230 -50 101 -23 272 -59
379 -81 251 -51 270 -56 270 -75 0 -9 -6 -14 -13 -11 -24 9 -192 47 -412 92
-716 148 -835 174 -1185 254 -168 38 -344 77 -392 86 -59 12 -88 22 -88 31 0
18 35 18 118 -1z m5025 -6 c61 -28 74 -127 23 -178 -22 -21 -36 -26 -77 -26
-45 0 -54 4 -80 33 -43 47 -41 102 5 148 37 37 82 45 129 23z m-4878 -119
c452 -84 1820 -361 1825 -370 3 -5 7 -184 8 -397 3 -362 12 -956 28 -1735 l7
-327 -24 -5 c-13 -3 -44 -8 -69 -11 -25 -3 -130 -19 -235 -35 -104 -16 -221
-34 -260 -40 -38 -5 -182 -28 -320 -50 -556 -88 -764 -120 -840 -130 -44 -6
-101 -18 -128 -26 -47 -16 -117 -13 -117 5 0 17 31 33 52 28 13 -4 50 0 83 7
33 8 83 17 110 20 73 10 610 91 830 126 105 16 271 41 370 56 99 14 257 38
350 53 l170 26 -3 140 c-3 199 -21 1308 -28 1836 l-6 446 -217 42 c-119 23
-385 75 -591 116 -383 75 -741 143 -864 164 -56 10 -71 10 -77 -1 -15 -23 -10
-27 39 -33 97 -13 182 -37 182 -52 0 -9 -6 -12 -17 -9 -59 18 -245 55 -255 51
-7 -3 -20 0 -28 5 -13 8 -13 11 -1 19 21 14 3 32 -25 25 -18 -5 -24 -2 -24 10
0 22 -65 49 -102 44 -16 -3 -31 -1 -34 4 -3 4 -16 8 -30 8 -13 0 -24 6 -24 13
0 19 8 25 28 21 9 -2 116 -22 237 -44z m4108 -47 c10 -116 69 -244 158 -346
23 -26 83 -79 135 -117 51 -38 112 -88 136 -110 30 -27 63 -46 109 -60 37 -11
71 -25 76 -32 12 -15 30 -144 43 -318 11 -135 2 -590 -11 -590 -9 0 -97 101
-173 198 -27 34 -69 76 -94 92 -25 16 -65 53 -89 81 -37 44 -43 56 -38 81 6
24 51 131 152 358 45 101 39 104 -36 19 -120 -135 -300 -265 -524 -378 -192
-97 -257 -105 -330 -41 -38 33 -61 95 -55 151 3 33 5 34 41 32 20 -1 37 0 37
3 0 3 -10 19 -21 36 -27 38 -59 50 -100 38 -35 -10 -69 2 -69 25 0 26 40 37
126 33 51 -2 83 1 82 7 -1 14 -148 66 -175 62 -12 -2 -20 0 -17 4 3 5 -2 9
-10 9 -9 0 -16 -5 -16 -11 0 -6 -8 -8 -17 -5 -10 3 -31 8 -48 11 -24 5 -27 4
-15 -5 13 -10 13 -11 0 -7 -20 5 -24 41 -8 77 10 23 20 30 40 30 22 0 32 10
57 53 42 74 46 98 22 129 -26 32 -27 47 -3 26 39 -34 122 -49 195 -36 93 17
105 46 81 183 -30 174 -30 180 2 210 16 15 49 39 73 53 53 31 240 110 262 111
13 1 17 -12 22 -56z m-5469 37 c142 -23 234 -70 109 -55 -85 11 -54 -8 60 -35
53 -12 97 -27 97 -32 0 -12 -32 -8 -207 23 -109 19 -133 27 -133 41 0 9 6 19
13 22 8 3 5 11 -12 25 -28 25 -19 26 73 11z m4810 -84 c57 -87 83 -113 99 -97
8 8 7 11 -3 11 -8 0 -25 20 -37 44 -22 44 -21 65 4 45 10 -9 13 -6 13 12 0 16
9 28 24 35 22 10 25 8 40 -25 21 -47 76 -277 76 -316 0 -36 -40 -65 -90 -65
-35 0 -70 15 -70 31 0 12 -102 232 -111 239 -12 10 -29 74 -29 111 0 32 8 45
30 48 3 0 27 -32 54 -73z m-286 -78 c19 -31 54 -138 68 -203 l6 -30 14 25 c7
14 21 50 30 80 25 90 24 88 39 60 8 -14 14 -31 15 -37 0 -7 30 -78 66 -158 78
-172 78 -173 -35 -171 -64 0 -76 -3 -91 -21 l-18 -22 -43 22 c-58 30 -69 49
-46 84 43 67 62 114 49 122 -29 17 -130 270 -117 291 10 16 41 -6 63 -42z
m-4373 -18 c50 -11 159 -27 245 -35 131 -14 150 -17 150 -26 0 -12 -39 -11
-170 1 -183 17 -202 20 -239 29 -20 6 -73 13 -118 17 -68 5 -83 10 -83 23 0
15 10 16 83 10 45 -4 105 -12 132 -19z m1390 -60 c6 -4 29 -11 53 -15 33 -5
42 -4 40 7 -2 8 5 12 17 11 80 -10 119 -19 115 -28 -3 -5 -12 -9 -20 -7 -8 1
-31 5 -50 8 l-35 5 33 -17 c33 -17 29 -33 -9 -34 -9 0 -19 -6 -22 -14 -4 -10
4 -15 24 -18 16 -3 29 -1 29 4 0 16 186 -6 208 -25 27 -21 -6 -28 -69 -13 -36
8 -85 12 -111 9 -33 -4 -55 -1 -70 9 -13 8 -46 18 -74 22 -57 7 -114 31 -114
48 0 7 12 8 33 3 58 -13 99 -16 93 -7 -3 5 -31 14 -63 21 -87 19 -93 21 -93
37 0 12 8 13 38 8 20 -4 42 -10 47 -14z m8840 -92 c-4 -24 -11 -59 -17 -78 -6
-19 -12 -41 -14 -47 -2 -8 -19 -13 -41 -13 -28 0 -34 -3 -23 -10 8 -5 23 -7
33 -4 26 8 26 -34 -3 -141 -10 -38 -30 -136 -44 -217 -30 -171 -93 -473 -106
-505 -7 -17 -18 -23 -39 -23 -17 0 -42 -5 -56 -12 -26 -12 -27 -15 -61 -153
-10 -38 -21 -75 -27 -82 -5 -7 -6 -17 -3 -22 4 -5 3 -12 -1 -14 -5 -3 -175
-12 -378 -21 -402 -17 -712 -34 -762 -42 -17 -2 -34 -1 -37 4 -2 4 4 46 15 93
10 46 23 102 28 124 5 22 29 130 55 240 75 321 103 442 132 569 25 113 28 119
58 131 28 12 339 77 571 119 44 8 132 26 195 39 63 14 174 37 245 52 72 14
153 32 180 39 28 8 63 15 78 15 28 1 29 0 22 -41z m-10265 -55 c25 -3 48 -6
53 -5 15 4 97 -21 97 -28 0 -5 25 -14 55 -20 30 -6 55 -14 55 -18 0 -12 -104
-1 -120 13 -20 17 -215 41 -205 25 3 -4 39 -11 80 -15 71 -6 75 -8 75 -31 0
-13 5 -24 10 -24 6 0 10 5 10 10 0 6 4 10 9 10 5 0 8 -7 7 -16 -1 -13 11 -17
59 -20 170 -11 225 -17 230 -24 10 -17 -14 -19 -96 -11 -46 5 -145 15 -219 22
-74 6 -142 13 -150 14 -8 2 -57 8 -107 15 -115 16 -126 35 -15 26 42 -3 96 -9
120 -12 25 -4 42 -2 42 4 0 5 -35 15 -77 21 -82 12 -92 16 -77 31 5 5 24 6 47
0 28 -6 37 -5 34 3 -2 7 -19 14 -37 17 -18 3 -35 11 -38 18 -4 13 48 11 158
-5z m-105 -163 c23 -3 39 -12 37 -18 -1 -7 2 -12 8 -12 6 0 10 -6 10 -13 0
-10 -17 -12 -67 -10 -41 1 -58 -1 -44 -5 35 -11 41 -36 7 -30 -15 3 -29 1 -32
-3 -3 -5 10 -10 28 -10 58 -2 63 -4 66 -23 3 -15 0 -17 -14 -12 -9 4 -44 9
-76 13 -59 6 -81 19 -58 33 9 5 9 9 1 14 -18 12 -12 26 12 27 22 2 22 2 1 6
-21 4 -38 38 -28 54 4 8 70 3 149 -11z m6436 -200 c15 0 39 68 39 110 0 28 13
25 33 -9 9 -16 56 -67 104 -115 l86 -85 -36 -38 c-20 -21 -66 -81 -101 -133
-36 -52 -70 -100 -75 -106 -17 -20 -176 -305 -225 -403 -26 -51 -49 -91 -50
-90 -2 2 1 72 6 154 12 183 4 463 -17 605 -28 196 -29 204 -17 196 7 -4 15
-24 18 -45 8 -49 18 -65 37 -58 16 6 37 79 37 129 l0 32 73 -72 c40 -39 79
-72 88 -72z m-2602 51 c28 -38 51 -76 51 -85 0 -25 -28 -31 -50 -11 -18 17
-19 16 -22 -46 -3 -57 -6 -65 -30 -79 -25 -13 -29 -13 -45 3 -13 13 -17 31
-15 72 l2 55 -40 -6 c-34 -6 -40 -4 -40 11 0 27 37 81 83 120 22 19 44 35 48
35 4 0 30 -31 58 -69z m-2024 34 c108 -9 148 -14 175 -21 14 -3 60 -8 103 -10
43 -2 82 -6 87 -9 22 -13 8 -25 -30 -25 -23 0 -40 5 -40 11 0 8 -4 8 -14 0
-10 -8 -27 -9 -62 -2 -27 6 -83 13 -124 15 -240 18 -239 18 -219 42 6 8 21 12
33 9 11 -3 53 -7 91 -10z m4361 -495 c5 -190 2 -307 -10 -460 -20 -259 -33
-452 -41 -605 -7 -144 -40 -611 -60 -860 -16 -202 -32 -680 -26 -796 3 -86 -3
-119 -25 -119 -12 0 -14 21 -9 133 3 72 10 260 16 417 5 157 16 346 24 420 8
74 19 214 25 310 5 96 12 189 15 205 3 17 9 125 15 240 11 209 30 475 51 695
13 137 17 431 7 625 -4 98 -4 126 3 95 5 -25 12 -160 15 -300z m-4556 165 c36
-3 85 -7 110 -10 25 -3 74 -8 110 -11 44 -3 69 -10 79 -22 8 -10 15 -13 17 -6
6 13 90 3 86 -11 -2 -11 -38 -11 -177 -1 -167 11 -230 17 -290 27 -33 6 -69
12 -79 13 -11 1 -21 7 -24 14 -4 13 32 21 73 16 17 -2 60 -6 95 -9z m155 -155
c277 -23 308 -27 302 -44 -4 -13 -127 -16 -197 -4 -51 8 -181 17 -252 18 -41
0 -48 3 -48 20 0 24 16 25 195 10z m110 -81 c3 -4 18 -4 34 1 16 4 33 4 37 0
11 -10 97 -20 179 -21 85 0 155 -9 155 -19 0 -11 -289 -10 -295 0 -3 4 -42 6
-88 4 -60 -3 -88 -1 -102 10 -13 9 -28 11 -46 6 -15 -5 -30 -5 -34 -2 -3 3
-18 6 -32 7 -14 0 -28 5 -30 11 -4 13 215 16 222 3z m1729 -39 c7 -7 4 -10 -6
-10 -9 0 -20 -5 -24 -11 -4 -8 9 -10 42 -8 94 5 204 -1 204 -11 0 -6 -32 -9
-77 -9 -109 2 -121 1 -104 -10 8 -5 28 -7 45 -4 17 2 49 0 71 -5 37 -9 35 -10
-35 -11 -96 -2 -75 -21 23 -21 51 0 68 -3 64 -12 -2 -9 -25 -12 -75 -11 -42 2
-72 -2 -72 -7 0 -6 31 -10 71 -10 52 0 70 -3 66 -12 -2 -9 -24 -12 -70 -11
-75 2 -89 7 -80 28 3 10 -1 15 -15 15 -12 0 -24 5 -27 10 -3 6 -1 10 4 10 6 0
11 5 11 10 0 6 -9 10 -19 10 -10 0 -21 7 -25 15 -3 8 -11 15 -18 15 -19 0 -61
48 -53 60 7 11 85 4 99 -10z m-1559 -145 c72 -4 164 -9 205 -10 41 -2 77 -4
80 -5 3 -1 21 -1 41 0 21 1 40 -3 44 -9 8 -14 3 -14 -120 -12 -328 6 -367 6
-377 -6 -8 -10 -13 -9 -25 2 -11 12 -32 14 -84 11 -68 -4 -86 3 -76 27 5 14
91 14 312 2z m5975 -330 c88 -179 216 -619 231 -794 5 -63 7 -116 5 -118 -2
-2 -13 33 -25 79 -12 46 -30 115 -41 153 -11 39 -31 126 -46 195 -31 151 -94
329 -180 509 -35 74 -64 137 -64 140 1 20 87 -97 120 -164z m135 -50 c81 -108
181 -294 220 -410 59 -174 180 -771 152 -745 -3 3 -26 106 -52 230 -25 124
-64 279 -86 345 -38 114 -104 260 -122 272 -4 3 -7 -50 -5 -116 2 -67 0 -121
-4 -121 -4 0 -14 35 -23 78 -44 203 -107 421 -151 519 -13 30 -19 53 -14 51 5
-2 43 -48 85 -103z m-3625 35 c0 -5 -21 -10 -47 -10 -27 0 -288 -3 -580 -7
-383 -4 -533 -3 -533 5 0 6 15 13 33 15 75 9 1127 7 1127 -3z m-2715 -10 c6
-1 19 0 30 2 12 2 21 -4 23 -14 4 -19 -23 -24 -95 -19 -17 1 -34 -3 -38 -9 -4
-6 9 -10 34 -10 40 0 61 -13 41 -25 -22 -13 -186 -18 -209 -6 -40 22 -19 35
52 33 38 -1 67 3 67 8 0 6 -15 11 -32 12 -77 3 -95 4 -125 6 -22 1 -33 7 -33
18 0 13 17 14 138 10 75 -3 142 -6 147 -6z m-1103 -60 c3 -25 7 -112 7 -193 1
-147 1 -148 -21 -145 -22 3 -22 5 -19 144 2 88 -1 144 -7 148 -6 4 -13 2 -17
-3 -3 -6 -15 -7 -29 -1 l-23 8 -6 -150 c-6 -154 -11 -172 -47 -165 -11 2 -14
13 -13 37 2 19 6 88 9 153 l7 118 -26 -6 c-22 -6 -27 -3 -32 18 -4 14 -5 36
-3 48 3 21 10 24 47 27 28 2 47 -1 52 -10 6 -9 9 -8 15 5 5 13 16 17 53 15
l46 -3 7 -45z m-420 -10 c16 -33 17 -33 18 -9 0 14 5 30 12 37 15 15 95 16
104 0 8 -12 19 -114 30 -275 l7 -102 -27 -11 c-42 -16 -83 -12 -91 8 -6 15 -8
15 -15 -4 -6 -16 -21 -23 -56 -29 -74 -11 -72 -19 -90 284 -6 105 -6 115 12
128 10 8 32 13 49 11 23 -2 34 -11 47 -38z m9658 33 c0 -4 -7 -32 -16 -62
l-15 -56 -102 3 c-56 2 -104 6 -106 8 -3 2 3 29 13 59 l17 55 105 0 c57 0 104
-3 104 -7z m-9800 -24 c6 -11 10 -30 8 -42 -2 -17 -9 -21 -30 -19 -34 3 -40
-7 -32 -57 6 -38 8 -39 32 -30 14 5 29 6 32 2 4 -4 13 -60 19 -123 11 -105 11
-115 -5 -127 -28 -21 -91 -17 -104 7 -12 23 -37 369 -27 393 10 26 93 24 107
-4z m4370 -32 c0 -11 -71 -15 -367 -20 -203 -4 -442 -7 -532 -7 -151 0 -163
-1 -156 -17 12 -33 10 -37 -17 -38 -20 -1 -28 4 -28 17 0 11 5 15 15 12 10 -4
15 0 15 10 0 10 -7 16 -16 14 -10 -2 -19 2 -21 9 -5 15 76 18 502 21 181 2
331 5 334 7 2 3 64 5 138 5 104 0 133 -3 133 -13z m1180 -64 c0 -32 -4 -75 -9
-96 -7 -28 -5 -46 5 -65 8 -15 14 -52 15 -82 1 -77 15 -174 19 -135 2 17 3 55
2 85 -1 53 -1 54 9 20 15 -51 31 -668 25 -935 -5 -215 -8 -248 -51 -495 -25
-146 -49 -274 -55 -285 l-9 -20 0 20 c-1 23 21 169 44 295 33 175 36 253 20
484 -8 122 -19 388 -25 591 -8 265 -15 386 -26 428 -8 32 -17 86 -20 120 -4
51 -2 68 15 95 30 47 41 40 41 -25z m-3581 21 c12 -11 -17 -19 -77 -21 -37 -1
-67 -2 -67 -3 0 -8 -136 -7 -140 1 -4 5 -13 5 -23 0 -9 -5 -48 -11 -85 -12
-51 -3 -70 0 -77 11 -5 8 -7 18 -4 22 3 4 73 8 156 7 83 0 152 2 155 5 5 5
156 -4 162 -10z m1411 -24 c12 -12 18 -25 15 -30 -9 -15 44 -15 594 1 238 6
368 6 374 0 17 -17 -21 -19 -423 -31 -573 -17 -670 -18 -670 -3 0 9 16 13 50
13 28 0 50 5 50 10 0 6 -7 10 -15 10 -9 0 -15 9 -15 25 0 30 13 32 40 5z
m4348 -74 c17 -24 32 -47 32 -51 0 -5 6 -16 14 -24 14 -16 35 -55 169 -311
134 -257 149 -336 199 -1060 15 -211 14 -769 -2 -941 -30 -340 -109 -715 -177
-842 -43 -81 -129 -160 -226 -207 -97 -47 -151 -54 -62 -8 180 93 261 197 310
396 100 417 149 1004 126 1522 -12 256 -41 594 -62 704 -11 60 -63 217 -106
321 -23 56 -40 92 -130 283 -20 42 -58 116 -85 165 -26 48 -48 89 -48 92 0 15
19 0 48 -39z m1347 14 c12 -5 -42 -9 -141 -9 -88 -1 -218 -5 -290 -10 -194
-14 -456 -21 -374 -10 200 28 761 48 805 29z m-6572 -11 c-14 -14 -124 -26
-318 -34 -82 -3 -175 -8 -205 -11 -119 -10 -160 -10 -160 3 0 17 92 26 379 38
45 2 85 6 87 8 2 2 55 5 117 6 84 1 109 -1 100 -10z m6301 -30 c13 -1 8 -4
-14 -10 -19 -5 -50 -6 -67 -3 -18 2 -33 1 -33 -5 0 -13 61 -17 340 -20 135 -1
247 -5 249 -7 16 -16 -63 -19 -471 -19 -368 -1 -452 2 -421 11 l38 12 -40 0
c-41 1 -99 -16 -62 -17 9 -1 17 -4 17 -8 0 -5 -24 -9 -53 -11 -49 -2 -55 0
-66 24 -6 15 -10 28 -8 31 3 2 89 6 193 9 246 7 272 9 281 18 5 4 28 5 52 2
24 -3 53 -6 65 -7z m-2414 -41 c0 -13 -7 -68 -15 -123 -23 -153 -33 -234 -39
-300 -6 -81 11 -28 24 70 9 68 9 67 4 -25 -2 -52 -11 -176 -19 -275 -8 -99
-20 -358 -26 -575 -13 -480 -16 -525 -44 -525 -19 0 -21 9 -28 145 -9 158 -2
559 14 850 11 214 48 494 86 663 24 108 43 150 43 95z m-2207 -29 c15 -16 27
-37 27 -47 1 -9 7 -3 15 16 27 62 66 82 113 58 50 -26 69 -127 38 -201 -16
-38 -42 -55 -85 -55 -35 0 -48 18 -66 95 -10 37 -13 43 -14 22 -1 -15 -8 -42
-17 -60 -58 -114 -136 -101 -165 27 -32 145 67 238 154 145z m-482 11 c22 0
39 -4 39 -10 0 -5 -15 -8 -33 -6 -40 5 -72 -9 -44 -20 21 -8 13 -24 -12 -24
-10 0 -24 -7 -31 -15 -11 -13 -7 -15 26 -16 34 -1 36 -2 14 -8 -14 -4 -53 -9
-87 -10 -51 -2 -63 1 -63 13 0 9 8 16 19 16 14 0 17 6 13 25 -2 14 -11 25 -18
25 -8 0 -14 6 -14 14 0 17 46 25 109 20 24 -2 61 -4 82 -4z m4984 -70 c105 -5
295 -12 423 -16 128 -4 231 -8 230 -10 -7 -6 -215 -5 -588 5 -212 6 -411 11
-442 11 -44 0 -58 4 -58 15 0 15 33 15 435 -5z m-6694 -53 c-6 -6 -26 -12 -44
-13 -111 -7 -188 -13 -194 -17 -5 -2 -43 -5 -86 -6 -43 0 -86 -5 -95 -10 -9
-5 -25 -6 -35 -2 -15 6 -16 9 -3 26 12 16 29 19 127 23 63 2 115 5 117 7 2 2
53 3 114 4 84 0 108 -3 99 -12z m7354 -12 c39 -3 106 -10 150 -15 44 -5 101
-10 128 -12 26 -1 47 -6 47 -11 0 -10 -156 -3 -370 18 -85 8 -202 15 -260 16
-58 0 -114 5 -125 10 -19 9 264 5 430 -6z m-3109 -99 c5 -34 2 -52 -11 -72
-17 -26 -28 -84 -45 -249 -33 -305 -50 -486 -56 -596 -10 -197 -16 -153 -9 71
8 272 45 630 81 770 8 30 14 77 14 105 1 60 17 43 26 -29z m3079 49 c229 -30
363 -76 451 -157 135 -123 178 -285 149 -556 -24 -226 -179 -976 -193 -934 -2
6 3 35 12 64 8 29 24 100 35 158 11 58 34 168 50 245 46 215 81 479 81 602 0
93 -4 120 -29 190 -51 148 -123 220 -268 266 -83 27 -153 42 -153 32 0 -3 11
-28 25 -55 14 -27 25 -52 25 -56 0 -3 -19 12 -42 35 -68 69 -119 93 -204 99
-41 2 -74 2 -74 0 0 -3 15 -31 34 -63 33 -54 57 -130 55 -178 0 -16 -5 -12
-17 18 -35 79 -56 111 -100 150 l-45 40 35 -50 c37 -51 59 -111 57 -155 l-1
-25 -8 27 c-14 48 -70 136 -103 164 -39 33 -104 63 -136 64 -33 0 -104 -43
-135 -82 -37 -47 -33 -11 4 40 17 23 30 44 30 47 0 3 -77 5 -171 5 -207 0
-222 -5 -276 -91 -20 -33 -38 -57 -41 -55 -4 4 12 58 33 109 7 17 3 19 -41 15
l-49 -3 -3 36 -3 35 178 16 c247 21 684 22 838 3z m-8705 -84 c0 -13 -9 -21
-27 -25 -195 -38 -308 -57 -339 -58 -22 0 -52 -6 -69 -13 -28 -13 -161 -36
-215 -39 -18 -1 -26 5 -28 20 -3 19 6 21 120 38 68 9 147 22 176 28 28 6 55 8
59 5 3 -4 12 -2 20 5 13 11 230 55 281 57 15 1 22 -5 22 -18z m5217 -106 c21
-4 44 -8 51 -10 15 -5 15 -47 2 -203 -5 -64 -14 -183 -21 -264 -6 -82 -13
-148 -16 -148 -2 0 -20 7 -40 15 -20 9 -40 12 -44 8 -5 -5 0 -73 11 -153 30
-237 32 -256 22 -240 -8 13 -23 90 -48 250 -22 136 -36 333 -41 567 l-6 272
46 -44 c32 -30 58 -46 84 -50z m-483 8 c3 -10 7 -36 10 -58 5 -35 5 -36 -3
-11 -21 62 -32 66 -172 66 -74 0 -130 -4 -134 -10 -7 -11 10 -183 25 -265 5
-27 12 -76 15 -108 3 -32 8 -63 11 -69 5 -8 55 -9 156 -5 115 5 148 3 145 -6
-2 -8 -46 -13 -150 -15 -143 -2 -147 -3 -147 -24 0 -16 -3 -19 -11 -11 -22 22
-89 499 -74 523 4 6 75 10 165 10 142 0 159 -2 164 -17z m-3164 -3 c21 -13
-23 -28 -80 -25 -25 0 -49 -2 -55 -6 -5 -4 -46 -9 -90 -12 -44 -3 -113 -11
-153 -18 -40 -7 -75 -9 -79 -6 -3 4 2 17 10 31 15 22 22 24 79 22 35 -1 101 3
148 10 105 15 200 17 220 4z m-1830 -29 c0 -21 -19 -31 -59 -31 -16 0 -78 -11
-139 -25 -61 -14 -118 -22 -126 -19 -9 3 -16 1 -16 -5 0 -14 -67 -15 -75 -1
-12 20 15 37 68 44 59 7 124 19 212 40 33 8 77 14 98 15 30 1 37 -3 37 -18z
m4911 -41 c29 -8 39 -18 56 -57 37 -86 45 -124 41 -185 -6 -79 -32 -107 -109
-115 -75 -7 -114 13 -141 75 -31 73 -35 148 -9 208 33 75 79 97 162 74z
m-4964 -36 c3 -9 0 -19 -6 -24 -12 -7 -155 -33 -241 -45 -19 -2 -48 -7 -64
-11 -18 -4 -31 -2 -36 6 -15 23 1 40 39 41 20 0 88 11 151 24 144 28 149 28
157 9z m1821 -34 c26 0 41 -4 37 -10 -3 -5 -20 -10 -36 -10 -17 0 -38 -4 -47
-9 -10 -5 -60 -12 -112 -16 -52 -3 -122 -10 -155 -15 -126 -19 -133 -19 -146
-4 -6 8 -10 16 -8 19 3 2 45 7 94 10 50 3 115 10 145 16 42 9 55 9 58 -1 4
-10 6 -10 12 0 9 15 68 30 95 24 11 -2 39 -4 63 -4z m612 -22 c-14 -6 -36 -12
-50 -13 -14 -1 -65 -8 -115 -15 -49 -6 -117 -13 -150 -15 -85 -4 -245 -23
-348 -42 -62 -11 -95 -13 -110 -6 -13 6 -31 7 -45 2 -46 -17 -332 -45 -332
-32 1 24 22 33 91 37 165 10 444 35 569 51 19 2 62 5 95 6 33 1 69 6 80 11 21
9 193 25 285 26 48 1 52 -1 30 -10z m3330 -123 l33 -62 -12 -164 c-6 -91 -11
-195 -11 -232 0 -76 8 -72 -80 -42 l-35 12 3 99 c4 157 22 468 28 484 7 19 28
-9 74 -95z m-5425 66 c0 -16 -93 -44 -385 -116 -270 -67 -264 -65 -275 -54
-12 12 19 39 44 39 17 0 126 27 221 54 30 8 66 18 80 21 14 4 34 11 45 15 11
5 58 16 105 26 46 9 93 20 105 25 29 12 60 7 60 -10z m2685 -26 c0 -8 5 -15
10 -15 6 0 10 -3 9 -7 -3 -22 15 -54 27 -49 20 8 17 -11 -3 -23 -15 -8 -15
-11 -3 -12 8 -1 19 -1 24 0 5 1 4 -5 -4 -13 -21 -26 -14 -26 418 34 84 12 158
19 165 17 21 -8 -8 -14 -243 -47 -124 -18 -261 -38 -305 -45 -44 -7 -83 -10
-87 -6 -3 3 -9 25 -13 49 -3 23 -13 61 -21 83 -18 52 -18 49 6 49 11 0 20 -7
20 -15z m-2700 -68 c0 -7 -5 -18 -11 -24 -8 -8 -6 -11 7 -10 11 1 19 -4 19
-11 0 -8 -61 -34 -160 -68 -88 -30 -166 -57 -174 -59 -11 -4 -12 -8 -3 -17 29
-29 12 -44 -95 -82 -60 -21 -127 -48 -150 -59 -47 -22 -51 -22 -55 12 -3 20 4
25 42 36 107 30 220 79 220 95 0 14 -21 12 -39 -3 -9 -7 -41 -21 -71 -31 -30
-10 -59 -23 -64 -27 -6 -5 -18 -9 -28 -9 -10 0 -27 -6 -38 -12 -17 -11 -22
-10 -30 2 -5 8 -7 23 -4 32 3 9 -1 26 -8 37 -16 26 -1 54 31 59 17 3 21 -2 21
-27 0 -18 -7 -34 -18 -40 -25 -15 3 -14 45 1 37 13 44 28 13 28 -13 0 -20 7
-20 20 0 11 2 20 5 20 2 0 30 7 62 16 32 8 117 31 188 49 72 18 162 44 200 58
81 28 115 32 115 14z m2967 -141 c7 -23 24 -54 39 -67 58 -52 83 -84 89 -111
12 -50 -6 -50 -47 2 -22 28 -42 49 -44 47 -5 -5 12 -39 39 -78 18 -26 17 -28
-5 -51 -37 -38 -73 -57 -89 -47 -8 5 -52 8 -98 8 l-83 -2 -54 55 -55 54 21 46
c21 47 38 58 95 58 17 0 61 7 99 14 38 8 73 13 78 10 11 -7 10 13 -1 34 -4 9
-11 29 -15 45 -11 47 19 32 31 -17z m-473 9 c-4 -9 -19 -15 -37 -15 -17 0
-140 -18 -272 -40 -836 -138 -984 -163 -1105 -185 -151 -28 -693 -115 -715
-115 -8 0 -15 6 -15 13 0 14 65 27 395 81 83 13 332 54 555 90 715 117 1134
183 1167 185 25 1 31 -2 27 -14z m805 -40 l51 -26 -6 -42 c-3 -23 -9 -96 -12
-162 l-7 -120 -142 -9 c-125 -8 -145 -7 -168 8 -37 24 -31 43 23 70 82 44 95
58 95 108 0 51 -20 87 -68 120 -19 12 -33 28 -32 33 3 8 141 37 204 44 6 0 34
-10 62 -24z m-958 -165 c5 0 9 9 9 20 0 14 9 20 38 25 20 3 49 8 65 10 25 4
27 3 21 -23 -9 -38 -31 -52 -83 -52 -25 0 -77 -7 -116 -15 -74 -16 -89 -11
-83 26 3 21 11 25 62 34 36 6 62 16 65 25 4 9 7 1 9 -17 2 -18 7 -33 13 -33z
m1662 -29 c6 -6 50 -11 105 -11 78 0 97 3 107 17 11 15 19 16 61 6 30 -7 151
-11 314 -11 222 1 265 -1 265 -13 0 -12 -49 -14 -300 -16 -165 -2 -436 -4
-603 -5 -166 -2 -302 0 -302 3 0 23 42 34 149 39 149 6 190 5 204 -9z m-3933
-21 c0 -15 -57 -38 -341 -135 -140 -48 -262 -91 -271 -96 -25 -13 -38 -11 -38
4 0 8 88 45 228 95 125 45 263 95 307 111 87 32 115 37 115 21z m1654 -36 c14
-37 6 -41 -95 -57 -65 -10 -108 -12 -118 -6 -9 5 -29 14 -46 20 -37 14 -32 16
97 39 132 23 154 24 162 4z m3141 -144 c8 -24 19 -36 33 -38 12 -2 22 -4 22
-6 0 -1 -7 -56 -15 -121 -8 -66 -15 -121 -15 -122 0 -2 -9 -3 -19 -3 -11 0
-33 -12 -50 -26 l-31 -26 0 184 c0 102 3 188 7 192 4 4 18 6 32 4 18 -2 27
-12 36 -38z m-1770 -46 c43 -5 65 -12 76 -27 10 -12 31 -21 55 -23 21 -2 68
-5 103 -8 63 -5 88 -14 63 -23 -30 -11 -70 -133 -43 -133 5 0 11 -9 14 -20 7
-27 -2 -26 -94 15 -93 41 -144 44 -206 14 -59 -29 -64 -19 -8 16 47 31 54 49
30 81 -21 28 -18 34 18 34 18 0 42 6 52 14 17 12 13 14 -37 14 -64 0 -74 4
-118 55 l-33 38 34 -20 c19 -11 61 -23 94 -27z m950 -4 c-3 -10 -12 -47 -18
-80 -8 -35 -17 -57 -22 -53 -5 4 -3 0 4 -9 13 -17 53 -26 49 -10 -1 4 2 44 6
90 6 60 12 82 22 82 17 0 17 2 -3 -98 l-16 -83 23 -22 c18 -17 22 -18 17 -5
-3 10 -2 46 4 80 5 35 12 78 15 96 3 17 11 32 18 32 11 0 11 -12 0 -67 -7 -38
-13 -94 -14 -125 0 -68 -16 -76 -60 -28 -16 17 -38 30 -52 30 -43 0 -48 11
-33 65 7 28 16 67 20 88 4 28 11 37 26 37 16 0 19 -5 14 -20z m-3512 -156
c-17 -13 -17 -13 5 -14 16 0 22 -6 22 -21 0 -17 -5 -20 -32 -18 -39 3 -78 -8
-78 -23 0 -5 -7 -7 -16 -4 -8 3 -24 1 -34 -4 -13 -7 -26 -5 -47 7 -35 19 -98
11 -112 -15 -4 -9 -11 -42 -14 -72 -3 -30 -15 -84 -26 -120 -12 -36 -32 -141
-45 -233 -23 -159 -29 -187 -41 -176 -5 5 1 53 36 286 12 78 19 149 16 157 -8
21 -63 21 -71 0 -3 -8 -11 -57 -16 -107 -14 -124 -21 -157 -32 -157 -14 0 3
198 22 255 l17 50 51 3 c28 2 55 9 62 17 6 8 11 56 11 122 0 106 12 183 28
183 5 0 14 -6 20 -14 9 -11 9 -19 -1 -35 -7 -11 -8 -24 -4 -28 5 -4 10 -3 13
2 13 35 20 37 105 30 112 -9 118 -14 82 -59 -37 -46 -60 -52 -136 -33 -34 9
-66 14 -70 11 -9 -6 -11 -54 -3 -54 3 0 14 5 24 12 14 8 29 8 64 0 68 -18 84
-15 134 19 54 38 78 86 69 145 -3 23 -2 45 2 49 4 4 8 -28 10 -70 2 -65 0 -79
-15 -91z m2717 -78 c30 -13 142 -62 247 -110 106 -48 224 -94 263 -102 61 -14
72 -20 91 -51 19 -30 22 -51 23 -138 1 -57 -2 -106 -5 -109 -3 -3 -20 -1 -37
5 -29 10 -37 7 -94 -29 -68 -42 -109 -58 -178 -67 -42 -6 -52 -2 -150 55 -138
81 -140 82 -250 89 l-95 6 125 24 c87 16 137 31 164 48 37 24 38 26 21 39 -22
16 -41 18 -50 4 -3 -5 1 -10 9 -10 9 0 16 -4 16 -10 0 -17 -46 -11 -62 8 -23
27 -39 73 -33 92 9 29 -15 34 -48 10 l-31 -23 -35 20 c-43 24 -76 23 -172 -7
-39 -11 -87 -23 -107 -25 -21 -2 -39 -4 -42 -4 -3 -1 -13 -16 -23 -34 -22 -40
-103 -97 -138 -97 -14 0 -34 -9 -43 -19 -10 -11 -24 -17 -31 -15 -8 3 -41 -21
-76 -55 -34 -34 -66 -61 -71 -61 -4 0 -8 -7 -8 -15 0 -9 -9 -15 -23 -15 -31 0
-40 -10 -25 -27 15 -18 -5 -33 -33 -26 -28 8 -33 22 -12 30 10 4 26 17 36 30
10 13 25 23 33 23 8 0 13 3 11 8 -3 9 40 52 53 52 6 0 10 6 10 13 0 6 23 28
50 47 27 19 78 73 114 120 91 121 99 127 191 145 80 15 173 53 195 80 8 9 -5
7 -42 -7 -37 -15 -76 -21 -126 -21 l-73 0 -104 -101 c-58 -56 -105 -107 -105
-114 0 -6 -4 -12 -8 -12 -10 0 -61 -41 -109 -87 -18 -18 -37 -33 -41 -33 -4 0
-15 -8 -24 -17 -9 -10 -39 -34 -67 -53 -28 -19 -51 -40 -51 -46 0 -6 -13 -17
-29 -24 -16 -6 -32 -18 -35 -26 -3 -8 -12 -14 -21 -14 -8 0 -15 -6 -15 -14 0
-19 -30 -29 -46 -15 -17 14 -9 29 17 29 10 0 19 7 19 15 0 8 9 15 20 15 13 0
20 7 20 20 0 14 7 20 21 20 12 0 23 8 26 19 2 10 16 24 29 30 13 6 24 15 24
21 0 5 6 10 13 10 6 0 30 17 53 38 22 20 62 55 89 77 77 63 98 86 147 155 70
100 117 154 146 167 18 8 49 11 88 7 78 -8 162 15 207 56 27 25 40 29 87 29
36 1 74 -8 110 -23z m1640 -61 c0 -19 -5 -25 -17 -23 -16 3 -19 -8 -23 -79 -3
-45 -9 -85 -12 -89 -7 -6 -64 35 -135 98 -24 21 -47 38 -52 38 -22 0 -33 -43
-27 -104 l7 -61 -47 50 c-68 74 -76 88 -65 117 12 33 58 68 88 68 13 0 47 -15
76 -34 80 -52 91 -53 124 -9 33 45 42 53 66 53 12 0 17 -8 17 -25z m-5414 -42
c11 -78 11 -76 -8 -79 -9 -1 -39 -7 -68 -13 -63 -14 -60 -14 -60 4 0 8 -14 30
-31 50 -38 43 -34 49 52 75 103 30 105 29 115 -37z m1200 28 c20 -40 -9 -118
-106 -280 -9 -14 -30 -51 -48 -81 -33 -58 -101 -133 -85 -95 18 44 67 132 90
163 14 18 22 39 19 47 -3 9 4 21 18 30 13 9 43 53 66 99 36 71 41 86 31 104
-16 30 -49 28 -61 -4 -6 -14 -21 -40 -34 -57 -13 -18 -51 -86 -85 -152 -111
-219 -151 -279 -151 -227 0 12 6 27 13 34 11 11 63 114 160 317 12 25 40 64
62 88 32 35 46 43 70 41 19 -2 34 -11 41 -27z m1969 -70 c11 -19 -22 -26 -111
-22 -60 2 -94 -1 -98 -8 -4 -6 -34 -29 -67 -51 -58 -38 -64 -40 -140 -40 -74
0 -100 10 -63 24 8 3 13 10 10 14 -5 9 88 52 112 52 16 0 16 -17 0 -23 -7 -3
-3 -6 10 -6 12 -1 22 -5 22 -11 0 -18 17 -11 67 27 38 29 60 38 108 43 91 11
143 11 150 1z m1207 -5 c24 -8 90 -22 147 -32 82 -14 106 -15 109 -6 12 36 62
-56 62 -114 l0 -34 -77 5 c-43 3 -97 8 -120 10 -38 4 -43 2 -43 -15 0 -25 -19
-26 -26 -2 -19 61 -54 119 -91 152 -24 21 -43 40 -43 44 0 10 37 7 82 -8z
m468 1 c80 -7 150 -16 156 -20 6 -3 17 -28 24 -54 7 -27 14 -56 17 -67 5 -18
0 -18 -93 -12 -55 4 -120 9 -146 12 l-48 6 0 -53 c0 -65 -13 -54 -28 22 -16
81 -49 148 -78 155 -13 3 -21 10 -18 15 7 11 35 11 214 -4z m2002 -16 c18 10
17 5 -9 -42 -17 -30 -39 -79 -51 -109 -21 -58 -37 -140 -26 -140 4 0 60 29
124 65 173 96 381 187 395 173 2 -2 -53 -39 -122 -83 -69 -44 -131 -84 -137
-90 -7 -5 -19 -14 -29 -20 -48 -29 -297 -208 -297 -214 0 -14 -41 -51 -51 -46
-16 11 -10 80 15 151 40 116 128 338 145 364 16 24 16 24 19 2 3 -19 6 -20 24
-11z m-3732 -46 c0 -5 -13 -10 -29 -10 -24 0 -99 -43 -186 -107 -5 -4 -57 -43
-116 -86 -58 -43 -132 -96 -165 -117 -80 -52 -81 -53 -53 -64 22 -8 22 -10 5
-16 -11 -5 -21 -3 -26 5 -6 10 -12 10 -31 0 l-23 -13 22 -8 c33 -12 27 -21
-13 -17 -28 2 -46 -5 -85 -32 -27 -19 -49 -38 -50 -41 0 -4 12 -10 26 -13 20
-5 24 -10 16 -18 -9 -9 -18 -8 -38 1 -22 10 -30 9 -48 -4 -60 -44 -127 -93
-158 -117 -19 -16 -44 -28 -55 -28 -18 0 -63 -62 -63 -88 0 -5 43 -18 94 -28
l95 -17 21 24 20 24 -6 -26 c-5 -24 -2 -28 28 -38 31 -9 490 -112 568 -126 64
-12 100 -26 100 -41 0 -8 -7 -14 -16 -14 -27 0 -336 58 -509 96 -88 19 -252
54 -365 77 -239 49 -246 55 -144 117 33 20 105 70 160 112 54 41 146 106 204
146 58 39 164 113 235 166 72 53 206 145 298 205 l168 109 60 -2 c32 0 59 -5
59 -11z m-1082 -43 c5 -34 30 -39 197 -42 83 -2 177 -5 210 -7 71 -4 157 -8
239 -11 l59 -2 -19 -21 c-19 -21 -204 -153 -277 -197 l-38 -24 -92 22 c-51 13
-95 26 -100 29 -4 4 39 27 95 50 57 24 111 51 121 60 27 26 12 51 -29 51 -44
0 -308 38 -357 51 -26 7 -41 18 -47 35 -14 35 -13 36 13 32 14 -2 23 -11 25
-26z m-284 -82 c67 -11 121 -43 135 -80 5 -14 19 -99 30 -189 l22 -165 -21
-20 c-18 -18 -22 -19 -30 -6 -5 8 -10 26 -10 40 0 42 -48 303 -63 345 -17 47
-27 51 -186 64 -62 6 -116 13 -119 16 -9 9 180 5 242 -5z m-179 -31 c133 -15
213 -30 223 -42 14 -19 45 -183 66 -357 10 -78 -11 -21 -24 65 -13 86 -35 191
-51 241 -9 30 -13 31 -92 43 -134 19 -190 22 -199 8 -5 -8 -8 -7 -8 4 0 23
-33 19 -44 -6 -9 -18 -10 -17 -14 10 -4 33 22 60 48 49 8 -3 51 -10 95 -15z
m705 -8 c22 -7 19 -9 -30 -26 -30 -10 -110 -42 -178 -71 -68 -30 -128 -54
-133 -54 -5 0 -9 27 -9 59 l0 59 103 20 c104 21 202 26 247 13z m-2509 -22
c36 -13 69 -36 69 -51 0 -14 -20 -9 -49 13 -36 26 -169 38 -225 19 -97 -32
-40 -151 92 -190 40 -13 57 -30 29 -30 -65 0 -179 79 -192 133 -10 39 11 83
48 101 38 19 178 22 228 5z m1437 -76 c44 -28 72 -118 56 -180 -8 -29 -16 -29
-62 2 -20 13 -51 27 -69 31 -25 5 -32 12 -36 40 -3 18 -13 49 -22 69 -24 50
-10 63 58 57 28 -2 63 -11 75 -19z m2112 11 c54 -10 151 -17 265 -19 196 -2
207 -5 308 -69 184 -117 627 -356 661 -356 29 0 27 -20 -8 -83 -49 -86 -62
-195 -44 -342 3 -17 -4 -20 -75 -23 -150 -7 -268 18 -410 88 -102 51 -178 111
-316 246 -99 99 -122 116 -190 144 -93 39 -145 48 -169 28 -9 -8 -45 -28 -80
-46 -34 -18 -90 -52 -124 -77 -33 -24 -66 -42 -71 -38 -6 4 -3 11 6 18 10 7
17 15 17 19 0 4 11 18 25 32 14 14 25 29 25 35 0 17 -35 -7 -88 -62 -31 -31
-52 -46 -57 -40 -10 18 126 168 205 225 93 68 126 86 155 86 18 0 90 -20 161
-44 71 -25 161 -51 201 -60 40 -8 89 -26 110 -41 45 -30 183 -85 215 -85 13 0
-15 18 -67 43 -49 23 -112 55 -138 70 -27 16 -74 32 -105 37 -85 12 -112 25
-105 49 4 17 1 21 -20 21 -14 0 -73 11 -131 25 -128 30 -141 31 -208 5 -29
-11 -63 -20 -75 -20 -12 0 -30 -11 -40 -25 -21 -29 -60 -83 -100 -138 -15 -21
-45 -58 -65 -82 -20 -25 -40 -54 -43 -66 -6 -17 -12 -20 -38 -15 -17 3 -32 8
-35 10 -2 3 37 76 86 163 50 87 108 190 129 228 l39 70 59 3 c33 2 136 -2 228
-8 93 -6 171 -9 174 -7 3 3 -17 8 -44 11 -26 4 -107 17 -179 31 -169 32 -203
32 -240 0 -16 -14 -34 -23 -41 -21 -6 3 -34 -20 -63 -50 -28 -31 -56 -54 -63
-51 -14 4 139 159 180 180 38 20 81 20 183 1z m-2255 -75 c12 -22 15 -45 11
-82 -3 -29 -8 -313 -11 -632 -5 -543 -6 -582 -24 -605 -22 -30 -65 -57 -106
-64 -16 -4 -25 -4 -20 -1 6 3 9 68 7 174 l-3 169 43 82 43 82 4 141 c2 89 -1
155 -9 180 -11 39 -12 39 -52 33 l-41 -7 6 191 6 191 -42 -6 c-23 -4 -55 -8
-72 -10 -16 -2 -116 -5 -220 -5 -186 -1 -329 10 -410 32 -22 5 -41 9 -43 7 -4
-5 -1 -738 3 -989 l4 -195 33 -28 c18 -15 50 -33 71 -39 20 -6 35 -13 33 -15
-10 -11 -122 34 -146 59 l-28 27 -6 478 c-3 263 -7 542 -9 621 -1 78 1 142 6
142 4 0 20 -9 36 -20 64 -48 340 -69 597 -46 145 13 179 19 220 41 56 29 84
49 84 60 0 5 -9 0 -20 -10 -34 -31 -34 -8 1 34 18 23 34 41 35 41 2 0 11 -14
19 -31z m1205 -33 c47 -13 85 -27 85 -31 0 -5 -49 -42 -110 -83 -60 -41 -157
-108 -214 -149 -104 -74 -104 -74 -155 -68 -124 15 -341 47 -345 51 -9 9 71 3
170 -12 135 -20 178 -13 228 34 38 36 39 38 30 87 -4 28 -8 66 -8 86 -1 36 0
36 82 72 97 42 124 44 237 13z m-856 -38 c3 -13 7 -34 10 -48 16 -80 39 -157
52 -171 8 -8 14 -18 14 -21 0 -19 -197 -14 -217 6 -3 3 -10 29 -14 57 l-8 51
71 74 c39 41 75 74 80 74 4 0 10 -10 12 -22z m5576 16 c0 -4 -12 -18 -26 -31
-22 -20 -25 -30 -20 -57 l6 -34 -67 15 c-38 8 -90 15 -116 15 -77 2 -57 26 53
64 87 30 170 43 170 28z m-5829 -67 c46 -31 59 -62 77 -190 20 -143 9 -216
-53 -342 -50 -102 -77 -139 -94 -134 -8 3 3 32 30 83 90 171 105 263 70 441
l-17 90 -32 -3 c-26 -2 -35 3 -44 23 -8 19 -8 28 2 40 16 20 21 19 61 -8z
m5601 -67 c37 -11 70 -26 74 -32 5 -8 1 -9 -12 -4 -10 5 -37 10 -59 12 l-40 5
40 -22 c42 -23 85 -66 85 -85 0 -18 -60 -1 -122 34 -62 35 -102 45 -178 46
-63 1 -76 20 -39 57 20 20 28 21 103 16 44 -3 111 -15 148 -27z m-2002 -62 l0
-48 -45 0 c-36 0 -51 -6 -81 -32 -23 -20 -39 -28 -41 -21 -3 7 -10 10 -18 7
-18 -7 -285 122 -285 137 0 9 24 10 88 5 48 -4 117 -7 155 -6 63 1 67 0 68
-22 l0 -23 9 23 c8 19 17 22 65 22 42 0 57 4 62 16 10 27 23 -5 23 -58z
m-4000 -93 c0 -141 -2 -155 -17 -156 -16 -1 -16 -2 0 -6 10 -3 16 -11 13 -18
-3 -8 3 -16 12 -18 9 -3 -5 -5 -33 -6 -27 -1 -60 -4 -73 -7 l-23 -7 2 134 c2
74 5 126 7 117 4 -20 31 -25 33 -5 1 6 1 36 0 65 -1 29 3 52 9 52 6 0 10 -33
10 -79 0 -70 2 -79 20 -84 19 -5 20 0 20 84 0 53 4 89 10 89 6 0 10 -58 10
-155z m130 128 c0 -16 2 -84 4 -153 2 -68 0 -132 -5 -141 -5 -10 -5 -19 -1
-21 5 -2 -6 -15 -23 -30 -28 -24 -34 -26 -52 -13 -18 12 -19 27 -21 167 -2 84
-5 168 -8 186 l-6 32 56 0 c54 0 56 -1 56 -27z m5003 7 c29 -11 77 -42 107
-68 72 -64 89 -72 149 -72 48 0 52 2 75 38 32 51 54 68 102 81 73 19 155 -9
247 -84 63 -53 75 -75 23 -44 -19 11 -65 29 -103 39 -124 36 -202 21 -237 -45
l-19 -34 29 -78 c16 -43 31 -81 32 -85 2 -4 -2 -8 -10 -8 -12 0 -86 61 -272
222 -39 33 -80 65 -92 70 -32 15 -69 3 -89 -28 -16 -24 -16 -26 -1 -21 9 4 16
2 16 -2 0 -5 -7 -11 -15 -15 -8 -3 -15 -17 -15 -31 0 -14 -4 -25 -9 -25 -5 0
-7 9 -4 19 4 16 1 19 -16 14 -17 -4 -21 -1 -21 18 0 32 -13 51 -31 44 -28 -11
-142 -194 -187 -300 l-33 -80 6 100 c11 173 70 305 158 355 78 45 131 50 210
20z m-1013 -133 c120 -21 125 -23 122 -46 -1 -13 -11 -36 -22 -51 -11 -15 -20
-36 -20 -45 0 -16 -8 -17 -85 -11 -48 4 -125 14 -173 21 -85 14 -87 14 -105
-6 -9 -12 -24 -46 -33 -75 -8 -30 -18 -54 -21 -54 -3 0 -3 23 0 51 10 86 73
192 133 228 27 15 62 13 204 -12z m390 -16 c203 -15 260 -22 260 -32 0 -5 -9
-32 -20 -61 -11 -29 -20 -61 -20 -70 0 -9 -3 -19 -7 -21 -5 -3 -98 4 -208 14
-110 10 -206 18 -212 19 -16 0 -17 30 -2 30 6 0 9 6 6 13 -2 6 2 20 11 30 8 9
13 20 10 23 -13 12 -61 -70 -93 -158 -25 -68 -34 -85 -35 -63 -1 62 56 240 89
278 11 13 24 17 46 13 16 -3 95 -10 175 -15z m-3910 -5 c30 -8 118 -19 195
-25 231 -17 320 -38 275 -66 -5 -3 -10 -44 -10 -90 0 -86 12 -115 46 -115 21
0 18 -7 -23 -60 -38 -47 -38 -47 -112 -54 -128 -11 -171 -8 -207 15 -19 11
-39 30 -45 42 -10 18 -8 24 16 43 15 12 46 27 69 34 161 48 201 116 97 170
-27 14 -228 72 -313 91 -32 7 -58 16 -58 21 0 11 7 10 70 -6z m15 -91 c99 -19
237 -65 232 -79 -2 -5 -37 -21 -79 -35 -89 -30 -105 -43 -129 -95 -20 -46 -14
-70 25 -95 15 -10 24 -21 19 -24 -9 -5 -156 9 -218 21 -46 9 -46 9 -5 102 16
36 36 94 45 130 18 73 23 90 27 90 2 0 39 -7 83 -15z m-1783 -182 c-6 -12 -3
-60 8 -133 9 -63 16 -143 16 -177 -1 -63 7 -81 19 -42 8 25 -2 181 -17 261
-10 55 -4 118 10 104 3 -4 9 -37 13 -74 4 -37 12 -114 18 -171 l11 -103 -32
-44 c-34 -48 -43 -54 -35 -24 3 10 1 20 -3 22 -5 2 -11 28 -13 58 -10 108 -28
265 -33 282 -3 9 3 26 13 37 23 24 37 27 25 4z m377 -64 c-8 -5 -23 -9 -34 -9
-24 0 -52 -17 -43 -25 3 -4 39 -11 79 -16 40 -5 76 -14 80 -20 8 -13 4 -107
-4 -115 -15 -15 -260 131 -254 151 2 5 21 14 43 19 21 5 59 14 84 21 46 12 72
9 49 -6z m1389 -96 c67 -3 125 -10 128 -14 8 -13 -34 -49 -58 -49 -13 0 -43
-10 -68 -21 -72 -34 -211 -79 -242 -79 -20 0 -28 5 -29 18 -2 53 -1 123 2 125
2 1 18 10 34 20 21 12 42 16 70 12 22 -3 95 -8 163 -12z m450 -44 c2 -15 -4
-34 -13 -43 -15 -15 -14 -16 15 -16 18 0 57 7 87 16 41 12 74 14 129 9 41 -4
74 -11 74 -16 0 -4 13 -6 29 -3 15 3 53 1 82 -4 30 -6 82 -14 117 -17 34 -4
62 -10 62 -13 0 -4 -64 -42 -143 -84 -78 -43 -155 -87 -172 -98 -40 -27 -45
-25 -45 11 0 40 -25 82 -58 96 -15 7 -88 35 -162 63 -132 50 -210 91 -210 110
0 9 80 17 160 16 41 -1 45 -3 48 -27z m919 -49 c246 -30 465 -45 613 -41 302
8 363 7 368 -7 3 -11 -13 -12 -82 -6 -55 4 -86 3 -86 -3 0 -15 56 -21 305 -33
204 -10 365 -30 425 -52 23 -9 24 -10 7 -20 -50 -27 -455 -359 -562 -459 -38
-36 -121 -109 -182 -162 -127 -109 -109 -104 -286 -82 -65 8 -267 28 -449 45
-182 17 -355 34 -386 38 l-56 7 -17 49 c-9 28 -15 55 -13 60 3 6 21 19 42 29
20 9 53 31 72 48 30 26 26 25 -35 -12 -38 -23 -73 -43 -78 -46 -17 -10 -18 29
-1 43 17 14 17 15 1 10 -26 -8 -33 21 -11 47 18 20 18 21 1 7 -27 -20 -42 6
-21 38 14 22 14 22 -11 16 -19 -5 -25 -2 -25 11 0 12 -5 15 -22 9 -49 -14 -59
-39 -36 -89 11 -24 9 -29 -18 -50 -16 -13 -33 -24 -37 -25 -5 0 -15 -6 -23
-14 -29 -29 -13 -26 41 8 33 22 57 31 61 25 3 -6 -2 -17 -12 -24 -53 -38 -59
-44 -44 -45 9 0 26 7 39 16 13 10 26 13 32 7 14 -14 38 -102 29 -108 -4 -3
-52 2 -106 10 -55 9 -173 27 -264 40 -91 14 -221 34 -290 45 -69 11 -142 23
-163 26 l-38 6 138 80 c76 44 244 144 373 221 129 78 276 163 325 190 178 97
310 166 317 167 4 0 78 -9 165 -20z m1523 -84 c0 -6 4 -5 9 3 7 12 29 12 137
2 138 -13 199 -18 307 -25 38 -3 70 -6 72 -8 2 -2 10 -88 19 -193 9 -104 24
-257 32 -338 9 -81 14 -150 11 -153 -6 -6 -549 -5 -555 1 -3 3 2 35 11 72 23
101 32 167 19 160 -5 -4 -13 -24 -17 -44 -4 -21 -18 -73 -32 -115 l-26 -78
-267 0 c-147 0 -269 3 -272 6 -10 9 71 81 147 131 86 56 136 90 244 165 46 33
86 57 88 54 3 -3 -5 -50 -18 -105 l-23 -101 -40 -1 c-59 0 -117 -13 -114 -23
2 -5 33 -8 71 -7 73 3 74 1 58 -57 -9 -31 -8 -33 11 -30 23 3 47 67 48 128 0
19 11 78 23 130 l23 95 66 45 c36 25 85 58 107 74 23 16 43 27 45 25 4 -5 -34
-251 -61 -396 -19 -100 -19 -102 -1 -106 11 -3 21 0 23 6 2 7 11 84 20 172 8
88 21 200 27 249 l12 89 49 38 c27 22 53 39 58 39 5 0 9 12 9 26 0 22 -2 25
-15 14 -8 -7 -28 -10 -45 -8 -16 3 -30 1 -30 -3 0 -4 10 -9 23 -11 19 -3 15
-8 -33 -44 -30 -22 -204 -141 -386 -262 -292 -196 -374 -243 -374 -214 0 20
283 273 523 467 48 39 87 73 87 76 0 4 -29 13 -65 20 -49 9 -65 17 -65 29 0 9
2 19 5 22 9 9 55 -4 55 -16z m660 -3 c0 -5 1 -53 3 -108 l2 -100 -37 -3 -38
-3 0 49 c0 27 -3 77 -6 111 l-7 61 42 0 c22 0 41 -3 41 -7z m-3135 -47 c112
-44 122 -50 106 -70 -7 -9 -22 -16 -32 -16 -14 0 -19 -7 -19 -30 0 -24 -10
-38 -51 -70 -28 -22 -55 -40 -60 -40 -6 0 -47 -18 -93 -40 -97 -47 -109 -49
-100 -16 3 13 1 26 -4 30 -6 3 -6 25 0 57 5 28 7 58 4 66 -4 9 16 37 50 73
l56 59 48 -24 c55 -28 132 -56 138 -50 10 10 -13 25 -61 41 -67 21 -107 45
-107 62 0 16 9 13 125 -32z m-5 -251 c0 -13 -46 -42 -333 -209 -54 -32 -96
-61 -92 -64 4 -4 41 -12 83 -18 42 -7 113 -19 157 -27 292 -56 598 -107 641
-107 54 0 74 -12 74 -45 0 -18 -19 -29 -124 -68 -68 -26 -126 -47 -129 -47 -3
0 -32 17 -64 38 -135 88 -473 188 -820 243 -40 6 -73 14 -73 18 1 10 80 47
320 151 124 53 248 109 275 123 57 30 85 34 85 12z m4411 -286 c29 -11 103
-95 95 -108 -3 -4 -29 -11 -58 -15 -92 -12 -251 -47 -306 -68 -52 -19 -54 -19
-74 -1 -12 10 -34 35 -49 57 -23 31 -26 42 -18 58 16 30 86 56 206 77 107 18
154 18 204 0z m-3606 -159 c88 -11 181 -20 208 -20 78 0 63 -27 -59 -105 l-68
-44 -26 19 c-24 17 -171 89 -212 103 -9 3 -24 20 -33 36 -15 30 -15 31 7 31
13 0 95 -9 183 -20z"/>
<path d="M9189 5916 c-32 -17 -80 -30 -99 -27 -13 1 -16 -12 -18 -66 -1 -37
-5 -105 -8 -150 l-6 -83 -74 0 -74 0 -2 43 c-1 23 -1 70 0 105 1 38 -3 60 -8
57 -6 -4 -10 -55 -10 -116 l0 -109 197 0 c108 0 194 3 190 6 -3 4 -21 10 -39
14 -32 8 -32 8 -5 9 l28 1 -7 129 c-4 87 -3 134 4 147 9 15 12 -1 13 -76 l2
-95 8 85 c12 116 12 130 4 138 -3 3 -10 0 -14 -7 -7 -10 -13 -10 -29 -2 -25
13 -22 14 -53 -3z"/>
<path d="M4160 7326 c0 -18 75 -86 95 -86 8 0 15 -6 15 -12 1 -7 1 -83 0 -168
-1 -85 2 -151 6 -147 10 10 12 36 13 177 l1 125 90 0 c50 0 90 -1 90 -3 0 -2
-25 -28 -55 -58 -30 -31 -55 -61 -55 -67 0 -6 36 24 80 68 44 44 80 80 80 80
0 0 -48 0 -108 0 -98 0 -112 3 -164 29 -32 16 -55 33 -52 38 6 10 -14 38 -27
38 -5 0 -9 -6 -9 -14z"/>
<path d="M2190 6845 c0 -145 3 -215 11 -215 5 0 7 5 4 10 -4 6 -2 17 5 25 7 8
12 65 13 149 1 98 5 136 14 136 16 0 26 -17 13 -25 -6 -4 -7 -11 -3 -17 5 -10
14 -135 14 -213 0 -43 19 -91 36 -92 37 -2 126 -23 138 -33 7 -6 26 -10 42 -8
16 1 34 -1 40 -5 6 -4 28 -9 49 -12 26 -4 34 -2 24 4 -19 11 -194 51 -225 51
-13 0 -27 5 -30 10 -3 6 -17 10 -31 10 -20 0 -24 4 -19 19 3 10 6 55 7 100 l1
81 31 1 31 1 -32 9 c-18 5 -33 13 -33 17 0 26 54 41 94 26 23 -9 20 -27 -4
-21 -11 3 -20 1 -20 -4 0 -5 9 -9 20 -9 11 0 20 -4 20 -10 0 -5 -7 -10 -15
-10 -21 0 -19 -18 3 -24 9 -2 41 -8 70 -11 36 -5 52 -11 52 -22 0 -10 6 -12
20 -8 24 8 110 -4 110 -15 0 -11 -194 -10 -211 1 -9 6 1 9 31 10 l45 0 -45 15
c-25 7 -54 14 -64 14 -20 0 -20 0 0 -15 18 -14 18 -14 -11 -15 l-30 -2 29 -12
c27 -12 28 -14 10 -24 -10 -6 -13 -12 -6 -12 22 0 13 -20 -10 -21 l-23 0 23
-9 c24 -10 29 -26 10 -33 -7 -3 -3 -6 10 -6 12 -1 22 4 22 9 0 11 39 13 64 4
32 -12 16 -26 -21 -19 -23 4 -34 3 -28 -3 6 -5 57 -17 115 -26 103 -18 127
-23 241 -50 l56 -13 7 105 c3 58 6 141 6 184 0 73 -2 79 -23 87 -13 5 -135 34
-273 66 -137 31 -271 63 -298 71 -82 23 -76 39 -76 -201z"/>
<path d="M10260 8775 c-58 -30 -168 -82 -245 -116 -217 -96 -485 -227 -485
-238 0 -6 8 -15 18 -20 18 -12 19 -12 -35 -49 -16 -11 -13 -12 22 -7 37 5 39
4 21 -10 -11 -8 -26 -15 -33 -15 -7 0 -13 -5 -13 -10 0 -7 6 -7 19 0 25 13 31
13 31 0 0 -5 -6 -10 -14 -10 -8 0 -18 -4 -21 -10 -4 -6 1 -7 12 -2 27 12 93
42 140 63 45 20 63 24 63 12 0 -5 -36 -24 -80 -43 -65 -28 -77 -37 -67 -48 9
-11 6 -18 -17 -34 -20 -16 -24 -23 -15 -29 10 -6 9 -10 -6 -14 -11 -4 -32 -13
-47 -21 -36 -19 -51 -18 -40 4 4 9 8 33 7 52 -1 19 3 43 8 54 6 12 6 16 -1 12
-6 -3 -13 -2 -16 3 -3 5 1 11 9 15 8 3 15 10 15 17 0 6 -7 9 -15 5 -8 -3 -15
-2 -15 3 0 5 9 11 20 14 11 3 20 10 20 15 0 6 -10 8 -22 4 -30 -7 -14 16 20
30 15 6 22 12 16 14 -6 3 -27 -2 -47 -11 -30 -12 -37 -21 -37 -43 0 -27 -7
-127 -35 -477 -8 -104 -15 -205 -15 -222 l0 -33 53 22 c28 11 214 77 412 145
198 68 383 132 410 142 l50 19 8 93 c15 195 58 676 63 727 4 28 2 52 -2 51 -5
0 -56 -25 -114 -54z m11 -681 c0 -8 -222 -92 -376 -141 -125 -40 -411 -137
-437 -148 -11 -4 -18 -3 -18 4 0 17 14 22 415 156 209 70 387 131 395 135 15
9 22 7 21 -6z"/>
<path d="M7390 7964 c0 -5 17 -25 38 -46 78 -76 165 -257 165 -345 0 -30 -6
-60 -14 -69 -36 -44 -182 -86 -369 -108 -138 -17 -98 -20 56 -5 123 11 247 40
306 70 49 25 71 70 58 120 -28 117 -96 248 -167 324 -45 48 -73 71 -73 59z"/>
<path d="M7425 6551 c-88 -4 -165 -10 -171 -13 -13 -9 -38 -142 -33 -178 4
-23 8 -25 45 -22 27 2 45 -2 54 -13 13 -16 35 -21 25 -6 -3 5 0 13 6 17 9 5
10 -2 6 -25 -6 -29 -5 -31 9 -17 19 20 18 19 55 1 22 -12 34 -13 50 -4 24 12
23 13 37 -26 l10 -30 1 33 c1 31 21 48 21 17 0 -8 5 -15 10 -15 6 0 10 7 10
15 0 8 5 15 10 15 6 0 10 -7 10 -15 0 -9 7 -18 15 -21 8 -4 15 -14 16 -23 0
-10 2 -11 6 -3 8 19 23 3 24 -26 l1 -27 8 30 c4 17 8 101 9 188 l1 157 -37 -2
c-21 -1 -110 -4 -198 -7z"/>
<path d="M8269 6316 c-2 -2 -34 -6 -70 -10 -115 -10 -200 -32 -226 -58 -25
-25 -47 -108 -25 -94 7 4 12 15 12 25 0 10 6 24 14 30 11 9 14 8 12 -6 -2 -25
30 -28 37 -4 3 12 0 19 -7 18 -6 -1 -11 5 -11 13 0 8 8 16 18 18 9 2 17 -2 17
-8 0 -7 14 0 30 14 88 73 220 10 220 -105 0 -26 3 -30 10 -19 9 13 10 13 10 0
1 -37 20 17 20 57 0 54 8 73 30 73 13 0 19 -11 24 -41 4 -22 4 -44 1 -50 -8
-12 4 -49 16 -49 5 0 9 38 9 85 0 82 -1 85 -19 75 -32 -17 -60 -12 -85 15 -23
25 -29 28 -37 21z"/>
<path d="M7956 5857 c16 -19 34 -41 39 -49 14 -22 245 -35 245 -14 0 18 -55
64 -83 71 -50 11 -155 25 -191 25 l-38 0 28 -33z"/>
<path d="M2176 7842 c-2 -15 -6 -155 -8 -312 l-3 -285 55 -16 c102 -30 463
-113 543 -125 l47 -6 0 276 c-1 151 -4 277 -8 279 -4 2 -19 7 -34 11 -27 6
-27 5 -21 -26 3 -18 10 -34 15 -36 9 -4 11 -96 2 -141 -4 -18 -17 -39 -29 -47
-19 -13 -26 -13 -50 0 -16 8 -30 24 -32 35 -4 27 -51 73 -66 65 -7 -4 -9 -4
-5 0 3 4 -7 20 -23 35 -17 17 -29 39 -29 54 0 31 16 43 35 27 10 -9 15 -7 20
9 3 10 12 22 20 25 8 3 12 12 9 21 -3 8 -1 15 5 15 24 0 9 20 -21 29 -102 30
-206 64 -305 100 l-112 40 -5 -27z m235 -124 c22 -12 39 -26 39 -30 0 -5 6 -8
13 -7 37 5 36 8 28 -154 -1 -18 -2 -18 -33 1 -46 27 -112 36 -128 17 -7 -8 -9
-15 -6 -15 4 0 0 -8 -9 -17 -16 -16 -18 -15 -36 8 -37 48 -23 162 25 201 28
24 61 22 107 -4z m29 -238 c11 -11 20 -24 20 -30 0 -20 36 -9 64 20 32 33 34
34 56 20 11 -7 16 -34 18 -109 3 -85 6 -99 20 -99 10 1 41 -6 70 -16 49 -17
52 -19 52 -52 0 -22 -6 -37 -15 -40 -24 -10 -149 17 -162 34 -7 9 -13 45 -14
81 0 36 -4 75 -9 86 l-9 20 0 -20 c-1 -15 -3 -17 -10 -6 -16 24 -23 -7 -16
-68 8 -68 -1 -79 -43 -57 -16 8 -59 20 -95 26 -36 7 -71 17 -76 24 -5 6 -7 30
-4 53 5 40 7 42 37 40 17 -1 32 2 33 6 1 4 9 15 18 23 8 9 15 28 15 43 0 46
18 53 50 21z"/>
<path d="M8390 7804 c-25 -8 -119 -35 -210 -60 -91 -25 -200 -57 -242 -71
l-78 -26 0 -202 c0 -111 -3 -229 -6 -263 -7 -60 -7 -61 21 -68 29 -7 493 66
563 89 l37 12 3 303 2 302 -22 -1 c-13 -1 -43 -7 -68 -15z m-30 -235 c12 -22
13 -229 1 -247 -10 -16 -104 -43 -244 -72 -123 -25 -132 -25 -158 1 -19 19
-21 30 -17 124 2 64 8 108 16 118 7 9 61 27 120 41 59 15 138 35 177 45 75 20
90 19 105 -10z"/>
<path d="M1361 7088 c1 -189 5 -210 39 -214 14 -2 37 -6 53 -9 l27 -4 0 167 0
168 -55 27 c-31 15 -58 27 -60 27 -3 0 -5 -73 -4 -162z"/>
<path d="M8355 7019 c-147 -30 -416 -79 -435 -79 l-22 0 4 -214 c1 -118 6
-217 9 -220 3 -4 66 2 140 14 74 11 184 25 244 33 l110 13 6 109 c8 138 3 349
-8 351 -4 1 -26 -2 -48 -7z m-111 -90 c16 -8 32 -28 42 -56 28 -73 3 -233 -36
-233 -13 0 -13 47 0 55 13 8 13 35 -1 35 -6 0 -26 -16 -45 -35 -42 -43 -63
-45 -70 -5 -4 17 -10 30 -15 30 -11 0 -12 60 -1 77 7 11 26 16 50 14 17 -1 15
-46 -3 -65 -10 -10 -12 -21 -7 -36 8 -21 9 -20 36 14 18 24 35 36 52 36 20 0
24 5 24 29 0 33 -27 102 -44 113 -22 15 -101 8 -123 -11 -35 -29 -63 -83 -63
-122 0 -34 1 -35 30 -31 37 5 39 -11 4 -27 -31 -14 -29 -46 3 -46 30 0 29 -12
-2 -37 -34 -27 -52 -18 -65 33 -26 94 13 212 86 260 33 22 109 26 148 8z"/>
<path d="M9805 6775 c-83 -45 -135 -137 -139 -244 -2 -54 1 -78 15 -101 17
-27 23 -30 72 -30 94 0 186 44 218 103 19 34 29 130 18 170 -24 90 -114 139
-184 102z m130 -132 c19 -39 19 -63 -1 -111 -21 -53 -59 -84 -107 -88 -32 -3
-44 1 -68 25 -24 24 -29 38 -29 76 0 54 24 112 49 120 10 3 28 16 41 30 l23
24 38 -22 c22 -12 46 -36 54 -54z"/>
<path d="M6549 6442 c-65 -8 -95 -97 -47 -142 25 -23 84 -27 110 -6 39 29 44
99 10 129 -22 18 -41 23 -73 19z"/>
<path d="M5378 726 c-26 -19 -71 -160 -53 -164 8 -2 15 -13 17 -25 2 -18 11
-23 42 -25 l38 -3 -7 103 c-8 119 -12 132 -37 114z"/>
<path d="M10751 8773 c-13 -65 -14 -209 -1 -158 l8 30 1 -32 c1 -37 -8 -65
-19 -58 -4 3 -11 -26 -14 -63 -4 -37 -14 -125 -22 -195 -20 -182 -24 -167 41
-167 l55 0 0 185 c0 168 -5 207 -24 176 -11 -17 -8 -131 3 -145 9 -11 8 -15
-5 -20 -27 -10 -34 3 -33 67 2 94 10 122 37 121 22 -1 22 1 22 158 0 147 -1
158 -19 158 -14 0 -21 -12 -30 -57z"/>
</g>
</svg>
