<svg width="24" height="24" viewBox="0 0 24 24" fill="none" xmlns="http://www.w3.org/2000/svg">
<path d="M19.7606 3.67969L7.54963 1.52344C7.1579 1.4545 6.75483 1.54397 6.42906 1.77217C6.10329 2.00037 5.88149 2.34861 5.81244 2.74031L3.02338 18.5841C2.98926 18.7782 2.99373 18.9771 3.03653 19.1694C3.07932 19.3618 3.15961 19.5439 3.27279 19.7052C3.38597 19.8665 3.52983 20.004 3.69616 20.1097C3.86248 20.2154 4.048 20.2873 4.24213 20.3213L16.4531 22.4775C16.6472 22.5117 16.8462 22.5074 17.0387 22.4647C17.2312 22.4219 17.4134 22.3417 17.5748 22.2285C17.7362 22.1153 17.8738 21.9714 17.9795 21.805C18.0853 21.6386 18.1572 21.453 18.1912 21.2588L20.9803 5.415C21.0486 5.02315 20.9585 4.6202 20.7297 4.29478C20.501 3.96936 20.1524 3.74811 19.7606 3.67969ZM16.7118 21L4.49994 18.8438L7.289 3L19.4999 5.15625L16.7118 21ZM8.37556 5.47688C8.4103 5.2811 8.52136 5.10713 8.68433 4.99321C8.8473 4.8793 9.04883 4.83475 9.24463 4.86938L17.0259 6.24281C17.2108 6.27521 17.3769 6.37579 17.4912 6.52467C17.6056 6.67356 17.66 6.85993 17.6436 7.04696C17.6272 7.23399 17.5413 7.40808 17.4028 7.53484C17.2643 7.66159 17.0833 7.73179 16.8956 7.73156C16.8516 7.7315 16.8077 7.72774 16.7643 7.72031L8.98306 6.34594C8.78729 6.3112 8.61332 6.20014 8.4994 6.03717C8.38548 5.87421 8.34094 5.67267 8.37556 5.47688ZM7.85619 8.43188C7.87328 8.33485 7.90932 8.24215 7.96225 8.15906C8.01518 8.07597 8.08397 8.00412 8.16467 7.94762C8.24538 7.89111 8.33642 7.85107 8.43261 7.82976C8.52879 7.80845 8.62823 7.8063 8.72525 7.82344L16.5065 9.19781C16.6927 9.22896 16.8604 9.3292 16.9759 9.47853C17.0915 9.62786 17.1465 9.81527 17.1299 10.0034C17.1133 10.1915 17.0264 10.3664 16.8865 10.4932C16.7466 10.62 16.5641 10.6894 16.3753 10.6875C16.3309 10.6876 16.2866 10.6835 16.2431 10.6753L8.46181 9.30188C8.26619 9.26671 8.09252 9.15533 7.97897 8.9922C7.86541 8.82907 7.82125 8.62754 7.85619 8.43188ZM7.33588 11.3859C7.37127 11.1907 7.4826 11.0174 7.64549 10.9041C7.80838 10.7907 8.00955 10.7466 8.20494 10.7813L12.0937 11.4647C12.2785 11.4971 12.4445 11.5976 12.5589 11.7464C12.6733 11.8952 12.7277 12.0814 12.7115 12.2684C12.6952 12.4553 12.6095 12.6294 12.4711 12.7562C12.3328 12.8831 12.152 12.9534 11.9643 12.9534C11.9203 12.9534 11.8764 12.9497 11.8331 12.9422L7.94244 12.255C7.74683 12.22 7.5731 12.1089 7.45937 11.9459C7.34565 11.783 7.30123 11.5816 7.33588 11.3859Z" fill="#F5F6F6"/>
</svg>
