<svg width="20" height="20" viewBox="0 0 20 20" fill="none" xmlns="http://www.w3.org/2000/svg">
<path d="M9.25 1.75V1C9.25 0.801088 9.32902 0.610322 9.46967 0.46967C9.61032 0.329018 9.80109 0.25 10 0.25C10.1989 0.25 10.3897 0.329018 10.5303 0.46967C10.671 0.610322 10.75 0.801088 10.75 1V1.75C10.75 1.94891 10.671 2.13968 10.5303 2.28033C10.3897 2.42098 10.1989 2.5 10 2.5C9.80109 2.5 9.61032 2.42098 9.46967 2.28033C9.32902 2.13968 9.25 1.94891 9.25 1.75ZM16 10C16 11.1867 15.6481 12.3467 14.9888 13.3334C14.3295 14.3201 13.3925 15.0892 12.2961 15.5433C11.1997 15.9974 9.99334 16.1162 8.82946 15.8847C7.66557 15.6532 6.59647 15.0818 5.75736 14.2426C4.91824 13.4035 4.3468 12.3344 4.11529 11.1705C3.88378 10.0067 4.0026 8.80026 4.45672 7.7039C4.91085 6.60754 5.67988 5.67047 6.66658 5.01118C7.65327 4.35189 8.81331 4 10 4C11.5908 4.00174 13.1159 4.63444 14.2407 5.75928C15.3656 6.88412 15.9983 8.40923 16 10ZM14.5 10C14.5 9.10998 14.2361 8.23995 13.7416 7.49993C13.2471 6.75991 12.5443 6.18314 11.7221 5.84254C10.8998 5.50195 9.99501 5.41283 9.12209 5.58647C8.24918 5.7601 7.44736 6.18868 6.81802 6.81802C6.18868 7.44736 5.7601 8.24918 5.58647 9.12209C5.41283 9.99501 5.50195 10.8998 5.84254 11.7221C6.18314 12.5443 6.75991 13.2471 7.49993 13.7416C8.23995 14.2361 9.10998 14.5 10 14.5C11.1931 14.4988 12.337 14.0243 13.1806 13.1806C14.0243 12.337 14.4988 11.1931 14.5 10ZM3.46938 4.53063C3.61011 4.67136 3.80098 4.75042 4 4.75042C4.19902 4.75042 4.38989 4.67136 4.53063 4.53063C4.67136 4.38989 4.75042 4.19902 4.75042 4C4.75042 3.80098 4.67136 3.61011 4.53063 3.46938L3.78062 2.71938C3.63989 2.57864 3.44902 2.49958 3.25 2.49958C3.05098 2.49958 2.86011 2.57864 2.71938 2.71938C2.57864 2.86011 2.49958 3.05098 2.49958 3.25C2.49958 3.44902 2.57864 3.63989 2.71938 3.78062L3.46938 4.53063ZM3.46938 15.4694L2.71938 16.2194C2.57864 16.3601 2.49958 16.551 2.49958 16.75C2.49958 16.949 2.57864 17.1399 2.71938 17.2806C2.86011 17.4214 3.05098 17.5004 3.25 17.5004C3.44902 17.5004 3.63989 17.4214 3.78062 17.2806L4.53063 16.5306C4.60031 16.4609 4.65558 16.3782 4.6933 16.2872C4.73101 16.1961 4.75042 16.0985 4.75042 16C4.75042 15.9015 4.73101 15.8039 4.6933 15.7128C4.65558 15.6218 4.60031 15.5391 4.53063 15.4694C4.46094 15.3997 4.37822 15.3444 4.28717 15.3067C4.19613 15.269 4.09855 15.2496 4 15.2496C3.90145 15.2496 3.80387 15.269 3.71283 15.3067C3.62178 15.3444 3.53906 15.3997 3.46938 15.4694ZM16 4.75C16.0985 4.75008 16.1961 4.73074 16.2871 4.6931C16.3782 4.65546 16.4609 4.60025 16.5306 4.53063L17.2806 3.78062C17.4214 3.63989 17.5004 3.44902 17.5004 3.25C17.5004 3.05098 17.4214 2.86011 17.2806 2.71938C17.1399 2.57864 16.949 2.49958 16.75 2.49958C16.551 2.49958 16.3601 2.57864 16.2194 2.71938L15.4694 3.46938C15.3644 3.57427 15.2928 3.70796 15.2639 3.85352C15.2349 3.99908 15.2497 4.14998 15.3065 4.28709C15.3633 4.42421 15.4596 4.54139 15.583 4.62379C15.7065 4.70619 15.8516 4.75012 16 4.75ZM16.5306 15.4694C16.3899 15.3286 16.199 15.2496 16 15.2496C15.801 15.2496 15.6101 15.3286 15.4694 15.4694C15.3286 15.6101 15.2496 15.801 15.2496 16C15.2496 16.199 15.3286 16.3899 15.4694 16.5306L16.2194 17.2806C16.2891 17.3503 16.3718 17.4056 16.4628 17.4433C16.5539 17.481 16.6515 17.5004 16.75 17.5004C16.8485 17.5004 16.9461 17.481 17.0372 17.4433C17.1282 17.4056 17.2109 17.3503 17.2806 17.2806C17.3503 17.2109 17.4056 17.1282 17.4433 17.0372C17.481 16.9461 17.5004 16.8485 17.5004 16.75C17.5004 16.6515 17.481 16.5539 17.4433 16.4628C17.4056 16.3718 17.3503 16.2891 17.2806 16.2194L16.5306 15.4694ZM1.75 9.25H1C0.801088 9.25 0.610322 9.32902 0.46967 9.46967C0.329018 9.61032 0.25 9.80109 0.25 10C0.25 10.1989 0.329018 10.3897 0.46967 10.5303C0.610322 10.671 0.801088 10.75 1 10.75H1.75C1.94891 10.75 2.13968 10.671 2.28033 10.5303C2.42098 10.3897 2.5 10.1989 2.5 10C2.5 9.80109 2.42098 9.61032 2.28033 9.46967C2.13968 9.32902 1.94891 9.25 1.75 9.25ZM10 17.5C9.80109 17.5 9.61032 17.579 9.46967 17.7197C9.32902 17.8603 9.25 18.0511 9.25 18.25V19C9.25 19.1989 9.32902 19.3897 9.46967 19.5303C9.61032 19.671 9.80109 19.75 10 19.75C10.1989 19.75 10.3897 19.671 10.5303 19.5303C10.671 19.3897 10.75 19.1989 10.75 19V18.25C10.75 18.0511 10.671 17.8603 10.5303 17.7197C10.3897 17.579 10.1989 17.5 10 17.5ZM19 9.25H18.25C18.0511 9.25 17.8603 9.32902 17.7197 9.46967C17.579 9.61032 17.5 9.80109 17.5 10C17.5 10.1989 17.579 10.3897 17.7197 10.5303C17.8603 10.671 18.0511 10.75 18.25 10.75H19C19.1989 10.75 19.3897 10.671 19.5303 10.5303C19.671 10.3897 19.75 10.1989 19.75 10C19.75 9.80109 19.671 9.61032 19.5303 9.46967C19.3897 9.32902 19.1989 9.25 19 9.25Z" fill="#F5F6F6"/>
</svg>
